/* XPM */
static char *marbface_64_64[] = {
/* columns rows colors chars-per-pixel */
"64 64 216 2 ",
"   c #0E0C09",
".  c #070503",
"X  c #140D06",
"o  c #100C08",
"O  c #1E1207",
"+  c #14120C",
"@  c #1B140B",
"#  c #1E1B0D",
"$  c #1C1B13",
"%  c #181813",
"&  c #2E0F07",
"*  c #3E0B06",
"=  c #3C0E08",
"-  c #380703",
";  c #261509",
":  c #231A0D",
">  c #2D1C0C",
",  c #2A160A",
"<  c #32160A",
"1  c #3C120B",
"2  c #321E0E",
"3  c #3D190E",
"4  c #381107",
"5  c #231D13",
"6  c #2B1E11",
"7  c #261F18",
"8  c #321E10",
"9  c #3D1C10",
"0  c #1E210C",
"q  c #23230E",
"w  c #27260E",
"e  c #31210F",
"r  c #252315",
"t  c #2C2413",
"y  c #252C13",
"u  c #2B2B14",
"i  c #252419",
"p  c #2A2519",
"a  c #26291A",
"s  c #2C2C1B",
"d  c #342313",
"f  c #3A2515",
"g  c #332A16",
"h  c #3B2817",
"j  c #322619",
"k  c #342C1B",
"l  c #3B2C1B",
"z  c #2D3017",
"x  c #2C321A",
"c  c #2B3A1A",
"v  c #32331D",
"b  c #3A321E",
"n  c #31381F",
"m  c #3B3A1F",
"M  c #2B2C22",
"N  c #322D22",
"B  c #3E2F20",
"V  c #2D3220",
"C  c #333322",
"Z  c #3B3523",
"A  c #353B23",
"S  c #3A3B25",
"D  c #33332B",
"F  c #3C3C2A",
"G  c #3B3D31",
"H  c #430403",
"J  c #430906",
"K  c #430E09",
"L  c #43130C",
"P  c #42190F",
"I  c #49140F",
"U  c #451C13",
"Y  c #491C14",
"T  c #4A1611",
"R  c #442216",
"E  c #492017",
"W  c #45251A",
"Q  c #4C241A",
"!  c #432D1D",
"~  c #4B2B1E",
"^  c #522A1E",
"/  c #42311F",
"(  c #4C2F21",
")  c #542A20",
"_  c #443422",
"`  c #4B3525",
"'  c #433A26",
"]  c #4D3A26",
"[  c #443E2B",
"{  c #4C3D29",
"}  c #493729",
"|  c #533628",
" . c #523D2A",
".. c #543626",
"X. c #3B4127",
"o. c #3D432A",
"O. c #3D4A29",
"+. c #3E4432",
"@. c #43442C",
"#. c #4B422D",
"$. c #43492E",
"%. c #49492F",
"&. c #52422D",
"*. c #5B452D",
"=. c #444532",
"-. c #4B4632",
";. c #464B32",
":. c #4B4C34",
">. c #444639",
",. c #45493A",
"<. c #4C4E3B",
"1. c #484738",
"2. c #534632",
"3. c #5A4432",
"4. c #524C35",
"5. c #5A4A34",
"6. c #544D39",
"7. c #5C4E39",
"8. c #4B5136",
"9. c #4E5439",
"0. c #475033",
"q. c #515137",
"w. c #52553B",
"e. c #5B533C",
"r. c #54593E",
"t. c #5A583F",
"y. c #614B33",
"u. c #634D39",
"i. c #6B4E33",
"p. c #64523D",
"a. c #6D543C",
"s. c #695036",
"d. c #755231",
"f. c #7B5A3E",
"g. c #74563B",
"h. c #4C5040",
"j. c #525442",
"k. c #5C5743",
"l. c #565C41",
"z. c #5A5D43",
"x. c #5D5C49",
"c. c #645742",
"v. c #6B5642",
"b. c #625C44",
"n. c #6B5B44",
"m. c #635E49",
"M. c #6A5E49",
"N. c #745D44",
"B. c #7B5E44",
"V. c #745E49",
"C. c #5C6146",
"Z. c #5E6449",
"A. c #626147",
"S. c #63654A",
"D. c #6A644C",
"F. c #64694D",
"G. c #69694E",
"H. c #6E6345",
"J. c #756147",
"K. c #7D6145",
"L. c #72654D",
"P. c #7B634D",
"I. c #706A4F",
"U. c #676652",
"Y. c #666B50",
"T. c #6B6D52",
"R. c #7E6751",
"E. c #736D53",
"W. c #7A6D55",
"Q. c #766954",
"!. c #6D7155",
"~. c #6F7359",
"^. c #727156",
"/. c #7C7056",
"(. c #74755A",
"). c #7C745B",
"_. c #74785C",
"`. c #7C795E",
"'. c #7D7560",
"]. c #7B7C62",
"[. c #747860",
"{. c #81664B",
"}. c #82684E",
"|. c #806044",
" X c #826B54",
".X c #846E59",
"XX c #886F59",
"oX c #83745C",
"OX c #8B745D",
"+X c #83795F",
"@X c #89785F",
"#X c #8A7057",
"$X c #92795F",
"%X c #91755C",
"&X c #847B62",
"*X c #8B7B63",
"=X c #8B7B66",
"-X c #937D65",
";X c #967F69",
":X c #987F66",
">X c #858066",
",X c #8B8067",
"<X c #8D8269",
"1X c #918067",
"2X c #94836B",
"3X c #9C856D",
"4X c #96886F",
"5X c #9B886F",
"6X c #9D8A72",
"7X c #A38C74",
"8X c #A78F78",
"9X c #A59279",
"0X c #AA937B",
"qX c #A19175",
"wX c #AE9981",
"eX c #B19981",
/* pixels */
"K _ -.%.G F +.@.;.9.8.r.l.l.z.z.r.9.w.t.9.r.r.9.9.$.8.8.8.;.=.h.G G G D ,.;.>.,.8.=.,.h.,.0.X.$.;.=.+.<.O.8.r.9.r.l.k.w.@._ ! W ",
"H H L ! G D X.Z S 9.0.!._.T.(.!.G.A.C.!.C.F.F.A.C.0.9.9.@.v A D N M % + V V + v X.Z A F h.9.D A 8.8.D j.=.C.r.;.l.F.b.` L J J < ",
"< H K J K l o.@.;.;.;.C.F.^.!.C.0.1.8.Z.Z.Z.!.Z.9.r.0.@.C r p =.=.G M M x   % ,.j.1.=.G M F w.D F S s +.8.9.O.S r.S U H 1 * * u ",
"e = 2 d = 1 f S :.:.0.0.9.S.F.C.C.X.X.9.9.Z.Z.8.0.r.0.m a $ r o.x.9.+.V A X.+.9.j.T.Z.;.M ,.Z.;.@.C a y v z c v Z < 1 ! _ 1 2 t ",
"g e 2 g ~ / f d _ 2.4.w.w.D.T.M.Z.w.r.!.r.r.%.$.C.F.^.A.$.r 6 #.#.N F F 8.T.!.A.r.$.Z.q.@.=.<.9.4.Z @.$.$.#.#.h f ! Z #.h e g q ",
"z u e l &.%.&./ ! 5. X<XE./.oXQ.H.^.W.E.r.o.X.t.A.z.e.3.{ l 3 J J 1 f _ #.7.k.A.F.-.8.8.[ 4.D.D.A./.oXE.).P.*. .*.7.-.] f l b e ",
"c v d d 2.e.e.e.5.]  .D.E.t.E.oX@X>X5X4.@.X.:.4.` l / / { [ b ! ~ b ' #._ / l / 2.q.%.0.@.Q.4X&X@X/.S.t.n. .*.L.n.e.e.` h / g w ",
"S X.v e g n @.q.t.p.a.3.}.oX`.G.F.T.).q.4._ { ] ' #.w.r.z.w.%.w.z.2.;.Z.w.t.-.] ] ] _ #.4.A._.F.D.^.H.V.y.N.W.A.e.0.S e b A x y ",
"g g x u e X.$.%.8.C.G.%.&.a..X2X6X^.z.5.&.#.e.z.C.Z.G.F.U.w.Z.S.C.F.w.A.F.G.F.C.C.r.4.&.&.p.C.<X3XR.i.5.%.D.F.9.;.:.b e v n x u ",
"X.@.k z e l O.n 9.Y.~.Z.t.7. .e.D.H.s.u.e.F.!.(.~.^.).!.S.Z.T.T.!.G.D.Z.T.^.(.^._.!.!.t.e.u.g.H.p.&.5.Z.C.!.~.Z.X.n d u z y n u ",
"c o.A A v d Z v O.C.9.C.F.F.t.&.7.a.V.).!.!.).).`.`.).Y.F.F.Z.F.!.Z.Z.!.Z.(.'.).`.).`.F.(.W.g.u.2.A.F.T.C.r.t.r.n d d S A u x : ",
"x m m n u 2 g A $.C.w.:.0.X.q.p.N.s.J.).`.`.oX&X).+X~.Z.T.T.!.W.).!.Y.!.F.F.'.oXoXoXoX`.Q.N.a.L.v.e.$.@.8.8.t.q.X.e u z z u q : ",
"X.$.n u u e > g X.w.C.l.q.#._ L.oX}.a.a.R.%X-X-X@X).Z.Z.(.(.&X-X-X=X`.(.!.l.T.oX*X-XOX}.a.J.oX*X).7._ -.r.C.r.$.g > g u u w : : ",
"O.S.w.@.z u > e Z $.F 8.q.` e.T.@X@X.XN.g.|.#X*X).S.F.E.@X*X6X7X3X7X2X*X).T.S.Y.*XOX|.d.J..X-X@X).A.{ #.r.=.o.@.e > u u y s s 5 ",
"F Y.S.z.1.v d > v [ V @._ { w.)././.@X1X$X{.s.e.F.T..XOX-X3X8X8X8X7X8X:XOXOXE.Y.e.3.K.%X1X*XoXE.@Xz.4.h #.v Z l 2 g u k S S N 5 ",
"s l.9.w.z.l.o.> > Z [ g l [ #.W.A..X2X-X7X@X2.&.e.E.#X*X3X0X3X0X0X8X7X7X-XOX Xv.4.#.L.7X3X$X2XH.G.c.[ b e Z ' e d o.v A Z o.C r ",
"V 9.l.Z.Z.j.F , H l v f 2.$.@.Z e.1X*X7X3XH.9.A.v.p.P.1X7X7X8X0X8X0X7X7X:X}.a.v.D.C.w.oX7X1X2XW.@.' #.-.! d d 4 #.;.$.0.o.Z n u ",
"D 9.C.Z.l.G A j H K < g @.r.:.-.^.3X*X0X).:.C.!.).V.d.f.3X5X0X8X9X0X7X-X{.d.N.)._.F.w.t.7X6X=X-Xe.$.r.;.Z > * E l.r.9.0.@.v r u ",
"A r.l.Z.z.j.l.<.U H P C b w.9.G.@X@X@X5Xr.w.Z.!.).=X}.B.f.OX8X9X0X8X-Xf.{. X*X`.(.F.Z.;.).1X*X*X`.r.r.-.p = H ` Y.F.Z.r.w.F r r ",
"A w.C.Z.9.j.>.w.Y H R @.@.w.r.A.F.D.,XG.:.r.G.I.&X&XoX3XK.P.XX3X;X X XXX:X3XE.2XE.^.C.8.e.+X).z.D.r.C.1.b H H J 7.!.S.C.r.:.v y ",
"V =.Z.Y.z.h.<.[ J H J _ A G.$.X.;.H.^.e.S.G.r.D.4Xz.8X2X&XXXP.P.B. X6X;X;X0XS.E.2Xw.F.F.b.b.oX:.0.v D.9.< J ( H Q S.Z.Z.w.9.@.z ",
"V l.!.F.Z.l.w.E J ~ H E Z z.-.S 4.D.A.oX@X^.I.4Xb.D.wX&X*XOXB. XR.B.%X=X*X3Xw.&X5XD.G.^.).-.e.b.S v D.=.* Q D.Y J 2.Z.Z.8.r.:.c ",
"X.C.F.Z.Z.C.6.K P A.~ 4 v $.$.-.9.l.(.,X1X,X>X0Xb.E.eX.XB.R.XX3X;X|.f.v.*XoX*X1XOX1X@XZ.w.2.w.w.q.:.z.l J 7.S._ H ~ z.8.:.q.:.n ",
"A l.l.C.l.l.{ H W F.v.K W $.X.-.4.r.`.`.oX^._.4X6X&X;XN.N.W.6X3X3X*XN.a.P.W.7X@XG.).^.C.C #.'.m.T.Z.r.d R 9.;.v J P $.A ;.$.X.n ",
"s @.:.r.$.8.R H #.r.C.! d -.C 4.w.r.S.S.T.^.&X1X*Xf.B.OX-X/.2X*X/.*XR.OXP.a.P.OX2X`.A.C.:.[ Y.x.8.o.Z 1 &.r.w.q.R H l X.$.0.9.x ",
"r x ;.9.w.4.K L t.z.8.v 6 g S :.w.E.o.$.F F e..Xf.y.W.7X9X7X/.H.M./.7X-X.Xc.N.K. X-.x X.@.@.U.;.A s ; E t.r.C.!. .- f @.@.=.9.C ",
"% $ s F 8.#.H R C.9.o.a , > v w.w.Q.k.v p 5 j 3.K.^.A.2X7X7XE.).Q.Q.3X*XH.).OXg.` j i Z z >.x.=.S 6 = 2.Z.l.r.!.2.H U =.0.;.9.n ",
"+ % % i o.l H Q 0.;.9.X.j K > w.D.D.N S C _ &.=.(.&X-.A.&X^.t.D.D.Z.&XT.:.^.(.;.Z 2.j [ s =.#.@.] H Q A.Z.Z.t.Z.9.* U <.9.$.0.X.",
"r s $ i Z U H ' r.r.Y.l.$.d : o.S.w.p ' u.Z ~.<.C.!.1.S A.z.w.:.@.C.(.j.S z.r.Z U.j.{ c.d k.S C R J 2.S.D.C.Z.z.$.1 K 2.Z.C.;.A ",
"s ;.A ;.C 1 H -.9.;.Z.o.r C d d /.#. ._ =Xm.x.[ S 9.Z N ' @.F D a =.r.Z s ;.C F m.j.&Xm./ | Z y e l t.S.F.z.Z.F.;.U H 5.z.C.9.V ",
"x ;.@.l.=.3 H { $.;.8.s x w.#.d *.` c.#.S.).x.s i V r =.Z i i s $ u s S r u r -.@.E.^.9.@.[ l 2 d C r.Z.C.z.Z.F.$.P H e.F.z.;.x ",
"S r.l.C.w.U H { $.0.n u ;.z.2.d ] 6.z.@.T.D.:.=.F s 6.<.e.Z M :.Z ' ;.:.F C A D.e.z.b.-.w.^.4.2 d k O.C.C.C.F.l.$.U H e.Y.Z.;.y ",
"X.r.Z.Z.r.Y H &.;.m u q ' #.` b _ k.D.4.D.Q.&Xj.k [ z.F.=X6.F G.#.D.].D.z.F @.z.2XD.o.F e.4X=.d  ._ t #.r.C.F.r.0.U J a.T.z.9.A ",
"X.l.C.Z.A.Q H 4.0.C v , 2  .z.t._ { [ k.l.^.qX6.s v C D.6XD.$.S.o.].>XY.[ M T.A.>X7XD.8.&XW.f 2.^.Z & H ~ r.Y.9.$.E J p._.D.9.V ",
"O.Y.Y.S.S.) H #.0.Z L H f %.S.:.S ~ -.9.^.b.&X<.1.D 5 c.;X,Xz.T.w.,X6Xx.C =.e.=.E.>X5X).'.' g &XE.y d 3 J Y 4.9.o.P J e.Y.!.l.F ",
"F Y.G.l.Y.4.H R R J P &.z.x n S n l { k.D.[ Z 1.D.8.p w.*X6XD.D.D.7X6X9.F Q.6.C S.A.G.Z.D.f _ /.Z X.S v h K J ! @.L L :.r.Z.r.X.",
"M l.9.j.^.2.- H K ` b._._.$.y $.-.Z  .{ k.z.:.w.b.z.M <.oX5X(.G.^.7X&X,.;.m.F k.:.z.S.,.#.f Z X.s 9.@.s x @.Q J K H U q.9.C.C.X.",
"x 9.l.C.b.! H J 4.F.T._.].^.r.$.S Z l t 6.-.{ b.:.U.G Z E.-XoXS.=X7XT.=.k.w.w.>.;.Z E.9./ / 8.o.o.o.A A n $.$.~ J H I q.C.r.r.X.",
"N w.r.#.L * * J 8.F.T.!.].(.S.C.s [ k d p o.o.z.l.E.F + b.-XL.m.4X4X9.$ '.S.q.S S p F #./ Z 8.;.8.A A O.:.r.$.0.Y H H I { 9.9.X.",
"F $.U * L k g J / r.F.!.~.T.F.Z.C -.s j : i x -.F.].D . i ).oXm.9XE.r   D.!.w.s p k s g ' X.0.;.0.o.8.0.C.r.9.8.L L _ L J R $.A ",
"d K H K } b l H P @.4.b.q.:.:.:.C $.S t , $ @ B D.,X@.@ + 4.L.[ &X>.$ $ D.).@.p k r p 2 [ u [ { ' ' #.&.7.#.#.` H U { ! 3 H * d ",
"- H H H J H H H H H H H J H H K 2 8 8 > > O + : 2.V.2.; > f l : [ l , f v.p.j 6 , > 2 > 2 > * H H H H H H H H H H H H H H H H H ",
"3 Q ^ ~ ) ) Q Y H K Q R R f R 2 _ ' #.t : O O 5 [ Q..Xp j Z [ 5 e.l d -.E.6.g @ X : 2 ' { k > 3 Q Q Q E E Y Y H J Q U Y Q Q Q P ",
"S z.F.Z.Y.D.l.e.L I k.9.x v n n S.z.-.S $ O 6 C C oX4X[ D #.6.r A.S Z T.&X,.F s o O l G.F.4.@.S z.Z.C.l.8.$.` H ] l.w.w.Z.z.l.o.",
"O.r.z.C.S.A.r.r.{ H | 0.v u t -.`.^.1.F   o > k N I.*X:.@.-.=.s z.@.#.).T.F o.N + O A T.^.z.8.F Z.Z.F.F.9.S L T A.S.r.C.z.w.8.A ",
"A 9.q.t.Z.F.r.r.t.Y H b o.A x w.*Xb.k.C . X ; t w.-.D.*XS o.9.o.x.F ).b.1.w.F s + @ e.Y.T.A.;.S G.(.(.!.w.9 J 2.Y.r.8.S.Z.;.$.c ",
"X.8.;.r.l.r.8.0.9.:.K 3 @.O.v $.T.^.m.=.X o @ t b.C 6.&Xz.z.j.8.S.D.E.G.t.j.5 @ X r A._.T.w.#.@.!.].].!.| H ..).E.8.:.F.:.O.8.x ",
"X.9.o.;.t.w.9.r.8.,.l H W :.=.@.@.D.^.l.s i 5 d k s N A.l.Z.D.<.T.z.k.U.F F 5 j @ F ^.>Xw.F 9.F.!._.`.w.I Y L.(.z.%.o.9.,.,.9.A ",
"X.w.$.w.A.D.Z.r.r.t.m R K | A.8.x F 4X!.o.m.C _ h [ r =.j l.D.V Z.#.k.M Z -.N v.N e.&X=Xs v C.F.!._.b.P T b._.C.9.$.$.:.9.$.8.n ",
"A w.6.r.A.D.Z.0.C.C.@.$.R H 3.F.9.a Q.'.[ =XC i l p.G k.C 9.=.s >.D 6.C j.<.6 &X[ j.4XM.0 b 0.S.F.C.E H -.Z.F.r.$.$.r.;.;.r.;.X.",
"x @.-.r.Z.C.$.X.r.r.$.r.w.I H 3.D.o.' 2Xe.6X=.s 7 B 7.c.D.).U.<.).<.M.;.=.Z l 7Xj.A.6XZ F S 8.C.b.T H  .S.r.9.9.8.9.9.;.l.F.$.x ",
"z Z @.8.8.9.$.A $.0.0.t.T.c.Q K | w.Z 6X6._.j.a Z B _ 1.^.>X~.D.].S.m.C @.j 6.'.;.).&Xu 9.r.E.#.I K 3.^.(.z.o.9.9.9.9.$.l.C.8.z ",
"x k s x $.r.r.8.8.:.:.w.D.T.T.3.J I _ 7X6.S ^.N N j 8 [ 1.H.b.z.U.2.1.-.Z t k.C b.3XD.S r.z. .J * 4.~.~.(.r.C 0.r.9.0.9.S.m.h.A ",
"x X.A x F ;.r.9.X.@.w.C.Y.!.~.^.7.P f 7.6.D A.[ :.: > 7.w.).:.k.^.x.D.Z > k t.j &X=XL.w.&.Q H 3 n 8.S.T.~.z.r.z.q.r.r.F.Y.Z.9.F ",
"A O.=.=.8.8.r.8.O.w.Z.C.Z.F.~.(.Y.@.{ j B r x :.e.[ 6 l 9.E.D.L.E.w.@.5 8 p F F 4.D.c.R J I  .' v D 8.z.F.F.S.z.r.t.C.C.l.z.Z.o.",
"A =.0.8.r.r.C.8.O.$.r.C.r.F.~.T.C.o.s #.6 , 8 ! Z :.<.l d A C S A Z -.h t C S #.t ! d L W #.r.S C N ;.z.F.F.F.r.9.e.9.;.r.z.z.@.",
"S 8.0.9.9.r.r.0.=.8.C.C.r.F._.F.S.C.x m y ; 5 6 d > k l d 4.#.z.-.M._ d d : > 2 > e u 2.:.$.z.=.A o.l.F.A.F.S.w.$.$.0.9.l.C.C.$.",
"A $.8.C.9.r.r.C.r.q.Z.Z.F.~._.Z.r.G.w.X.r r s 9.@.e d d d f f h d f d e > d _ k # A z.F.0.$.w.S n o.0.Y.F.C.r.:.@.$.t.Z.C.Z.C.$.",
"S 8.9.r.C.0.r.Z.r.9.C.F.!._.~.Z.l.l.w.9.9.a s F.Q.A ' w.#.2 / #.#.! g l k p.W.s n G._.F.9.8.r.$.A @.$.r.Z.9.;.w.0.0.z.D.S.z.z.$.",
"O.r.8.;.r.8.l.l.C.C.F.F.F.F.Z.C.r.9.w.r.r.@.r ' E.z.s $.e.f #.^.k.l g S r L.b.v C.Y.!.Z.r.r.Z.0.A o.;.$.8.0.8.w.0.9.z.H.G.C.C.O.",
"o.l.C.9.r.r.Z.r.r.C.Y.F.Z.Z.C.C.r.0.9.r.$.9.O.x F z.Z @.z./ f k._ d :.l.M w.w.Z.C.C.l.F.9.C.F.r.$.9.r.S A ;.;.O.0.9.C.Z.Z.z.C.@.",
"o.F.F.z.r.C.Z.l.9.Z.F.Z.C.Z.!.Z.Z.r.w.w.9.$.0.9.r.l.:.w.T.e.L U L } Y.Z.=.w.T.^.T.r.$.9.r.F.!.C.$.@.0.o.O.r.9.F A 0.9.Z.C.C.C.o.",
"X.l.C.l.r.r.l.r.9.C.C.C.C.C.F.C.Z.C.8.9.8.$.O.8.C.Z.Z.l.F.Z.W H K 2.Z.F.Y.Y.Y.Y.F.Z.$.$.r.Z.Z.9.n u u 0.C.C.9.A x x O.9.9.C.C.A ",
"x x c x x x x c c y x y c z x c z c y y y y 0 y y x x x x s w - > u s x x x x x x x y y z x z w 0 0 0 u x x y 0 # # 0 y y x y q "
};
