/* XPM */
static char *marbface_2_64_64[] = {
/* columns rows colors chars-per-pixel */
"64 64 144 2 ",
"   c #141C04",
".  c #181D07",
"X  c #19150F",
"o  c #1C1A0C",
"O  c #151613",
"+  c #171817",
"@  c #1A1E12",
"#  c #1C1C1A",
"$  c #221D0D",
"%  c #221C12",
"&  c #182007",
"*  c #1D240C",
"=  c #1F280E",
"-  c #1F2413",
";  c #22260E",
":  c #21290F",
">  c #232613",
",  c #2C2712",
"<  c #242C13",
"1  c #2A2D15",
"2  c #222519",
"3  c #262B1A",
"4  c #292D1B",
"5  c #312C15",
"6  c #312F1C",
"7  c #293117",
"8  c #2C331B",
"9  c #2E3B1F",
"0  c #3A3017",
"q  c #32341D",
"w  c #393018",
"e  c #32391F",
"r  c #262823",
"t  c #2E2E23",
"y  c #2E3222",
"u  c #323623",
"i  c #383620",
"p  c #353B23",
"a  c #3A3D25",
"s  c #32352B",
"d  c #373B29",
"f  c #3A3D2A",
"g  c #3B3C31",
"h  c #3E3E3E",
"j  c #443E27",
"k  c #423D28",
"l  c #413F34",
"z  c #344227",
"x  c #3A4126",
"c  c #3D442A",
"v  c #3F482C",
"b  c #3E4233",
"n  c #3F413A",
"m  c #414026",
"M  c #42452C",
"N  c #4A422D",
"B  c #42492E",
"V  c #50442E",
"C  c #434632",
"Z  c #4B4630",
"A  c #464C32",
"S  c #494E34",
"D  c #43453A",
"F  c #464B3A",
"G  c #4A4D3A",
"H  c #524C34",
"J  c #534D39",
"K  c #4B5136",
"L  c #4E5439",
"P  c #515137",
"I  c #52553B",
"U  c #5A553C",
"Y  c #54593E",
"T  c #59593F",
"R  c #61553F",
"E  c #524C41",
"W  c #4E5142",
"Q  c #535643",
"!  c #5D5642",
"~  c #565C41",
"^  c #5A5D43",
"/  c #53554B",
"(  c #565949",
")  c #575752",
"_  c #625D44",
"`  c #685A44",
"'  c #645C4A",
"]  c #6D5F4F",
"[  c #5C6146",
"{  c #5E6449",
"}  c #616146",
"|  c #63654A",
" . c #6A654C",
".. c #65694E",
"X. c #6A694F",
"o. c #71664E",
"O. c #676751",
"+. c #6A6651",
"@. c #676C51",
"#. c #6B6D52",
"$. c #68675C",
"%. c #786652",
"&. c #726D53",
"*. c #7C6B54",
"=. c #706F5C",
"-. c #6D7155",
";. c #6E7359",
":. c #727156",
">. c #7A7057",
",. c #737459",
"<. c #7A755B",
"1. c #75795D",
"2. c #7A795E",
"3. c #7D7D62",
"4. c #72746C",
"5. c #826D57",
"6. c #82745C",
"7. c #88775E",
"8. c #81785F",
"9. c #837C62",
"0. c #8A7C64",
"q. c #917E67",
"w. c #957F69",
"e. c #7F8064",
"r. c #868166",
"t. c #898167",
"y. c #8B8269",
"u. c #92826A",
"i. c #9B836D",
"p. c #9F8670",
"a. c #958B70",
"s. c #9C8A72",
"d. c #A18770",
"f. c #A48B74",
"g. c #A88F78",
"h. c #A2937A",
"j. c #AD957D",
"k. c #8F8D85",
"l. c #8E8E89",
"z. c #9D9A96",
"x. c #B39E87",
"c. c #B79F89",
"v. c #BAA691",
"b. c #B3B0AD",
/* pixels */
"x [ ^ ^ Y I I I ~ ^ ~ { | [ | | [ ^ [ [ Y | [ ^ ~ Y Y ~ Y ~ ( / / / / Q ~ ~ L Q ~ W Q ( ~ Y L L Q W W ( Y ~ [ ~ ~ Y Y Y Y ~ Q K ",
"p [ { T B z v v A L K -.1.-.,.-.X.| [ -.{ ....| ^ Y I I K A D h h D D b S C z B K G L F K K b b A A n ( L [ L v c A I K v K A 8 ",
"x [ | ..L v v B A A A [ ..-.-.~ K A L { { { -.^ L { Y v u < < 3 3 2 7 8 y b K Y O.[ W L ~ Y ~ L Y ~ K L L K x z z x K Y A a z < ",
"8 L X...L A B B K K K L K | X.{ { c z L K { { K M e 7 = 7 e p e u p e 7 < < x ^ { O.^ K Y ~ @.( ~ @.;.~ v p z p 9 9 A Y I D c < ",
"q Y { { A A A I Y K L v c ..,.| { Y [ ..Y I K 8 ; 8 c A Y Y [ [ [ L | ~ A z < = p ~ ..L A K ~ / ~ ..,.{ x p u 7 < 9 L G L A c 3 ",
"e [ ..{ K v A K [ Y A A Y -.-.-.Y A Y ..Y e < e A ~ ..@.-.@.-.1.1.:.,.[ [ [ K e : z [ L v b n W [ [ Y S p z u 8 c D L z v a x 8 ",
"9 [ { ..[ K K I K Y A L -.-.,...I x p A 9 * c Y { ..,.-.1.1.1.e.t.3.2.^ Y Y | [ v < u ~ ~ Q / / -.#.^ F B A v v G A x x c d d < ",
"p [ ....{ Y I ^ K I K L ....-...| Y K e * < c T Y [ ,.<.X.<.a.h.x.s.2.^ | -.&.#.[ v 7 p { { | ) $.;.=.I A B B A K K x a F A A 8 ",
"x { ....#.| } ..[ K K [ ..-.X.......A < M M M ^ ..#.:.,.2.t.f.c.v.j.y...#.3.2.,.#.Y A 1 p ~ ~ ( | X.:...L K S S A K z v A K A 9 ",
"c ..^ | -.#...#.#.~ V T | ....{ ..K 8 x ^ P H T -.<.2.e.u.i.d.g.j.u.<.| <.9.,.:.:.^ H M : W [ ^ ^ ;.<.,.;...Y K A Y [ Y v K K p ",
"x { A [ { .. .#.#.[ M T ....{ { ..8 e K  . . .T ..&.<.r.i.i.d.f.j.u.8.&.9.9. . .$.^ _ P 7 p [ Y ^ ;.1.r.e.-.,.^ K K [ Y Y I v 9 ",
"8 B L } } I `  .Y m m ^ | { ~ Y S < c [ } P ..-..._ X.<.t.u.i.g.j.d.w.0.2.#.'  .#.#.} G a < F L L { ..2.1.1.#.[ A A K L K q 1 ; ",
"< S [ } [ ^ [ Y m 0 a A K Y { [ 7 1 A ..S L -.<.X.| } 1.t.<.t.i.f.p.i.y.>.| R X.#.#.{ P C = 8 A f c B L ~ ~ K B G I L L c 5 , $ ",
"q ..-.| L A I c 5 0 e p x A Y K : p ^ +.E ! ..,.-.:.T ..<.2.t.i.d.w.9.3.2.:.-.#.#.:.1.[ M < = D c d u K I A p p B I A v M e q $ ",
"p ....T Y L c u a p p p x p z 9 = x  .%.' &.Y { #.{ [ ..:.-.6.d.p.7.<.9.1.-.,.&.~  .#.~ c < * A a C M c v c M c c M c v [ S u % ",
"4 ~ T Y [ ~ v p A B B L ..S z 8 = K X.5.+...L K ^ Y -.[ >.:.:.t.i.0.,.,.#.X...#...[ ~ [ Z q < b F F G d q K P B f b c c L L i % ",
"4 I Y ..{ Y p p Y Y Y ....L Y v = Y } 6.>...} } ~ ..@.{ -.,.2.u.u.8.<.-.-.X.X.X.,...T R H d < x F S P B v A K B B A A K B x p < ",
"y I [ @.~ B x x L { { { [ Y [ B < L _ 6.X.| X.| [ { } #...:.:.r.u.<.-.-.:.-...X.X.^ U o.U p 7 a Q Y Y K L Y K [ { Y I A v p u = ",
"u I [ { { Y Y Y [ -...^ { Y { v z K  .5.#...[ } } [ [ X...#.#.2.q.<.,.-.-.-.{ -. .J { &.o.Z 1 e T Y I K I Y K Y ....[ Y L v 9 * ",
"e L [ { { Y K [ { e.1.{ { [ ^ < 9 A &.*.@.@.} #.#.#.Y R | X.#.-.<.>.2.:.:.^ ^ .._ ^ ..:.%.H 8 e A z B A L Y ~ L ..-...~ Y K p < ",
"8 A { -.~ A L ~ | ,.1.{ I ~ N ; e B >.*.` X.} X.,.#.Y T U K R _ | ..-. .[ P I Y Y ..| :. .H q 8 p x ....{ X.:.| [ -.@...I K B 7 ",
"8 Y ;.{ { ( Y ~ Y ;.1.-.~ I q ; x H <.*.R } | &.<.-. .T V I P U | ..-. .I Y _ X..._ I  .} K a < K A ..-.@.@.-.[ K ~ { ..K Y K 8 ",
"p [ ..{ { [ { -.L @.1.#.[ L ; ; z P :.X.T Y X.:.:. . .U V } [ ..-.-.-...[ | ..| X._ M K I A c : K L A ..@...| K z M ~ K A K A 8 ",
"u Y ~ ~ [ [ { @.K [ ,...Y B & < e B [ Y Y Y ..X.X.} #. .U U  .#.-.-. ._ [ [ } Y { ..P Y c v x : v L K [ { ~ A x x x B c A A B 8 ",
"< M S I K L { ..Y A [ [ I B & 8 x a  .T K A I ....X.#.-.{ } } ~  .-.X.} I T I A { ....X.c c x < e T Y | ..I I I A x x v A v d - ",
"* 8 v K I K T -...L v B Y B . 8 M q H K k a S T T { ..#.@.-.| L Y ..| [ L ^ T Y T K K _ m p p < c Y [ {  .T ^ -.Y z x c x x r + ",
"O 2 8 x K P P { { L x z K c & 8 p u p I v M L ^ I [ ....#.-...K K }  .[ Y [ [ Z N 8 M Z a q e 7 x H [ { ..~ ~ #.I e x A F v y + ",
"o # # 8 z K I Y K A K B A B & q 9 u < [ L B S Y [ [ [ ......{ K Y } _ T [ I I M p 1 a a 8 q q z c B Y } ....^ [ K p B I G A c - ",
"= 3 - 7 p L Y I I I ..Y K B ; < 8 7 o  .Y u c L I L Y I | [ ^ m P [ [ I Y A T A p q S < < 4 a M I P ~  .X.@.| ^ A x L ~ [ { A 7 ",
"7 A p v p z S I L K ~ K e B e < y 7 > ~ K p 7 B K A Y P T Y Y e m T K S Y M P B 7 e ^ : < 8 F 8 I I T ..........A A Y [ [ ~ L 7 ",
"7 K B Y B d S I A A L e , x x 8 y 8 u S z c : 7 v M K K A A K 8 8 K e B T z A a : x [ B c S M   < Y [ | { ..@.| x A [ ....{ W 7 ",
"u Y Y { I A Y K B A p e c c ; e v A :.[ x e e : < z x M M x c 7 : 9 8 B S q x a 8 K K X.8.G q q ; 9 I [ [ { @.Y v K { ....{ W 7 ",
"7 Y { { Y A L Y S q 5 e M < q R p Y | { c L ..A 9 x x p B 9 8 q : a x B K 8 x x S B K Z I p N %.i < v L Y [ { L K K ~ -.&.T I 8 ",
"9 Y [ { { { { { K q x x e : ! &.a e c ,.K [ 2.-.P v K a S B 7 p 8 B K I K B v L | } | ^ A - J ~ i < p A K [ #.L B ~ { -.,...L 8 ",
"z ..-.{ ..{ ~ I K K [ K p q +...^ q x ,.X.p K X.<.K L _ T ..[ x e T { [ Y C ..^ C I } X.S - < v 7 p c S [ ....L B ~ ......-.~ u ",
"x ....[ ..{ v v L { -...K e #.{ S 4 c ^  .p 9 u A -.^ M B I X.p e P M T L S a.L = 7 A I f Z i - 8 c i p B Y { K K ~ Y Y Y { Y p ",
"p ~ Y Y -.~ z B ..-.-.1.^ a [ M > I f A I f 7   = Y [ L v u c 8 < a 7 +.F I Y * . < 8 A k X.' * < f a q 6 M I K L L K K A [ [ z ",
"e L Y | -.K v L -.@.-.,.^ G q < B 2.C i L L p < 4 G H X.c x - & . * = L u M f h 4 p p A Z ~ X.q 7 p L z p x x M K L K ~ Y K K x ",
"9 L [ ....A z A Y { @.-.Y I 8 < | O.a d [ L C c / b.$.c u x < : = 8 7 < . y z.k.B A F Z d Q A 8 C A ~ B K L z K Y ~ K ..~ I I p ",
"e Y ~ [ ~ A v c c [ @.-.{ b Y q [ ..u c ^ A A a A k.4.3 c M c M v A A u y W l.,.F S I c < c u K u B Y A ~ I B K L A B K K A A 9 ",
"e I [ [ [ v A A B Y { -.1.A F L x A A F T Y ~ Q C G u a } o.I X.L #.L S A a D I Y } | { I Y c p < z L Y { K A [ ..L 8 9 A L K 7 ",
"7 A { @.-.[ B K | X.K { -.M - p P L -.Y | Y Y S S I A ^  . .o.<.I 0.O.L I A z Y &.o.#.r.X.K a &.z 7 K K [ K K { ^ A 9 v [ | [ z ",
"8 ~ @...-...L [ [ ..Y K ~ p < = f a Z f } Y L | ~ L L ..K L y.6.K 8.2.P ^ 6.&. .9.0.P 2.d a X.-.B x Y K v v I L A Y K A { | [ x ",
"p [ ..{ -...Y { I [ ..K p q 7 M I S u 8 I A L  .s.#.2.^ u ..y.K 1 B X.F u 6.s.Q Y G 3 A ^ 8.| Y P A [ ~ v 9 K B L Y Y K [ [ ^ x ",
"z I T [ { | I Y Y | { B i 8 < M ~ } <.^ u f M | &.2.#.f d S _ f a N L G 2 ! r.v 3 s y U #.[ I A K A ....K e K [ ....Y [ ^ Y K 9 ",
"9 K P ^ { ..Y Y T [ K q B p 1 c S S ~ ,.Q q u k M v A 2 C M ~  .T >.^ M J 4 S q 4 u _ _ c L Y x K K -.-.L K ..-...~ L ..{ A v 7 ",
"8 K A I Y Y K A L Y a q M M x c D M ~ [ >.~ y < 8 t 4 s ~ H  .0.>.q.&._  .q < u 3 ' :.i a Y ..c Y  .e.-.K -.1.<.-.K L ..~ K K 7 ",
"z P v A T Y P Y S F u q B x M a A K [ ~ ^ 2.' < u 3 q } ' o. . .6.0.6.7. .g 3 d J y.} p S ^ A K [ 9.8.Y I 1.<.,...K v Y G K K 9 ",
"e I A I }  .{ Y L [ a M ^ Z A 8 L [ { { | ..,.< u 3 ~ ;.f 0.] ^ _ o.' 9.P Q 8 u l ,.} q m B x { o.a.[ x [ -.,.{ L K v A L A L 9 ",
"e U P T } X.{ K [ ^ B A ..P K e c [ ^ ..X.....< 8 t O.C ! %.' ! L G D ' t  .z y 8 | ^ a M e A U 7. .e 9 L { { [ B A A K K K A 8 ",
"8 M H Y { { A c Y Y B Y {  .B Y 7 c { ....-.~ 3 u d Y < 7.N ~ S ' Q u +.2 I [ c 8 Q S 1 a { Y o.:.B M Y { Y K K B A K K Y | K 7 ",
"< a B K I K A v A A K T | ....T [ 8 c Y Y Y p - p A S q U f S B B N 4 G u f #.I d b x q M K } ` c Y ..-.,.{ A B A K L A ~ [ L 7 ",
"1 p p c A L ~ K K S K Y [ { y.:.{ { x < q e < = x ^ I x c B c x e p 8 a L f O.| M f } #.A e o.S q [ ,.-.,.[ A K K L K L ..| I 8 ",
"7 x p z B A Y K c c U Y Y ..2.a.[ A &.Y U M c x B ..X.P Z P P A B B S M ^ S [ #.K ,.X.u > Z _ x e K | #.:.{ I [ Y I Y ..X...Y p ",
"e K B A K K Y L B L { [ Y ..,.1.| u a ~ -.| U A ^ } #.|  . .X. .P +.+.Y 0.Y } ^  .M a x _ #.Y j M C L ^ ..X...Y I Y [ { Y ^ [ x ",
"x I S K Y I [ K B B Y [ I ..-.-.~ I u u e x U  .R  .:.Y m v x N p Z M p Y G &. ._ f 2.t.#.~ P k f l F Y ......Y P U K A I [ _ a ",
"x L K I I Y I K B K [ ~ Y { { { [ K Y [ U Z A >.S I [  .q c x e p p 8 f | &._ Z P 9.e.@.L A Q v d c L { } ..| Y A A K L ~ [ [ B ",
"x L Y ~ Y Y I [ Y K { { ....{ ~ I A B Y ^ ..P x M x u ~ I T I K ~ I S B S } I c -.1.3.{ A A L v p v A { | ^ Y K M B Y } { } ..x ",
"a K I I Y A Y ..I Y { ..-.;.@.[ I K 9 e x x [ >.0.y.&.M m M U _ ^ ^ K B 7 G ,.;...-.1...L G I A p c B Y [ K A Y K K T  .} } [ B ",
"p I I B ~ K Y I U I ..X...@.{ [ L x x e M A A [ @.-.,.&.M q a N 8 q a m  .y.#.} ....-.{ Y Y { K p v A B K K H Y K K ^  .X.^ ^ x ",
"x ^ ^ L Y Y | H I Y -.@.{ ^ Y K B x L A A K A [ @...-.,.9.,.^ _ _ _ _ &.,...[ | [ [ Y ..L [ @.Y v L I a p K A S A K [ { | ^ [ x ",
"x ....^ T ^ U N K Y ..{ Y v A K Y Y A K v v K [ ....@...-.| Y X.X.,.#.Y I ........Y A L L ..@.[ A A K c B Y L c A K I { [ [ [ x ",
"z ^ { Y Y N j e m T ^ K 9 c ^ [ { ~ A K v x M A ~ { ..[ { Y B v s G [ Y B Y [ A Y L u A A L | P a q q S [ | K e q e c L Y Y [ e ",
"7 8 8 7 , $ $ $ : 8 8 : = < 9 7 8 8 7 < : : = < 7 7 8 7 < < : ; @ > 1 < : < < < < - O = - < 7 < o * * < 8 8 < : o o : : < 7 < : "
};
