/* XPM */
static char *marbface_3_64_64[] = {
/* columns rows colors chars-per-pixel */
"64 64 111 2 ",
"   c #0E1600",
".  c #151D05",
"X  c #181F07",
"o  c #19150F",
"O  c #14180B",
"+  c #1A1C0B",
"@  c #131510",
"#  c #191916",
"$  c #1C1D1A",
"%  c #221D0D",
"&  c #221C12",
"*  c #182007",
"=  c #1C240B",
"-  c #1F280E",
";  c #1F2414",
":  c #21250E",
">  c #2B270F",
",  c #21290F",
"<  c #29280F",
"1  c #232612",
"2  c #242C13",
"3  c #2A2C15",
"4  c #272E1A",
"5  c #2A2E1A",
"6  c #302D16",
"7  c #312F1A",
"8  c #273017",
"9  c #283116",
"0  c #2C341B",
"q  c #2E3A1F",
"w  c #32351D",
"e  c #31381E",
"r  c #272924",
"t  c #2E3322",
"y  c #343623",
"u  c #343C23",
"i  c #393E25",
"p  c #34362E",
"a  c #363C2A",
"s  c #393D2B",
"d  c #453A28",
"f  c #394126",
"g  c #3D442A",
"h  c #3F482C",
"j  c #41462C",
"k  c #4A432D",
"l  c #42492E",
"z  c #4B492C",
"x  c #444733",
"c  c #454C32",
"v  c #494E34",
"b  c #474E39",
"n  c #4A4E3A",
"m  c #524D36",
"M  c #4B5136",
"N  c #4E5439",
"B  c #51563B",
"V  c #59563D",
"C  c #53593E",
"Z  c #59583F",
"A  c #4C4D43",
"S  c #4E5242",
"D  c #525742",
"F  c #565C41",
"G  c #595E43",
"H  c #545749",
"J  c #625E45",
"K  c #5C6146",
"L  c #5E6449",
"P  c #616147",
"I  c #61664A",
"U  c #69664C",
"Y  c #64694D",
"T  c #6A694F",
"R  c #636650",
"E  c #676C50",
"W  c #6A6E52",
"Q  c #726D53",
"!  c #6D7155",
"~  c #6F7458",
"^  c #727156",
"/  c #72755A",
"(  c #7A755B",
")  c #75795D",
"_  c #7A7A5E",
"`  c #777C60",
"'  c #7B7D61",
"]  c #83775E",
"[  c #81795F",
"{  c #837D62",
"}  c #8B7E64",
"|  c #7E8064",
" . c #848166",
".. c #898067",
"X. c #878368",
"o. c #8C846A",
"O. c #8D886D",
"+. c #92866C",
"@. c #9A876E",
"#. c #93886F",
"$. c #9A886F",
"%. c #968B71",
"&. c #9C8D74",
"*. c #9F9177",
"=. c #A28E75",
"-. c #A39077",
";. c #A5937A",
":. c #AB937B",
">. c #B0977F",
",. c #B39A82",
"<. c #B7A087",
/* pixels */
"M K G G B M B S C K C L I K I P K K F K F P K K C G C G G V V C A A M N C D n C D D D G F C N F C B B H C K C K C N C C C C F h ",
"u K I Z c i g j c N v K / / / ! T I K ! K Y E L F K C N M f h l f a a f l g e i c h f l N M c c N B g M c K N h g c N N g c v 8 ",
"u J I Y N h j l l j h l K ! ! G M h c C Y I ! L N G C N l 0 q v l h c M c i c F L K v h N B C b M G M N N b f f f f N C b s f 2 ",
"0 B W I N c j c M v l h l K W K C f g N N C K N c z N K L j w h B v M K I G L I L ! L M B G E G N E ^ G h f f u q u c D B x g 2 ",
"9 C L L M c c N B M N j l I / L K G G ! C c B c c l M ~ ) v , - 2 q S E ` ) ! N h F E B v M F H D Y ( K f i t 9 2 u N b M v g 4 ",
"0 G L L M h c M K C M l G ! / W C c C E G h z h c l c K M 8 9 e u 8 s D G D B c f v K M f g h c G L C M u f u t a c N f g s i 0 ",
"y K L Y K M v M M l f g M C K I B f u l q q v j e q e 9 9 f v C B c i 8 8 u u f B C K L D B M S C c u e q f i g A c f f g a y 2 ",
"u K Y Y K c i 0 , 2 , , 2 = - 9 q f g l u - 0 , = = q z C K L Y Y L G C h 8 - 2 f M F Y Y B j t 2 = = : = - - - q f i s b x c 8 ",
"f L Y K f 8 8 0 e u e i v l 0 f g e 9 0 e = . 2 u u N I Y Y ^ X._ E Y Y C l 0 0 8 8 f h 0 9 0 f e f l l l h f 0 2 - 2 g c v c q ",
"g Y C e , 0 f l N M c C L I B M K B j 9 , , - g N B I Y ~ ! ) _ ) / E E Y G B v f 0 8 , 9 l C C v K I K K C h h f u 8 2 u c M q ",
"f L e 8 f h v C I W / o.$._ L B g C Y M M M f h M L W ! ~ ~ / ) ) / Y Y ! ! K N h l M l M C l l L / o.+.X.^ K G M h g 0 , i j 0 ",
"0 g , f M K I ! _ O.-.,.>.#.) Y j I X.Y Y T C M N C K ! / ) X.&.O.' ) ! ! T C B l B Y L W | v C !  .=.,.,.=.+.( Y L B h 0 2 3 : ",
": , , j B K !  .+.) [ O.o._ ) Y l G o.! [ ( L L C N K Y ~ | $.,.:.X.` / ! I I Y K I _ / o.+.l C ! )  .+.O.+.&.%.' W L C l < < % ",
"= = e l K E |  ._ ! W ) ) ! T L h M &.T ^ I L W Y I T ! / ` X.=.#.{ ` ~ ! Y ! Y Y ~ +._ X.^ 0 z L I ! ) ~ ! ` o.+.) ! Y z > < & ",
"* - j K E )  .| ) / E ~ ! L L M e g / Y I Y Y I W E ! ! ) ` | #.X.` _ ~ ! ! ! T W ! o.) o.^ 9 M G N K ! W W ) ` X.{ ! Y M w ; & ",
"+ 9 z K ! ) ) ) ~ E Y L K C K B e z _ W Y K F I ! Y Y ! ) ` | | | _ ) ! ! ! ! Y Y E ) / _ ^ 0 l K C N I Y Y ! ( ) ` ) ! Z h 2 % ",
"+ 8 c C ! ` / ! E L L B M M B h 2 M R Y ~ K K E / ~ ! ! ! ) | | | ` / W W ! ! W W Y W E ! ~ 0 q N N M M K K I ! ! ) ` / L N 0 = ",
"* 8 g K ~ ) E Y K M M g 0 i h 0 = g g B E K ! ~ ) ) ) ~ Y ! _ ` ` / ! ! ) ) ^ ! ~ E L Y L ! i * f f e e c M C I E ! ) W G h 2 = ",
"* 0 v I ) ) L B c u 0 1 = - 8 * 0 c i N C G Y / (  .#._ / / _ ) ` ) E ! o.+.) ) ! L B L M K c = , , - - 2 q h v C E / ! K f - = ",
"* 0 M L ~ ! K c 9 2 . . * * . - v M u v c K G ! ' X.;._ ) X.-.) o.&./ ! %.=.' ' L K M v h g B f * * * . . = , 0 N W / / L l 2 = ",
"= 2 l C Y Y C f = v : . . . = u g 0 8 u h C v B ) / ) W ~ o.;.) %.&.) W ) ) ` I c C C f u 2 u g 8 * . . . i w = c Y E L G i 8 - ",
"5 2 u N Y L l 2 B o.k . . X 2 q 2 * = - l B h u v Y K C Y ~ _ ! / ) W G F L K g f N F 0 - * = 0 9 = * . * U { w 0 C ~ E c 8 u 0 ",
"u g 2 c c l 2 f W ! B . . . * * . . - 2 h K B f 2 c N f C K Y C L L G c h N f f M F B 0 8 * . . = * . . 0 ( ( U = i L G 0 2 h 0 ",
"w B 2 0 g u = K G I / B c 2 . . . 8 u q M K K c f u c c h u h f h g i c v f h C K C F f 0 q * . . . f Z I I v B u - c e = q v 8 ",
"3 v h * 0 0 2 Y G N L L I K * 0 - f c c B B L L I M f u u q u 0 u e q w f g K Y Y E K M h c 8 8 = i { | W C m K c . 5 . = c a 1 ",
"% w N 2 * * = Y Y B v l N K = 2 0 f v M F C ~ E ! ~ K f f C G M C F M u c E / E ! E K C M c u 0 * c ~ Y Y C K / c     . g c r # ",
"o 1 y g = . = G K N h u v Z C 5 * u v K G B ! / ) ` ~ L L  .| E ` +./ G ! | ` ~ ) K D K C h 2 * j K L I ! C C ! g     g G f t # ",
"# $ $ u i . * G M c M c j Z / I t c g F Y M G ' ' ) ` _ ) +.#.~ ' -.' ( ' ` ` ' ~ v K Y c h f h U B C Y ~ I K I c   5 W B c a ; ",
"= 4 ; 0 l f 0 K C C I C l B G K g h f K W K h ^ +._ Y [ #.#.+.~ _ &...@.Q / X.+.C c E W c h v v C M G I ~ ! K L C w W U K K v 2 ",
"5 c u j i B ( I N M K M e g j e - f v K N ) U Y $.@.( U &.:. .C W &.:.{ Y } $.{ I ! W M Y h i 9 l M G I Y W I Y P Q E G K K N 8 ",
"9 M l C l a B B l v M e 6 w w , f L E L u N o.&.:.:.:.} ( -.$.B ( ,.} ( @.>.>.-.-.^ s v W I M 0 2 l G L K ! Y K l M K E Y L S 0 ",
"0 B C L B c C M l v u w f v q M L ~ L K 0 f C ( ( +.#.$...( +.I +.-.Q =.+.+.} ( U c 9 v W W W I f 9 l K K I Y N l c K W E L N 2 ",
"0 B K L F v N B v w 3 e v c h Y ~ L C L h l l f i h l I ( Y ( B ^ T / Q F g j u f M f K ) ) Y K l 8 u v C G L B M M F W W K B 0 ",
"q F L L L L L L M w f f v l i C E K Y / G q 9 e 0 2 2 h x v v 0 j j N f u = 5 u e 0 C ! ) ) Y M f 0 0 g M L W N l C L ! / Y M t ",
"f Y ) E L L G N M M K v B M h G I Y K ~ Y c 9 , 2 0 e i f u x 2 u g u g 0 e 2 2 2 h I / | ) ) E j 2 5 g K Y Y N h G L Y E ! F u ",
"u ! ~ K R L h h N L E Y Y b M / ) ) B K K C v u g M N l N B G I L C N v v N l f l C K I ! ) ) ~ v , u u l C C M M F C C C L N q ",
"q G F C ! C u h I ! ! ) _ C c C Y ~ h f j u e v K Y Y l I ! Y o.( Y ! N M ! G B h e f c B L ~ N h 9 g 5 w j N M B B l N B G K u ",
"0 N C L ~ v f N Y / ~ / ' / f e K B u = = = . u K E L C E #.( { / X.( c B E K B = * = = 0 v G i 2 h i u i l l M M N B Z G B B f ",
"0 N G Y Y h u c N Y ! ! _ _ G 2 f f -   = . * b E W ! K ) *.{ F Y =.{ v K ) L Y 2 * * * . q j 0 g N u l N C l M C F C Y K N B e ",
"0 N G L G c f f h K I ! ^ ! _ Z 0 8 = . , 2 l L ! O.! N Q %.X.W } <.,.W C  .| E B e , * . , w l G c v c C C B N B C M N M v M 0 ",
"u N K L F c h g c C L / I K K  ._ g * = q h G L ! O.G v { ,.#.L o.,.,.+.K o.&.~ K M u 2 * = G W c M M C L N M K Y F c l M B M 9 ",
"4 v K E ! K l M L U c L ! C N W Y B 2 u f 0 f v C o.G Y { T &.F _ +.U &.! O.X.G c 0 u f 0 - v C C C M b K M v L K N z M K I L q ",
"0 D ! Y / Y N G K U B N M l M I i i w c v 0 f I N +.) X.G l ] 2 B ^ u X./ %.U J C 8 f B f 9 C L K C K M M M B B B F N M I ~ W f ",
"t K Y L W Y C L C G I M 0 w f C x J i v h 0 v _ U ^ ( / y 0 B * w n = G  .[ Z ^ Y q f v f n ^ K L K K K M h B N C F C C I W I q ",
"e B C K Y I C C B I L c 7 6 w v N C u g v u h R ^ I _ K * - 2 4 5 , * u _ ! U ^ K 0 g v u g B G Y L Y L M f M K Y L G K K C M 0 ",
"9 N N C L Y C C C G v y u w s x v g 0 M N h G D P U ^ K 2 8 u f u w , f ) Y T B Y g M N g 2 l C E ) ) ~ C N E ! E G N Y L c h 9 ",
"0 N v B C B c v N F s 7 g i g A x 5 f G B B +.v h W Y ! g F I N N Q f C ~ Y Z u ( ^ N F N 1 0 M L | | E C W ) ) ! M M Y D b M 9 ",
"e N h c C N M M B F y w x v l v 0 0 N G G I #.l 0 N K ~ E W ` E ! _ L ) L K f u U o.M L c u = f E | | C N / ) ~ Y M v B N N N 0 ",
"e C v N L E L C C K w j C K C u - f B Y B L o.M 0 g c F L K F N D K F K M M 8 f E o.c W M h 0 8 L ) L f Z / ) L N N M M M l N 0 ",
"w C C C K ! K M L P s c K C C 0 , u B K h K { B 0 h B G M M L h D L h K N N t g W ' h B L N f 2 L L g f C L L G c c G M M M c 0 ",
"2 h M V L K c g G C l C K L C 0 0 h L C u B E F b c M K L C ~ K E E N Y N N c N E U f u M l f 8 K M h C L C B B B C C v B I M 2 ",
"- f z N B M c f c c v C I G L h q N K L 0 M Y C F h h B Y v L v F K N E h h N N Y Y i j Y h u - g C Y ~ ) K v l l l l l C K N 2 ",
"8 u u f c N C M M c M C K K ^ C 9 M L ) e 0 v c v c K N L B E c K K K D K v M h F c 0 B Y N i 2 g G ~ ~ / K v l g g l B I Y B 0 ",
"0 g i f h v C N f l N C G Y / E 0 f C ! c , u M M c v C ! E Y K E L / K B f M M c 2 u K Y l u u h c L E ~ L C C M B F Y W I F e ",
"0 c l c M M C N l B K K G E ~ ) u f c C l q e M E K h f c M F D K N N f h M W L v f f N N l 0 f f f N F Y Y I K B B F K F Z K j ",
"f F M v C C K M j l C K C I ! ) Z 9 f l 0 h l c L B u f h h f f f f h h f B W L F c u f j e u B f p b F L E Y C N V N c C J P e ",
"j N N B C C C M l M K K C K I Y ^ N 0 e , 0 u v M i , 2 u q 0 , 9 q u e 2 u C K G g = 9 0 f K M f f B I Y T U B v z M M G L K g ",
"f B N F C B C K C N L L Y Y L C B B C C g = 9 u 9 j Y j 2 2 - = - - 5 0 P G 5 u g 2 2 V I K C l f f M Y Y K C v h j G L Y Y I g ",
"e B B B C v C I B C P I ! ) T K B v e e j e j N B ! ! K z j c N B F E Q Y T P J J V U ! C n C v f g l K L N v B M z K E ! I P g ",
"e B N l Z M C Z V B Y T I Y L K N g g e g N B Y ! ! W P j w h l h h C Y I C K ^ ) / ~ L B F K M f g c h M M n V v N K ! ! K K f ",
"j F K N D C P m C C ! E K K C M l g N l h N l K W Y W ! I v C ! P C c L E L K L K K F Y C K W C h M D f u c c j c N K W Y K K f ",
"f P Y G F G V d m C I L B h c M C C l N f l M G W Y E E ! Z v K G Y K B B Y Y I Y C c M N I E K x h c h l C M i f v B I K K K f ",
"f Z L C C k d w j B K v q g K K L F l M h g j v G L I K I Z h s # b G C l C K f B M y l l M I N w > w v G I N w 9 w g B C C K e ",
"9 0 0 0 > > % % 2 3 8 - - 9 0 0 0 0 9 8 , , , 2 2 8 0 0 2 2 , = O : 3 < 2 2 2 = 8 ; @ 1 , = 9 , % = + 2 0 w , : + + = , 9 9 9 , "
};
