/* XPM */
static char *mur_lamp_64_64[] = {
/* columns rows colors chars-per-pixel */
"64 64 121 2 ",
"   c #050504",
".  c #0A0704",
"X  c #0D0D0D",
"o  c #100E0B",
"O  c #1C140B",
"+  c #141414",
"@  c #1A1A1A",
"#  c #2C1E0F",
"$  c #2E1E10",
"%  c #301E10",
"&  c #2B220F",
"*  c #2E2510",
"=  c #22201E",
"-  c #352513",
";  c #392615",
":  c #352B14",
">  c #3B2B16",
",  c #342F18",
"<  c #3D2C19",
"1  c #3D3017",
"2  c #35311A",
"3  c #3E311A",
"4  c #3F3520",
"5  c #313131",
"6  c #3C3C3C",
"7  c #412C17",
"8  c #422E1A",
"9  c #482F1A",
"0  c #403117",
"q  c #44321C",
"w  c #4A361D",
"e  c #47391F",
"r  c #4D391D",
"t  c #51371E",
"y  c #533C1E",
"u  c #463321",
"i  c #4A3622",
"p  c #463920",
"a  c #4D3A23",
"s  c #4E3A28",
"d  c #513720",
"f  c #533D23",
"g  c #593E22",
"h  c #523E2A",
"j  c #554025",
"k  c #5C4223",
"l  c #56422B",
"z  c #5A442B",
"x  c #5D492C",
"c  c #564230",
"v  c #5A4631",
"b  c #5C4831",
"n  c #634425",
"m  c #6A4727",
"M  c #6A4827",
"N  c #634629",
"B  c #6A4629",
"V  c #634A2C",
"C  c #6D4929",
"Z  c #734C2B",
"A  c #794F2D",
"S  c #77512D",
"D  c #7B512E",
"F  c #624D33",
"G  c #765130",
"H  c #7F5430",
"J  c #554F4B",
"K  c #5A5451",
"L  c #676666",
"P  c #686767",
"I  c #835631",
"U  c #875933",
"Y  c #8B5C36",
"T  c #875939",
"R  c #8E5E3D",
"E  c #905E36",
"W  c #915E38",
"Q  c #946139",
"!  c #9B653C",
"~  c #A1683F",
"^  c #936443",
"/  c #986C4F",
"(  c #966C51",
")  c #996E53",
"_  c #9B7054",
"`  c #95715A",
"'  c #A56C42",
"]  c #A96D43",
"[  c #AE7146",
"{  c #AB744D",
"}  c #B17246",
"|  c #B5764A",
" . c #B6794E",
".. c #BC7A4D",
"X. c #B47A53",
"o. c #BB7C51",
"O. c #C37C4D",
"+. c #C27E50",
"@. c #BD8057",
"#. c #C68255",
"$. c #CC8759",
"%. c #D28C5E",
"&. c #D98F60",
"*. c #D89060",
"=. c #DE9D73",
"-. c #E19768",
";. c #E8A77F",
":. c #EBAC85",
">. c #F5AF84",
",. c #ECB18D",
"<. c #F7B187",
"1. c #ECCAB7",
"2. c #EECCB9",
"3. c #FFD1B6",
"4. c #D4D2D1",
"5. c #FFDBC6",
"6. c #FFE1CF",
"7. c #FFE6D6",
"8. c #FFEADC",
"9. c #ECEAE9",
"0. c #FDF2EC",
/* pixels */
"a a e q q w q 1 3 s l i e e e p u e r w w 3 : : : : 3 w 8 p p p w i 3 0 0 - # - : < 2 s j j s a s a s j h h a u > ; < w w p a a ",
"j h r r f k 3 : < 3 q u 3 3 q q w w f d t f w < : : z k h g g g f f s g k u : < 3 p s s s p a s s w i 0 u u u 8 < < u n j l l l ",
"w e q q w j 1 2 w a y y f i a h l l s s j j k n q < f r p f e r r p q w a 8 4 u j F F z l l l z b z l l l l j e 3 , q j r a a s ",
"q q 1 1 3 q a < u a f j a h f h z v v j a h z x q < u 0 q q r t d w 1 1 < < u p j l l s s l l x b x z c h z f w < : q f e q q q ",
"1 3 q q w w i < 3 a l l l l x x j f j x l h h p 8 < q > 1 < 7 < ; : : 0 < q a q 0 w < u s v F l l s x a s s e p 0 : q r 1 1 1 1 ",
"< p h h w e d w : 1 u s a s u f a r g d a q > q f h f y y k k q ; w n k k N j k k f < 3 : u a q 0 < q 8 3 < : 2 u 3 : : : 3 : : ",
"3 u h l l j k g w < u s z k k k j k j x N k 8 w f y t r k r g 7 ; r k y y y w y f N 0 < q l k k n k k j f > : q g g r e e q 1 - ",
"3 w k h j h z j k p w s l j f j r f y r y n 8 8 w q q y r y y 0 > 0 y y k r r r g 8 ; > r n k y k a f k k w : w j j y f r r 1 - ",
"0 w e a a g j a f p < 0 q r r r g m n k Z n > 9 q w r k g r g q 7 t t w t y y w t t > 7 k n k w f r r k y q : q g k k y f w : * ",
"p a l s a p r a g l < ; 0 f w y Z m A I A y - 9 w w t k n B n 8 7 Z k y m m y k n 9 7 9 I Z n y r y y y r q : y t k f k j w > : ",
"a h l l b l h j b c 8 - < 9 8 r t B k t t 7 ; > w y n Z I Y A 9 ; C I m I A I Z y q > ; Z ! U Z n Z m y r q ; C n k y d w w q - ",
"8 p a a h f s a u 8 8 8 8 9 9 q y y y n n y 7 % - 7 9 9 9 w q 9 ; ; 7 7 9 9 7 9 ; - & & 7 g n M B m y y y w 7 w y t r p u 7 < : ",
"h k l s l z e ; 0 y y y f y y w y y k r f n < 9 t y y t f y g n y y t k y g g k w < 7 w n B n k y y w y t t t r 8 p l F z l l l ",
"l v z p l N w ; 9 g y r w w r y y n n n Z H u k A D A A D Z D I D C I G m S D C n 7 q A E U C k y w w y t w q w 8 d N V z l v c ",
"l l h d t w 7 ; 0 g k y y r y y y m Z I ! W 8 n A E ~ O.| } X.o... .| ] } | ~ U B 8 r W ] W A n w w 9 w y f y g < < F v s s l j ",
"< 0 q q 0 7 > ; 0 y k k g r r k m D ! } O.U ; > t n C U ^ / ) ) _ ) ( ( ^ R A n f 9 t ! +.} W A n w w r y y y t ; - p s u u q q ",
"w w e q w 7 - & > > 7 9 8 > w w t n Z m y ; & & & & - ; 7 r g n Z Z Z n n 9 8 ; ; w f E o.#.[ W A g r 0 t 7 > - & % - 8 0 8 p r ",
"h l k t k n 7 % ; 7 9 7 > > > 7 7 7 0 9 t t t y y q ; n Y | =.;.:.,.:.:.=. .T 7 8 t d d d t t t t r 9 7 0 9 7 7 ; ; ; a x h l h ",
"h h f w w k 0 ; 9 y y y y y y y t w w g M I ~ O.+.B 8 B ' >.3.5.7.8.7.5.3.>.' 9 Q } ! U D n y y r y r r y g y g w 0 7 q b l h h ",
"s a w w y t 7 ; w y y y y t r w t y t M A E ~ %.o.B 7 r T <.6.0.4.4.4.0.6.<.W d :.%.} U A n n t y y y y w t t w q 7 ; ; 8 u a a ",
"3 < 9 0 w y 7 ; 7 q y w w w w 9 t t k n A A E S Z C k r % ` 1.9.6 5 6 9.4.) % 8 X.%...W U m y y r w 0 7 7 ; ; 7 ; 7 ; > < a 4 , ",
"< : > ; - ; 7 > ; ; ; 7 7 7 7 7 9 9 9 9 7 7 7 n ! O.%.@.9 = J P + X + P K # % 9 7 d B B n n k k 0 7 ; : - - 9 y n n y y g N k u ",
"0 0 7 w q 9 w y y 7 7 7 y n n m n A A g 7 ; q n Z Q } -.o.-   o @ @ + X   % B  .I ; 7 B { ..~ Y I M g 9 7 ; 9 y w w y r f k z u ",
"4 u q w k y y g m ; ; w n y y y w y I ~ q ; 0 9 t f D ' ..N   X @ @ @ + . t '  .] 8 7 #.$...] E Z m k g 9 ; 0 y y y k k j k x i ",
"u a s y g k f r y ; - w k n w w w w M U q ; 8 q y y C D U U 7 # X X o O % n m A D ; ; ! I ! D n k m k k 7 7 w y k y g j j h l u ",
"p p e j g k k y j 7 > w y n r y t w n M w ; 7 w y y y n m D Z ; o X ; i g f y t t ; > k M Z k n m y n n 7 0 r k k n j j h j c w ",
"3 3 q a g g k y q ; 7 7 w w t y r y y t 8 % ; 7 0 9 w 9 t t t ; ; $ ; 8 w w w 9 - * ; w y t y y y y k y > > w y y k r r p z l q ",
"2 4 0 < i i r q ; ; ; ; 8 9 w 9 7 9 9 7 7 7 > - - ; 7 ; ; ; ; 7 9 9 8 8 7 8 9 7 ; ; > ; 7 t t r w 9 7 9 ; 7 0 q 7 q 1 < u u u 3 ",
"z l f p i s j k 8 7 7 d n g y y y y y y n m Z w - 7 y y m y C C I Q E U U A k k t 7 7 t S U D n y t y y y y y q > e f v v j j s ",
"x l h p i d h d u 8 8 m g i q w w w r y n y A w > w n n g y y n Z C n M A m y y y 7 8 A C k y w w 9 r y j r w 1 : a z V x j j l ",
"h s h a u g h f u < u g w r r q 9 w r y y k C q ; < y r t r w y n y r r k k y y y ; q C f y 0 q w q q r k k k y ; 0 l a a a s s ",
"1 > 3 q 8 w w w < ; u a t t r 0 9 w q w t y k 0 ; ; 7 9 w 7 0 w 7 > > 7 7 9 w 7 > > w y y r r 0 w r r r y y y a : 8 0 0 q 3 a e ",
"w a q q w 8 0 2 : < q 3 q q 0 q 8 r q w w r w 8 ; - 7 7 9 9 r r t m n t w 7 ; % ; 9 q r q q t 8 u p f i p w > - * * - < 0 q a s ",
"l h h k z N a > < a g d t f e w q 0 q w t f r 8 ; ; 9 k w w w r y y n n n k 7 ; > r g t i 9 8 r g d i i w 0 3 < : 1 2 e j s l j ",
"i u u a p i q ; w N k g d a f j j j r r t f g a 8 < w r w 0 q w w 9 t 0 q x 7 < q n k n g f n n n n k h j l r y p 3 : q e r a s ",
"0 w q q w 8 8 ; 1 a f f p f d l k k k f k j h a ; 8 a w i q w p w w q r u g < 3 a l f f y t f k z N k z a s r q w < : * 1 1 q 1 ",
": 4 u u q 8 8 < : 3 e h f a a h x k x k g h r 8 ; : ; < q 0 u i e q q 1 < < 0 a u a f i p h s h s a a e 0 < < 3 q 0 1 0 q 1 : * ",
"* k v x N g f e q - < a l g a a r a a s u u > 7 0 f a u a j j p 1 ; < & * : < 3 < > : < 0 p a u u 0 < : : : u x V z k j k x x 1 ",
"* x h h h h p s a ; p F V k h l l l z h a u : q k k k a y k j j j 1 1 e a e a l j 0 < q V F F V l k l a 8 : e k a a y y y k m 1 ",
"& k h j s a i u u 8 f l l h h l f g f l a 0 3 f f a f k k f h a w - q a k j j z M 1 ; a F l a y a f h V q : 0 d f r y f j a k : ",
"& f y a u r r r u < a a a h k N d h h d p : q f f y r a g h s a > 8 0 a f k f f j 1 : p z z a a f h y m q 2 q w t y k t y r j : ",
"& h h d a h p r u > 8 u p g f N f a f f t : w f f t a a h s j u : 3 0 a j k f a f 1 ; w k n y f a e n M q : q d k f j f y r j : ",
"& l v h j h h u u - : < 8 q q w u a q q q > w r y a s k k h l u : < 0 p t r s u i : - q d t f f a f j y q : q e r g d a u f j > ",
"1 a s p i a i ; ; , u k x g g h w i i a u u p w 0 3 q p a i a u : : ; > 8 q 3 3 < ; : 0 i p p s a q w r 0 : < 8 0 p u u 8 u a 3 ",
"c l h a h h h f t 8 u r r e a l s j x l h h f t < : r g e y f e f e q r q h g k i < < r x z g v j f a y a f a a < a l F x l l h ",
"v h l r f h k d f 8 u j w s h j v z z l h h h h , : n k y f j y f t a i i h j h j 8 p V k d q u a r a y f a a a 0 d F V l l v v ",
"f p h a i f h f h 8 u h h h c j s j l h x c l j < < f f y f h d p p h a s v x c h < s v h a s u u a e r h y l k < 3 l a a s h h ",
"< < q w w q p q q > u c l s s s a j h l v l j j 0 < < 0 0 w w p q q 8 a u f a s i u a l l f s a p a r r f f j t : 3 0 0 w u w w ",
"e w w q w < * * * - : s p w s a q p i i a u t 0 - * > q q a d s h a a a a a < ; : s h a a a a h f s p q r 3 > > & < q e w p d d ",
"l l s j k e , * : < q 3 e w u u w 1 7 8 < 8 0 > * 1 q n z x x c c h h h c F p ; 3 0 q u < < u u s s d t r y r q < 0 k k g v x l ",
"c l a r h w < u k N x j j f j s f j h k g f f e > 0 a z h h h h a a h a h F p 8 h h h h a a a h l k f a t j k V w 3 l e p c h h ",
"u p e q u 4 ; u r y r a r f j a j r f d h k f a > 3 a x h d p u u q u p a a h 8 s c l z h l i h f g d f f t f j > 3 s 3 q s h a ",
": 3 q 0 a w 0 0 0 : : < q < w q r i f w e r u 0 0 < u a p q 3 < 8 8 a u 0 u 0 < a h x h a h g k r e e r w y w 3 : 3 0 < 8 a u 8 ",
": i N n n N g k z a 3 - < 3 8 > < > 7 > < - : : , < > : ; < 2 - < i u s s s h s 0 < 0 0 w a d a q q y f r 1 : : e a f g k g z > ",
", u k f j j w f f n 0 , p x z x k l f k y 1 > e l l s s w w 3 : u h c l j j k g u < : u f k k k g k k k V k 1 : f j h c l h g : ",
"4 i l k z s e r y w : > d k k h l h f j k 3 > e l j h h d a 0 , u h x h j a k h k w : w y y k f y y y y j x w 3 h s h v l v h < ",
"4 g x l h h h s d f < : a k k a h w r k f 3 > q f k j y s w 1 : 0 s a f a j j e f w : 0 w f r r j d j a g l q a l j s s s j l : ",
"4 k l h h v c h l a u : r k j g f y y y r q : w d k y k j e : - < p f a y r r f f j < : r f r k k f a s s h ; h l x j j j c h , ",
"2 s h s h h v l l a < 0 r a r f f f f p e q : q a e y r q q : : 0 r g g k y y a r f 1 - 1 r q w r q s i < 3 > a j a a a a b b < ",
"< u u 8 4 u a s q < * < 8 w p a d q 8 q q q q 1 : : : 1 1 1 : ; q 0 0 w r w q q 3 3 1 : < w q e d x b F N s < 1 u u q 3 8 u a > ",
"l h s a a a l k h 8 < a k k k k h f a i s j j a 0 ; h j k a r r y a a w r k : ; 0 h h y f g g i h h h g c h u < d h f h s p h f ",
"x k h a u a f f h 8 p V x a w u a u h h l j l j w 0 N N j h j a e f d r f x e : u l f s f w r r p h h l k a : f f h h h a a h l ",
"h s s a i k f g s ; u k a a e w u a s h s x l x u 3 j r s h d h f f a a a h r > a v x l h a i i i f p g l e : f h h g h k h a s ",
"0 < 0 u q p q p < ; w a f r a u u s a a f h j h 8 3 3 w p u a p 0 w 8 u p r q < a v x x h s a i i u p h a q : 8 d q i u q 0 0 < "
};
