/* XPM */
static char *_93d3c79b5ce40028e0854959cdcda28ui7fsTxRU10koW3y[] = {
/* columns rows colors chars-per-pixel */
"64 64 170 2 ",
"   c #020304",
".  c #030709",
"X  c #06090C",
"o  c #0A0B0C",
"O  c #070D11",
"+  c #080F14",
"@  c #0A1115",
"#  c #0B141B",
"$  c #171718",
"%  c #0E1A22",
"&  c #13232E",
"*  c #142632",
"=  c #172B38",
"-  c #1C3445",
";  c #203B4F",
":  c #213E52",
">  c #0C2166",
",  c #0E2569",
"<  c #12266A",
"1  c #142A6D",
"2  c #192D6E",
"3  c #112467",
"4  c #19326F",
"5  c #132E70",
"6  c #163273",
"7  c #1D3372",
"8  c #1B3C7B",
"9  c #1C3874",
"0  c #24386D",
"q  c #223574",
"w  c #263976",
"e  c #283976",
"r  c #2B3D79",
"t  c #1F407E",
"y  c #274961",
"u  c #284B64",
"i  c #2A4F69",
"p  c #2C526D",
"a  c #265268",
"s  c #36546D",
"d  c #274176",
"f  c #294379",
"g  c #33437D",
"h  c #38477F",
"j  c #2E5773",
"k  c #315B79",
"l  c #4B4C4C",
"z  c #434D7E",
"x  c #445F7F",
"c  c #7B7B7B",
"v  c #214481",
"b  c #254B85",
"n  c #274F8A",
"m  c #354680",
"M  c #3D4D84",
"N  c #2A548D",
"B  c #3F5086",
"V  c #355C8C",
"C  c #335887",
"Z  c #2D5A92",
"A  c #2C5790",
"S  c #335D91",
"D  c #376688",
"F  c #346281",
"G  c #336399",
"H  c #37689C",
"J  c #3D6D9B",
"K  c #396595",
"L  c #3F739C",
"P  c #3B7094",
"I  c #396DA1",
"U  c #3D73A5",
"Y  c #3F79A9",
"T  c #414E82",
"R  c #425085",
"E  c #4E5C8E",
"W  c #456D92",
"Q  c #406E9A",
"!  c #536293",
"~  c #43739D",
"^  c #4B7A9D",
"/  c #517C99",
"(  c #46688B",
")  c #66739E",
"_  c #4276A3",
"`  c #4479A2",
"'  c #4A7CA3",
"]  c #437DAC",
"[  c #6D7AA3",
"{  c #727EA6",
"}  c #3991AF",
"|  c #4B80A7",
" . c #4582AC",
".. c #4B84AB",
"X. c #5081A2",
"o. c #4684B2",
"O. c #4986B3",
"+. c #4A89B5",
"@. c #478FBA",
"#. c #4A8BB8",
"$. c #4495BC",
"%. c #3E9FC1",
"&. c #3AA5C3",
"*. c #25BDC9",
"=. c #2BBBCD",
"-. c #2EB7CB",
";. c #33B0C8",
":. c #1FCFD6",
">. c #16DEDC",
",. c #1CD4D8",
"<. c #24C7D2",
"1. c #20CCD4",
"2. c #12E3DE",
"3. c #0BEDE2",
"4. c #05F6E6",
"5. c #09F2E4",
"6. c #04F9E7",
"7. c #01FEE9",
"8. c #8F8F90",
"9. c #858FB1",
"0. c #8891B2",
"q. c #949CBA",
"w. c #97A0BE",
"e. c #9DA2BC",
"r. c #A3A4A4",
"t. c #B9B2BD",
"y. c #9EA6C2",
"u. c #A2A7C0",
"i. c #A4ABC5",
"p. c #A7AFC8",
"a. c #AAB0C7",
"s. c #ADB4CB",
"d. c #B1B7CC",
"f. c #B2B9CE",
"g. c #BDBDCD",
"h. c #B2B2C4",
"j. c #B5BBD1",
"k. c #BABFD3",
"l. c #C8BCC2",
"z. c #BDC2D4",
"x. c #C3C0CC",
"c. c #D2C8CE",
"v. c #C2C6D6",
"b. c #C1C6D8",
"n. c #C5CADA",
"m. c #CBCEDC",
"M. c #CED2DF",
"N. c #D8D4DC",
"B. c #D2D5E2",
"V. c #D6DAE5",
"C. c #D9DBE6",
"Z. c #DBDEE8",
"A. c #DEE1EA",
"S. c #E2E5ED",
"D. c #E5E7EF",
"F. c #E3E5EE",
"G. c #E6E8EF",
"H. c #EDEDED",
"J. c #EEE5E4",
"K. c #E7E9F0",
"L. c #ECEEF3",
"P. c #EBEDF2",
"I. c #F0EFF2",
"U. c #EFF0F5",
"Y. c #F2F2F5",
"T. c #F5F5F8",
"R. c #F9FAFB",
"E. c white",
"W. c #FDFDFE",
"Q. c #FFFFFF",
/* pixels */
"E.E.E.E.E.E.E.E.E.E.E.E.E.E.E.H.x.e.a.B.E.E.E.E.E.E.E.E.E.E.E.E.E.E.E.E.E.E.E.E.E.E.E.E.E.E.E.E.E.E.E.E.E.E.E.E.E.E.E.E.E.E.E.E.",
"E.E.E.E.E.E.E.E.E.E.E.E.E.E.E.E.E.R.Z.f.w.Z.E.E.E.E.E.E.E.E.E.E.E.E.E.E.E.E.E.E.E.E.E.E.E.E.E.E.E.E.E.W.v.C.E.E.E.E.E.E.E.E.E.E.",
"E.E.E.E.E.E.E.E.E.E.E.E.E.E.E.E.E.E.E.E.A.! B.E.E.E.E.E.E.E.E.E.E.E.E.E.E.E.E.E.E.E.E.E.E.E.E.E.E.E.V.R g y.E.E.E.E.E.E.E.E.E.E.",
"E.E.E.E.E.E.E.E.E.E.E.E.E.E.E.E.E.E.E.I.B.7 ) T.E.E.E.E.E.E.E.E.E.E.E.E.E.E.E.E.E.E.E.E.E.E.E.E.E.z.M > > M E.E.E.E.E.E.E.E.E.E.",
"E.E.E.E.E.E.E.E.E.E.E.E.E.E.E.E.E.E.E.E.m.q r d.E.E.E.E.E.E.E.E.E.E.E.E.E.E.E.E.E.E.E.E.E.E.E.E.s.m > > > M E.E.E.E.E.E.E.E.E.E.",
"E.E.E.E.E.E.E.E.E.E.E.E.E.E.E.E.E.E.E.E.Y.E , { E.E.E.E.E.E.E.E.E.E.E.E.E.E.E.E.E.E.E.E.E.E.T.p.g > 6 > > M E.E.E.E.E.E.E.E.E.E.",
"E.E.E.E.E.E.E.E.E.E.E.E.E.E.E.E.E.E.E.E.E.e.3 w n.E.E.E.E.E.E.E.E.E.E.E.E.E.E.E.E.E.E.E.E.P.y.e > b U 1 < a.E.E.E.E.E.E.E.E.E.E.",
"E.E.E.E.E.E.E.E.E.E.E.E.E.E.E.E.E.E.E.E.E.g.m > w.E.E.E.E.E.E.E.E.E.E.E.E.E.E.E.E.E.E.E.B.R 2 > , O.N > g n.E.E.E.E.E.E.E.E.E.E.",
"E.E.E.E.E.E.E.E.E.E.E.E.E.E.E.E.E.E.E.E.E.M.r > m E.E.E.E.E.E.E.E.E.E.E.E.E.E.E.E.E.S.k.M > > 1 o.o., > M U.E.E.E.E.E.E.E.E.E.E.",
"E.E.E.E.E.E.E.E.E.E.E.E.E.E.E.E.E.E.E.E.E.S.M > g A.E.E.E.E.E.E.E.E.E.E.E.E.E.E.E.n.9.g > > d +.+.8 > 7 a.E.E.E.E.E.E.E.E.E.E.E.",
"E.E.E.E.E.E.E.E.E.E.E.E.E.E.E.E.E.E.E.E.E.Y.M > e z.E.E.E.E.E.E.E.E.E.E.E.E.E.E.S.0.7 > > w #.#.| > > M P.E.E.E.E.E.E.E.E.E.E.E.",
"E.E.E.E.E.E.E.E.E.E.E.E.E.E.E.E.E.E.E.E.E.Y.M > < a.E.E.E.E.E.E.E.E.E.E.E.E.E.E.p.7 > > S #.#.O.1 > g z.E.E.E.E.E.E.E.E.E.E.E.E.",
"E.E.E.E.E.E.E.E.E.E.E.E.E.E.E.E.E.E.E.E.E.G.M > > M E.E.E.E.E.E.E.E.E.E.E.E.U.u.e , n Y +.O.C > > g s.E.E.E.E.E.E.E.E.E.E.E.E.E.",
"E.E.E.E.E.E.E.E.E.E.E.E.E.E.E.E.E.E.E.E.E.M.g > > M E.E.E.E.E.E.E.E.E.E.E.D.e.q , t Z I N > > > g p.E.E.E.E.E.E.E.E.E.E.E.E.E.E.",
"E.E.E.E.E.E.E.E.E.E.E.E.E.E.E.E.E.E.E.E.E.p.< > > M E.E.E.E.E.E.E.E.E.E.B.q.1 > > , > > > > q M z.E.E.E.E.E.E.E.E.E.E.E.E.E.E.E.",
"E.E.E.E.E.E.E.E.E.E.E.E.E.E.E.E.E.E.E.E.L.T > > > T E.E.E.E.E.E.E.E.E.E.q.< > > > > 2 w M B f.S.E.E.E.E.E.E.E.E.E.E.E.E.E.E.E.E.",
"E.E.E.E.E.E.E.E.E.E.E.E.E.E.E.E.E.E.E.E.z.r > > > T Y.E.E.E.E.E.E.E.E.E.k.y.M M M p.f.b.C.R.E.E.E.E.E.E.E.E.E.E.E.E.E.E.E.E.E.E.",
"E.E.E.E.E.E.E.E.E.E.E.E.E.E.E.E.E.E.E.R.R > , , > M C.E.E.E.E.E.E.E.E.E.E.E.E.E.E.E.E.E.E.E.E.E.E.E.E.E.E.E.E.E.E.E.E.E.E.E.E.E.",
"E.E.E.E.E.E.E.E.E.E.E.E.E.E.E.E.E.E.E.s.w > 9 , > r z.E.E.E.E.E.E.E.E.E.E.E.E.E.E.E.E.E.E.E.E.E.E.E.E.E.E.E.E.E.E.E.E.E.E.E.E.E.",
"E.E.E.E.E.E.E.E.E.E.E.E.E.E.E.E.E.E.D.M > > N 1 > > T E.E.E.E.E.E.E.E.E.E.E.E.E.E.E.E.E.E.E.E.E.E.E.E.E.E.E.E.E.E.E.E.E.E.E.E.E.",
"E.E.E.E.E.E.E.E.E.E.E.E.E.E.E.E.E.E.i.2 > 5 I < > > z K.E.E.E.E.E.E.E.E.E.E.E.E.E.E.E.E.E.E.E.E.E.E.E.E.E.E.E.E.E.E.E.E.E.E.E.E.",
"E.E.E.E.E.E.E.E.E.E.E.E.E.E.E.E.E.m.M > > 8 ] , > > w h.E.E.E.E.E.E.E.E.E.E.E.E.E.E.E.E.E.E.E.E.E.E.E.E.E.E.E.E.E.E.E.E.E.E.E.E.",
"E.E.E.E.E.E.E.E.E.E.E.E.E.E.E.E.T.B > > > N ] < > > > z B.E.E.E.E.E.E.E.E.E.E.E.E.E.E.E.E.E.E.E.E.E.E.E.E.E.E.E.E.E.E.E.E.E.E.E.",
"E.E.E.E.E.E.E.E.E.E.E.E.E.E.E.E.s.e > > > I #.8 > > > > R L.E.E.E.E.E.E.E.E.E.E.E.E.E.E.E.E.E.E.E.E.E.E.E.E.E.E.E.E.E.E.E.E.E.E.",
"E.E.E.E.E.E.E.E.E.E.E.E.E.E.E.A.M > > > 1 ..#.N > > > > 2 e.U.E.E.E.E.E.E.E.E.E.E.E.E.E.E.E.E.E.E.E.E.E.E.E.E.E.E.E.E.E.E.E.E.E.",
"E.E.E.E.E.E.E.E.E.E.E.E.E.E.E.i.2 > > > v +.#.N > > > > > 7 q.P.E.E.E.E.E.E.E.E.E.E.E.L.i.n.E.E.E.E.E.E.E.E.E.E.E.E.E.E.E.E.E.E.",
"E.E.E.E.E.E.E.E.E.E.E.E.E.E.C.M > > > > A +.#.G , > > > > > 2 M v.R.E.E.E.E.E.E.E.E.B.[ { B.E.E.E.E.E.E.E.E.E.E.E.E.E.E.E.E.E.E.",
"E.E.E.E.E.E.E.E.E.E.E.E.E.E.i.< > > > > G +.#.#.N > > > > > > > g T s.M.T.E.E.E.A.a.7 7 { E.E.E.E.E.E.E.E.E.E.E.E.E.E.E.E.E.E.E.",
"E.E.E.E.E.E.E.E.E.E.E.E.E.S.M > > > > > G O.#.#.+.> > > > > > > > > 2 g T T T T M 1 > < j.E.E.E.E.E.E.E.E.E.E.E.E.E.E.E.E.E.E.E.",
"E.E.E.E.E.E.E.E.E.E.E.E.E.j.w > > > > > Z O.#.#.#.f > > > > > > > > > > > > > > > > > m S.E.E.E.E.E.E.E.E.E.E.E.E.E.E.E.E.E.E.E.",
"E.E.E.E.E.E.E.E.E.E.E.E.E.M > > > > > > N O.#.#.#...1 > > > > > > > > > > > b Q b > > M E.E.E.E.E.E.E.E.E.E.E.E.E.E.E.E.E.E.E.E.",
"E.E.E.E.E.E.E.E.E.E.E.E.S.M > > > > > > v +.#.#.#.+.] 8 > > > > > > > > > N +.#.^ > > p.E.E.E.E.E.E.E.E.E.E.E.E.E.E.E.E.E.E.E.E.",
"E.E.E.E.E.E.E.E.E.E.E.E.n.r > > > > > > 6 +.#.#.#.#.+.` S < > > > > > > 4 +.#.#.V > 2 s.E.E.E.E.E.E.E.E.E.E.E.E.E.E.E.E.E.E.E.E.",
"E.E.E.E.E.E.E.E.E.E.E.E.M > > > > > > > H #.#.#.#.#.#.#.#.~ V V S H S K +.#.#.+., > 1 s.E.E.E.E.E.E.E.E.E.E.E.E.E.E.E.E.E.E.E.E.",
"E.E.E.E.E.E.E.E.E.E.E.W.R > > > > > > 1 O.#.#.#.#.#.#.#.#.#.#.#.#.#.#.#.#.#.#.' < > > M E.E.E.E.E.E.E.E.E.E.E.E.E.E.E.E.E.E.E.E.",
"E.E.E.E.E.E.E.E.E.E.E.S.M > > > > > > t +.#.#.#.#.#.#.#.#.#.#.#.#.p # * u #.#.` , > > T E.E.E.E.E.E.E.E.E.E.E.E.E.E.E.E.E.E.E.E.",
"E.E.E.E.E.E.E.E.E.E.E.B.g > > > > > > ~ D - = k #.#.#.#.#.#.#.#.p   .   X y #.` > > > M Z.E.E.E.E.E.E.E.E.E.E.E.E.E.E.E.E.E.E.E.",
"E.E.E.E.E.E.E.E.E.E.E.b.q > > > > > 9 s # .   # u #.%.@.#.#.#.#.= $ H.8.  X #.' , > > 2 i.E.E.E.E.E.E.E.E.E.E.E.E.E.E.E.E.E.E.E.",
"E.E.E.E.E.E.E.E.E.E.E.j.2 > > > > > v @   H.c o % } 3.2.<.@.#.+.*   r.l   . #.' 8 > > > M Z.E.E.E.E.E.E.E.E.E.E.E.E.E.E.E.E.E.E.",
"E.E.E.E.E.E.E.E.E.E.E.d.1 > > > > > C +   8.l   & *.5.5.7.7.>.#.k     . X i #./ N > > > 2 i.E.E.E.E.E.E.E.E.E.E.E.E.E.E.E.E.E.E.",
"E.E.E.E.E.E.E.E.E.E.E.s.< > > > > > W ;     o @ a >.6.7.7.7.7.:.#.F @ % u #.#.#.G > > > > M Z.E.E.E.E.E.E.E.E.E.E.E.E.E.E.E.E.E.",
"E.E.E.E.E.E.E.E.E.E.E.s.< > > > > , ^  .: % & p *.4.7.7.7.7.7.6.%.#.#.#.#.#.#.#.J > > > > < y.E.E.E.E.E.E.E.E.E.E.E.E.E.E.E.E.E.",
"E.E.E.E.E.E.E.E.E.E.E.f.2 > > > > 1 ..#.#. . .@.2.7.7.7.7.7.7.7.=.#.#.#.#.#.#.#.W > > > > > M D.E.E.E.E.E.E.E.E.E.E.E.E.E.E.E.E.",
"E.E.E.E.E.E.E.E.E.E.E.z.7 > > > > 5 O.#.#.#.#.$.2.7.7.7.7.7.7.7.=.#.#.#.#.#.#.#.( > > > > > w b.E.E.E.E.E.E.E.E.E.E.E.E.E.E.E.E.",
"E.E.E.E.E.E.E.E.E.E.E.m.e > > > > 6 O.#.#.#.#.-.4.7.7.7.7.7.7.4.<.$.#.#.#.#.#.#.x > > > > > 2 j.E.E.E.E.E.E.E.E.E.E.E.E.E.E.E.E.",
"E.E.E.E.E.E.E.E.E.E.E.C.g > > > > 1 ..#.#.#.#.1.5.4.7.7.7.7.7.5.3.;.#.#.#.#.#.O.0 > > > > > q z.E.E.E.E.E.E.E.E.E.E.E.E.E.E.E.E.",
"E.E.E.E.E.E.E.E.E.E.E.L.T > > > > > ~ #.#.#.#.#.#.1.3.4.6.4.6.4.1.#.#.#.#.#.#.Z > > > > > > m N.E.E.E.E.E.E.E.E.E.E.E.E.E.E.E.E.",
"E.E.E.E.E.E.E.E.E.E.E.E.T > > > > > n X.#.` P ` #.#.&.=.-.:.,.@.#.#.#.#.#.#.o.7 > > > > > > R R.E.E.E.E.E.E.E.E.E.E.E.E.E.E.E.E.",
"E.E.E.E.E.E.E.E.E.E.E.E.l.q > > > > 6 ~ #.+.j   u +.#.#.#.#.#.#.#.#.#.+.#.#.v > > > > > > h c.E.E.E.E.E.E.E.E.E.E.E.E.E.E.E.E.E.",
"E.E.E.E.E.E.E.E.E.E.E.E.J.T > > > > > N O.#.#.p     u  . .o.+.+.#.#.#.#.] 9 > > > > > > q i.E.E.E.E.E.E.E.E.E.E.E.E.E.E.E.E.E.E.",
"E.E.E.E.E.E.E.E.E.E.E.E.E.t.w > > > > , I +.#.#. .- . O O * L  .+.#.#.] 9 > > > > > > 2 q.L.E.E.E.E.E.E.E.E.E.E.E.E.E.E.E.E.E.E.",
"E.E.E.E.E.E.E.E.E.E.E.E.E.P.T > > > > > > N _ O.+.#.+.+.+.+.#.+.+.Y Z 5 > > > > > > 7 w.P.E.E.E.E.E.E.E.E.E.E.E.E.E.E.E.E.E.E.E.",
"E.E.E.E.E.E.E.E.E.E.E.E.E.E.B.T > > > > > > > 6 Z J J ` ` L N 6 1 , > > > > > > > g y.P.E.E.E.E.E.E.E.E.E.E.E.E.E.E.E.E.E.E.E.E.",
"E.E.E.E.E.E.E.E.E.E.E.E.E.E.E.v.z > > > > > > > > > > > > > > > > > > > > > > 2 M z.E.E.E.E.E.E.E.E.E.E.E.E.E.E.E.E.E.E.E.E.E.E.",
"E.E.E.E.E.E.E.E.E.E.E.E.E.E.E.E.M.z e > > > > > > > > > > > > > > > > > > 2 M i.D.E.E.E.E.E.E.E.E.E.E.E.E.E.E.E.E.E.E.E.E.E.E.E.",
"E.E.E.E.E.E.E.E.E.E.E.E.E.E.E.E.E.Y.d.T e > > > > > > > > > > > > > > w M i.V.E.E.E.E.E.E.E.E.E.E.E.E.E.E.E.E.E.E.E.E.E.E.E.E.E.",
"E.E.E.E.E.E.E.E.E.E.E.E.E.E.E.E.E.E.E.Y.g.T z e < > > > > > > 2 g M M f.K.E.E.E.E.E.E.E.E.E.E.E.E.E.E.E.E.E.E.E.E.E.E.E.E.E.E.E.",
"E.E.E.E.E.E.E.E.E.E.E.E.E.E.E.E.E.E.E.E.E.E.D.z.p.M M M M M M s.m.K.E.E.E.E.E.E.E.E.E.E.E.E.E.E.E.E.E.E.E.E.E.E.E.E.E.E.E.E.E.E.",
"E.E.E.E.E.E.E.E.E.E.E.E.E.E.E.E.E.E.E.E.E.E.E.E.E.E.E.E.E.E.E.E.E.E.E.E.E.E.E.E.E.E.E.E.E.E.E.E.E.E.E.E.E.E.E.E.E.E.E.E.E.E.E.E.",
"E.E.E.E.E.E.E.E.E.E.E.E.E.E.E.E.E.E.E.E.E.E.E.E.E.E.E.E.E.E.E.E.E.E.E.E.E.E.E.E.E.E.E.E.E.E.E.E.E.E.E.E.E.E.E.E.E.E.E.E.E.E.E.E.",
"E.E.E.E.E.E.E.E.E.E.E.E.E.E.E.E.E.E.E.E.E.E.E.E.E.E.E.E.E.E.E.E.E.E.E.E.E.E.E.E.E.E.E.E.E.E.E.E.E.E.E.E.E.E.E.E.E.E.E.E.E.E.E.E.",
"E.E.E.E.E.E.E.E.E.E.E.E.E.E.E.E.E.E.E.E.E.E.E.E.E.E.E.E.E.E.E.E.E.E.E.E.E.E.E.E.E.E.E.E.E.E.E.E.E.E.E.E.E.E.E.E.E.E.E.E.E.E.E.E.",
"E.E.E.E.E.E.E.E.E.E.E.E.E.E.E.E.E.E.E.E.E.E.E.E.E.E.E.E.E.E.E.E.E.E.E.E.E.E.E.E.E.E.E.E.E.E.E.E.E.E.E.E.E.E.E.E.E.E.E.E.E.E.E.E.",
"E.E.E.E.E.E.E.E.E.E.E.E.E.E.E.E.E.E.E.E.E.E.E.E.E.E.E.E.E.E.E.E.E.E.E.E.E.E.E.E.E.E.E.E.E.E.E.E.E.E.E.E.E.E.E.E.E.E.E.E.E.E.E.E."
};
