/* XPM */
static char *a6da0f3caec84c03a9bd2b26822654ad77T9aoTRFAHEkFnf[] = {
/* columns rows colors chars-per-pixel */
"64 64 79 1 ",
"  c #0C2166",
". c #0D2267",
"X c #0E2468",
"o c #0F2468",
"O c #12266A",
"+ c #132B6F",
"@ c #193877",
"# c #1A3878",
"$ c #1D3F7D",
"% c #1E3F7D",
"& c #1F4180",
"* c #204280",
"= c #214482",
"- c #234985",
"; c #244A85",
": c #254B86",
"> c #244B87",
", c #264E89",
"< c #274F8A",
"1 c #28508A",
"2 c #29528C",
"3 c #2B558E",
"4 c #2B568F",
"5 c #2C5790",
"6 c #2C5990",
"7 c #2C5891",
"8 c #2D5992",
"9 c #2D5A92",
"0 c #2D5B93",
"q c #2F5C94",
"w c #2F5D95",
"e c #305E95",
"r c #305E96",
"t c #306097",
"y c #316097",
"u c #316198",
"i c #326399",
"p c #34659B",
"a c #35669B",
"s c #35679D",
"d c #36689D",
"f c #36699F",
"g c #376A9F",
"h c #3F77A8",
"j c #3F78A8",
"k c #3F78AA",
"l c #4078AB",
"z c #407AAA",
"x c #427DAD",
"c c #437EAE",
"v c #437FAF",
"b c #447FB0",
"n c #4786B4",
"m c #4888B6",
"M c #4989B6",
"N c #478FBA",
"B c #4A8BB8",
"V c #4A8CB8",
"C c #4692BB",
"Z c #4395BD",
"A c #4298BD",
"S c #4298BE",
"D c #3F9DC0",
"F c #3CA0C1",
"G c #2FB6CA",
"H c #2EB7CB",
"J c #1BD6D8",
"K c #17DCDB",
"L c #19D8D9",
"P c #18D9DA",
"I c #25C4D1",
"U c #12E3DE",
"Y c #00FFEA",
"T c #F8F9FB",
"R c #FAFBFC",
"E c #FBFCFD",
"W c #FCFCFD",
"Q c #FEFEFE",
"! c white",
/* pixels */
"!!!!!!!!!!!!!!!!!!!!!!!!!!!!!!!!!!!!!!!!!!!!!! !!!!!!!!!!!!!!!!!",
"!!!!!!!!!!!!!!!!!!!!!!!!!!!!!!!!!!!!!!!!!!!!!  !!!!!!!!!!!!!!!!!",
"!!!!!!!!!!!!!!!!!!!!!!!!!!!!!!!!!!!!!!!!!!!!!  !!!!!!!!!!!!!!!!!",
"!!!!!!!!!!!!!!!!!!!!!!!!!!!!!!!!!!!!!!!!!!!!    !!!!!!!!!!!!!!!!",
"!!!!!!!!!!!!!!!!!!!!!!!!!!!!!!!!!!!!!!!!!!!!    !!!!!!!!!!!!!!!!",
"!!!!!!!!!!!!!!!!!!!!!!!!!!!!!!!!!!!!!!!!!!!!    !!!!!!!!!!!!!!!!",
"!!!!!!!!!!!!!!!!!!!!!!!!!!!!!!!!!!!!!!!!!!!     !!!!!!!!!!!!!!!!",
"!!!!!!!!!!!   !!!!!!!!!!!!!!!!!!!!!!!!!!!!!     !!!!!!!!!!!!!!!!",
"!!!!!!!!!!!!    !!!!!!!!!!!!!!!!!!!!!!!!!!!      !!!!!!!!!!!!!!!",
"!!!!!!!!!!!!!    X  !!!!!!!!!!!!!!!!!!!!!!       !!!!!!!!!!!!!!!",
"!!!!!!!!!!!!!!   ,g  !!!!!!!!!!!!!!!!!!!!!       !!!!!!!!!!!!!!!",
"!!!!!!!!!!!!!!!   aj  !!!!!!!!!!!!!!!!!!!!       !!!!!!!!!!!!!!!",
"!!!!!!!!!!!!!!!!   hc !!!!!!!!!!!!!!!!!!         !!!!!!!!!!!!!!!",
"!!!!!!!!!!!!!!!!!   c  !!!!!!!!!!!!!!!!!    B    !!!!!!!!!!!!!!!",
"!!!!!!!!!!!!!!!!!  O+  !!!!!!!!!!!!!!!!          !!!!!!!!!!!!!!!",
"!!!!!!!!!!!!!!!!!!     !!!!!!!!!!!!!!!          !!!!!!!!!!!!!!!!",
"!!!!!!!!!!!!!!!!!!     !!!!!!!!!!!!!!!     B    !!!!!!!!!!!!!!!!",
"!!!!!!!!!!!!!!!!!!!   !!!!!!!!!!!!!!       B    !!!!!!!!!!!!!!!!",
"!!!!!!!!!!!!!!!!!!T   !!!!!!!!!!!!!       B    !!!!!!!!!!!!!!!!!",
"!!!!!!!!!!!!!!!!!!!! !!!!!!!!!!!!!        B    !!!!!!!!!!!!!!!!!",
"!!!!!!!!!!!!!!!!!!!! !!!!!!!!!!!          B   !!!!!!!!!!!!!!!!!!",
"!!!!!!!!!!!!!!!!!!!!!!!!!!!!!!           B    !!!!!!!!!!!!!!!!!!",
"!!!!!!!!!!!!!!!!!!!!!!                   B    !!!!!!!!!!!!!!!!!!",
"!!!!!!!!!!!!!!!!!!!                     BB    !!!!!!!!!!!!!!!!!!",
"!!!!!!!!!!!!!!!!!!                     BBB    !!!!!!!!!!!!!!!!!!",
"!!!!!!!!!!!!!!!!                      BBB    !!!!!!!!!!!!!!!!!!!",
"!!!!!!!!!!!!!!!                     BBBBB    !!!!!!!!!!!!!!!!!!!",
"!!!!!!!!!!!!!!!                    BBBBBB    !!!!!!!!!!!!!!!!!!!",
"!!!!!!!!!!!!!!!               -,BBBBBBmB     !!!!!!!!!!!!!!!!!!!",
"!!!!!!!!!!!!!!   X    B    >3szcBBBBBmBB     !!!!!!!!!!!!!!!!!!!",
"!!!!!!!!!!!!!!          #>tBBBBBBBBBBBBB     !!!!!!!!!!!!!!!!!!!",
"!!!!!!!!!!!!!         #=eBBBBBBBBBBBBBB@     !!!!!!!!!!!!!!!!!!!",
"!!!!!!!!!!!!!        $,BBBBBBBBBBBBBBmB#     !!!!!!!!!!!!!!!!!!!",
"!!!!!!!!!!!!        &BcBBBBBBBBBBBBBBBB*      !!!!!!!!!!!!!!!!!!",
"!!!!!!!!!!!        *BnBBBBBBBBBBBBBBBBB1      !!!!!!!!!!!!!!!!!!",
"!!!!!!!!!!!       >BBBBBBBBBBBBBBBBBBBB9      !!!!!!!!!!!!!!!!!!",
"!!!!!!!!!!!      $BBBBBBBBBBBBBBBBBBBBBi-     !!!!!!!!!!!!!!!!!!",
"!!!!!!!!!!!      BBBBBBBYGSBBBYBBBBBBBBBe     !!!!!!!!!!!!!!!!!!",
"!!!!!!!!!!      BBBBBBBBBCBDYYYYYBBBBBBB9     !!!!!!!!!!!!!!!!!!",
"!!!!!!!!!!      BBBBBBBYBBPPYYYYYYBBBBBB9     !!!!!!!!!!!!!!!!!!",
"!!!!!!!!!!      BBBBBBBBFJYYYYUIYYBBBBBB5     !!!!!!!!!!!!!!!!!!",
"!!!!!!!!!!      BBBBBBBNYYYYYYYKYYBBBBBB9      !!!!!!!!!!!!!!!!!",
"!!!!!!!!!!      BBBBBBBSYYYYYYYYYYBBBBBBt      !!!!!!!!!!!!!!!!!",
"!!!!!!!!!!      BBBBBBGYYYYYYYYYYYBYBBBB2      !!!!!!!!!!!!!!!!!",
"!!!!!!!!!!      3BBBBBZYYYYYYYYYYBBBBBBB       !!!!!!!!!!!!!!!!!",
"!!!!!!!!!!       BBBBBBYYYYYYYYYBBBBBBBB        !!!!!!!!!!!!!!!!",
"!!!!!!!!!!       zBBBBBBYYYYYYYYBBBBYBBb        !!!!!!!!!!!!!!!!",
"!!!!!!!!!!!       qBBBBBBYYYYYYBBBBBBBj        !!!!!!!!!!!!!!!!!",
"!!!!!!!!!!!        BBBBBBBVYYYBBBBBBBa         !!!!!!!!!!!!!!!!!",
"!!!!!!!!!!!R        BBBBBBBBBBBBBBBBg         !!!!!!!!!!!!!!!!!!",
"!!!!!!!!!!!!         BBBBBBBBBBBBBBq          !!!!!!!!!!!!!!!!!!",
"!!!!!!!!!!!!!         BBBmBBBBBBB9           !!!!!!!!!!!!!!!!!!!",
"!!!!!!!!!!!!!!         3iBBBBg9            !!!!!!!!!!!!!!!!!!!!!",
"!!!!!!!!!!!!!!!                           !!!!!!!!!!!!!!!!!!!!!!",
"!!!!!!!!!!!!!!!!                     X   !!!!!!!!!!!!!!!!!!!!!!!",
"!!!!!!!!!!!!!!!!!                      !!!!!!!!!!!!!!!!!!!!!!!!!",
"!!!!!!!!!!!!!!!!!!!                  !!!!!!!!!!!!!!!!!!!!!!!!!!!",
"!!!!!!!!!!!!!!!!!!!!!!             !!!!!!!!!!!!!!!!!!!!!!!!!!!!!",
"!!!!!!!!!!!!!!!!!!!!!!!!!!!   E!!!!!!!!!!!!!!!!!!!!!!!!!!!!!!!!!",
"!!!!!!!!!!!!!!!!!!!!!!!!!!!!!!!!!!!!!!!!!!!!!!!!!!!!!!!!!!!!!!!!",
"!!!!!!!!!!!!!!!!!!!!!!!!!!!!!!!!!!!!!!!!!!!!!!!!!!!!!!!!!!!!!!!!",
"!!!!!!!!!!!!!!!!!!!!!!!!!!!!!!!!!!!!!!!!!!!!!!!!!!!!!!!!!!!!!!!!",
"!!!!!!!!!!!!!!!!!!!!!!!!!!!!!!!!!!!!!!!!!!!!!!!!!!!!!!!!!!!!!!!!",
"!!!!!!!!!!!!!!!!!!!!!!!!!!!!!!!!!!!!!!!!!!!!!!!!!!!!!!!!!!!!!!!!"
};
