/* XPM */
static char *_dacfbce7b15417d8afc8f183b1d8b3f8jN04GmiMTS5X3Q5[] = {
/* columns rows colors chars-per-pixel */
"64 64 178 2 ",
"   c #020304",
".  c #030609",
"X  c #06090B",
"o  c #0A0B0C",
"O  c #070C11",
"+  c #080F14",
"@  c #03091D",
"#  c #091016",
"$  c #08161A",
"%  c #171718",
"&  c #0D1921",
"*  c #061237",
"=  c #13232E",
"-  c #0E2930",
";  c #142632",
":  c #182C3A",
">  c #0A2429",
",  c #1C3848",
"<  c #1B3242",
"1  c #203B4F",
"2  c #213E52",
"3  c #0C2166",
"4  c #0E2569",
"5  c #112465",
"6  c #152865",
"7  c #1C2D66",
"8  c #12266A",
"9  c #152B6D",
"0  c #192D6E",
"q  c #1B316C",
"w  c #142F71",
"e  c #163273",
"r  c #1C3271",
"t  c #1C3977",
"y  c #1D3C7A",
"u  c #243669",
"i  c #223574",
"p  c #233C76",
"a  c #293A77",
"s  c #2C3E7A",
"d  c #054442",
"f  c #2F495A",
"g  c #1E407E",
"h  c #294C64",
"j  c #2B516C",
"k  c #325366",
"l  c #25437A",
"z  c #2E447A",
"x  c #33447D",
"c  c #39477F",
"v  c #3D497E",
"b  c #354E78",
"n  c #2E5773",
"m  c #315C7A",
"M  c #0E7575",
"N  c #246174",
"B  c #4B4C4C",
"V  c #49517F",
"C  c #7B7B7B",
"Z  c #04897F",
"A  c #1F4280",
"S  c #214480",
"D  c #2B4E84",
"F  c #284F88",
"G  c #264C86",
"H  c #364780",
"J  c #374881",
"K  c #3B4B83",
"L  c #27508A",
"P  c #2A528B",
"I  c #2D5084",
"U  c #3F5086",
"Y  c #345B8C",
"T  c #385B86",
"R  c #2D5A92",
"E  c #325E93",
"W  c #376688",
"Q  c #386385",
"!  c #336297",
"~  c #386596",
"^  c #3F6B96",
"/  c #34649A",
"(  c #3C6C9A",
")  c #3F729C",
"_  c #3B7094",
"`  c #3F78AA",
"'  c #3C73A5",
"]  c #424E81",
"[  c #415186",
"{  c #43698E",
"}  c #56788D",
"|  c #446C92",
" . c #48759B",
".. c #4377A2",
"X. c #427BA3",
"o. c #4C7FA5",
"O. c #447EAA",
"+. c #089C93",
"@. c #4582AC",
"#. c #4B84AC",
"$. c #4F85A9",
"%. c #528BAF",
"&. c #4685B2",
"*. c #4B8AB5",
"=. c #478FBA",
"-. c #4A8BB8",
";. c #518CB1",
":. c #4495BC",
">. c #4298BD",
",. c #3E9EC0",
"<. c #36ABC5",
"1. c #2FB7CA",
"2. c #2ABDCD",
"3. c #31B3C8",
"4. c #1BD7D7",
"5. c #1ADBD8",
"6. c #25C7D1",
"7. c #23CBD3",
"8. c #0AEBDB",
"9. c #15E2DC",
"0. c #10E8DE",
"q. c #18E1D9",
"w. c #09F5E3",
"e. c #05FBE6",
"r. c #02FFE8",
"t. c #8F8F90",
"y. c #818BAF",
"u. c #969DBA",
"i. c #8A94B5",
"p. c #97A0BE",
"a. c #9BA2BC",
"s. c #A3A4A4",
"d. c #A6A7BC",
"f. c #A3ABC5",
"g. c #A8AEC6",
"h. c #ACB3CB",
"j. c #B0B7CD",
"k. c #B3B9CE",
"l. c #B9BDCF",
"z. c #B7BDD1",
"x. c #BABFD2",
"c. c #BDC3D5",
"v. c #C1C6D7",
"b. c #C2C7D8",
"n. c #C6CADA",
"m. c #CACEDD",
"M. c #CCD0DF",
"N. c #CED3E0",
"B. c #D2D6E3",
"V. c #D5D9E5",
"C. c #D9DCE7",
"Z. c #DADDE8",
"A. c #DEE1EA",
"S. c #E5E7EE",
"D. c #E3E5ED",
"F. c #E6E8EF",
"G. c #ECEDED",
"H. c #EDE4E2",
"J. c #E7E9F0",
"K. c #EAECF2",
"L. c #ECEEF3",
"P. c #EEEFF4",
"I. c #EBEDF2",
"U. c #EFF0F5",
"Y. c #F1F2F6",
"T. c #F2F3F6",
"R. c #F5F5F8",
"E. c #F6F6F9",
"W. c #F5F6F9",
"Q. c #F7F8FA",
"!. c #F8F9FB",
"~. c #FAFBFC",
"^. c #FBFCFD",
"/. c #FDFDFE",
"(. c white",
"). c #FEFEFE",
"_. c #FCFCFD",
"`. c #FFFFFF",
/* pixels */
"(.(.(.(.(.(.(.(.(.(.(.(.(.(.(.(.(.(.(.(.(.(.(.(.(.(.(.(.R.~.(.(.(.(.(.(.(.(.(.(.(.(.(.(.(.(.(.(.(.(.(.(.(.(.(.(.(.(.(.(.(.(.(.(.",
"(.(.(.(.(.(.(.(.(.(.(.(.(.(.(.(.(.(.(.(.(.(.(.(.(.(.(.(.L.n.(.(.(.(.(._.L.Q.(.(.(.(.(.(.(.(.(.(.(.(.(.(.(.(.(.(.(.(.(.(.(.(.(.(.",
"(.(.(.(.(.(.(.(.(.(.(.(.(.(.(.(.(.(.(.(.(.(.(.(.(.(.(.(.K.f.!.(.(.(.(.U.k.y.i.b.K.(.(.(.(.(.(.(.(.(.(.(.(.(.(.(.(.(.(.(.(.(.(.(.",
"(.(.(.(.(.(.(.(.(.(.(.(.(.(.(.(.(.(.(.(.(.(.(.(.(.(.(.(.v.g.K.(.(.(.(.(.C.B.h.[ [ K x B.(.(.(.(.(.(.(.(.(.(.(.(.(.(.(.(.(.(.(.(.",
"(.(.(.(.(.(.(.(.(.(.(.(.(.(.(.(.(.(.(.(.(.(.(.(.(.(.(.A.x z.S.(.(.(.(.(.(.b.0 3 3 3 3 i K l.(.(.(.(.(.(.(.(.(.(.(.(.(.(.(.(.(.(.",
"(.(.(.(.(.(.(.(.(.(.(.(.(.(.(.(.(.(.(.(.(.(.(.(.(.(.T.K 3 H U.(.(.(.(.(.(.!.j.a 3 3 3 3 3 s u.D.(.(.(.(.(.(.(.(.(.(.(.(.(.(.(.(.",
"(.(.(.(.(.(.(.(.(.(.(.(.(.(.(.(.(.(.(.(.(.(.(.(.(.(.c.r 3 K (.(.(.(.(.(.(.(.(.h.s 3 3 3 3 3 8 p.S.(.(.(.(.(.(.(.(.(.(.(.(.(.(.(.",
"(.(.(.(.(.(.(.(.(.(.(.(.(.(.(.(.(.(.(.(.(.(.(.(.(.P.c 3 3 H (.(.(.(.(.(.(.(.(.~.a.r 3 3 3 3 3 9 p.(.(.(.(.(.(.(.(.(.(.(.(.(.(.(.",
"(.(.(.(.(.(.(.(.(.(.(.(.(.(.(.(.(.(.(.(.(.(.(.(.(.D.s 3 i m.(.(.(.(.(.(.(.(.(.(.D.V 3 3 3 3 3 3 x c.(.(.(.(.(.(.(.(.(.(.(.(.(.(.",
"(.(.(.(.(.(.(.(.(.(.(.(.(.(.(.(.(.(.(.(.(.(.(.(.(.n.9 3 K Q.(.(.(.(.(.(.(.(.(.(.(.d.x 3 3 3 3 3 3 U (.(.(.(.(.(.(.(.(.(.(.(.(.(.",
"(.(.(.(.(.(.(.(.(.(.(.(.(.(.(.(.(.(.(.(.(.(.(.(.(.x 3 3 j.(.(.(.(.(.(.(.(.(.(.(.(.B.V 3 4 A 3 3 3 H V.(.(.(.(.(.(.(.(.(.(.(.(.(.",
"(.(.(.(.(.(.(.(.(.(.(.(.(.(.(.(.(.(.(.(.(.(.(.(.m.i 3 s C.(.(.(.(.(.(.(.(.(.(.(.(.K.] 3 4 E 5 3 3 r j.(.(.(.(.(.(.(.(.(.(.(.(.(.",
"(.(.(.(.(.(.(.(.(.(.(.(.(.(.(.(.(.(.(.(.(.(.(.^.v 3 3 K (.(.(.(.(.(.(.(.(.(.(.(.(.(.a.0 3 ;.r 3 3 3 K (.(.(.(.(.(.(.(.(.(.(.(.(.",
"(.(.(.(.(.(.(.(.(.(.(.(.(.(.(.(.(.(.(.(.(.(.(.n.a 3 r n.(.(.(.(.(.(.(.(.(.(.(.(.(.(.d.9 3 O.R b 3 3 K (.(.(.(.(.(.(.(.(.(.(.(.(.",
"(.(.(.(.(.(.(.(.(.(.(.(.(.(.(.(.(.(.(.(.(.(.P.v 3 3 H J.(.(.(.(.(.(.(.(.(.(.(.(.(.(.] 3 3 | ` S 3 3 K (.(.(.(.(.(.(.(.(.(.(.(.(.",
"(.(.(.(.(.(.(.(.(.(.(.(.(.(.(.(.(.(.(.(.(.(.x.r 3 3 K (.(.(.(.(.(.(.(.(.(.(.(.(.(.T.] 3 3 W -.G 4 3 K (.(.(.(.(.(.(.(.(.(.(.(.(.",
"(.(.(.(.(.(.(.(.(.(.(.(.(.(.(.(.(.(.(.(.(.V.x 3 3 a M.(.(.(.(.(.(.(.(.(.(.(.(.(.(.V.c 3 3 ^ -.#.4 3 K (.(.(.(.(.(.(.(.(.(.(.(.(.",
"(.(.(.(.(.(.(.(.(.(.(.(.(.(.(.(.(.(.(.(.R.K 3 3 3 c K.(.(.(.(.(.(.(.(.(.(.(.(.(.(.g.9 3 8 O.-...3 3 K (.(.(.(.(.(.(.(.(.(.(.(.(.",
"(.(.(.(.(.(.(.(.(.(.(.(.(.(.(.(.(.(.(.(.j.r 3 3 3 K (.(.(.(.(.(.(.(.(.(.(.(.(.(.V.K 3 3 l -.*.E 3 0 h.(.(.(.(.(.(.(.(.(.(.(.(.(.",
"(.(.(.(.(.(.(.(.(.(.(.(.(.(.(.(.(.(.(.B.x 3 3 3 3 c (.(.(.(.(.(.(.(.(.(.(.(.(.K.K 3 3 e ^ -...y 3 x m.(.(.(.(.(.(.(.(.(.(.(.(.(.",
"(.(.(.(.(.(.(.(.(.(.(.(.(.(.(.(.(.(.T.K 3 3 t Y 0 c.(.(.(.(.(.(.(.(.(.(.(.(.T.f.0 3 4 y -.-.F w 3 K J.(.(.(.(.(.(.(.(.(.(.(.(.(.",
"(.(.(.(.(.(.(.(.(.(.(.(.(.(.(.(.(.(.k.0 3 3 o.%.0 v.(.(.(.(.(.(.(.(.(.(.(.H.v 8 3 5 p -.-...y 3 3 K (.(.(.(.(.(.(.(.(.(.(.(.(.(.",
"(.(.(.(.(.(.(.(.(.(.(.(.(.(.(.(.(.B.x 3 3 5 -.#.3 k.(.(.(.(.(.(.(.(.(.R.i a 3 3 0 S -.-.-.G t 3 x b.(.(.(.(.(.(.(.(.(.(.(.(.(.(.",
"(.(.(.(.(.(.(.(.(.(.(.(.(.(.(.(.Q.K 3 3 3 u -.u 3 K (.(.(.(.(.(.(.(.P.8 3 3 3 4 P -.-.-.Y 9 3 3 K R.(.(.(.(.(.(.(.(.(.(.(.(.(.(.",
"(.(.(.(.(.(.(.(.(.(.(.(.(.(.(.(.b.a 3 3 3 ) *.5 3 x B.(.(.(.(.(.(.(.R.3 3 3 3 q -.-.-.! 9 4 3 s x.(.(.(.(.(.(.(.(.(.(.(.(.(.(.(.",
"(.(.(.(.(.(.(.(.(.(.(.(.(.(.(.P.K 3 3 3 7 -.*.3 3 3 K L.(.(.(.(.(.(.(.9 3 3 3 6 S ` P 9 3 3 9 p.(.(.(.(.(.(.(.(.(.(.(.(.(.(.(.(.",
"(.(.(.(.(.(.(.(.(.(.(.(.(.(.(.v.i 3 3 3 I -.*.3 3 3 8 g.L.(.(.(.(.(.(.^.b.9 3 3 8 9 z 3 3 3 [ S.(.(.(.(.(.(.(.(.(.(.(.(.(.(.(.(.",
"(.(.(.(.(.(.(.(.(.(.(.(.(.(.T.K 3 3 3 3 ~ -. .3 3 3 3 9 K S.(.(.(.(.(.(.R.z.x 3 3 3 3 3 r K V.(.(.(.(.(.(.(.(.(.(.(.(.(.(.(.(.(.",
"(.(.(.(.(.(.(.(.(.(.(.(.(.(.c.r 3 3 3 3 ~ -.p 3 3 3 3 3 3 K V.(.(.(.(.(.(.(.m.[ H i a K f.S.(.(.(.(.(.(.(.(.(.(.(.(.(.(.(.(.(.(.",
"(.(.(.(.(.(.(.(.(.(.(.(.(.(.K 3 3 3 3 3 ! -.D 9 3 3 3 3 3 3 s N.!.(.(.(.(.(.(.^.V.v.n.D.(.(.(.(.(.(.(.(.(.(.(.(.(.(.(.(.(.(.(.(.",
"(.(.(.(.(.(.(.(.(.(.(.(.(.n.i 3 3 3 3 4 ' -.o.e 3 3 3 3 3 3 3 4 9 ~.(.(.(.(.(.(.(.(.(.(.(.(.(.(.(.(.(.(.(.(.(.(.(.(.(.(.(.(.(.(.",
"(.(.(.(.(.(.(.(.(.(.(.(.(.K 3 3 3 3 3 5 &.-.-.D 4 3 3 3 3 3 3 3 3 r K.(.(.(.(.(.(.(.(.(.(.(.(.(.(.(.(.(.(.(.(.(.(.(.(.(.(.(.(.(.",
"(.(.(.(.(.(.(.(.(.(.(.(.D.c 3 3 3 3 3 8 -.-.-.-.r 5 3 3 3 3 3 3 3 3 i C.(.(.(.(.(.(.(.(.(.(.(.(.(.(.(.(.(.(.(.(.(.(.(.(.(.(.(.(.",
"(.(.(.(.(.(.(.(.(.(.(.(.c.9 3 3 3 3 3 r -.-.-.-.&.Y 3 3 3 3 3 3 3 3 3 i c.T.(.(.(.(.(.(.(.(.(.(.(.(.(.(.(.(.(.(.(.(.(.(.(.(.(.(.",
"(.(.(.(.(.(.(.(.(.(.(.(.K 3 3 3 3 3 3 t -.-.2.:.-.-. .Y l q 9 8 3 3 3 3 9 J Z.(.(.(.(.(.(.(.(.(.(.(.(.(.(.(.(.(.(.(.(.(.(.(.(.(.",
"(.(.(.(.(.(.(.(.(.(.(.U.c 3 3 3 3 3 4 -.-.>.w.4.-.-.-.-.-.-.-.-.} k O @ * 3 H n.(.(.(.(.(.(.(.(.(.(.(.(.(.(.(.(.(.(.(.(.(.(.(.(.",
"(.(.(.(.(.(.(.(.(.(.(.N.a 3 3 3 3 3 q -.W , d +.:.-.-.-.-.-.-.-.j   X     * 3 s h.P.(.(.(.(.(.(.(.(.(.(.(.(.(.(.(.(.(.(.(.(.(.(.",
"(.(.(.(.(.(.(.(.(.(.(.x.8 3 3 3 3 3 l Q $ .   $ M -.-.-.-.-.-.-.: % G.t.  . 3 3 9 K D.(.(.(.(.(.(.(.(.(.(.(.(.(.(.(.(.(.(.(.(.(.",
"(.(.(.(.(.(.(.(.(.(.(.H 3 3 3 3 3 3 ( $   G.C o > O.-.-.-.-.-.-.;   s.B     3 3 3 3 K C.(.(.(.(.(.(.(.(.(.(.(.(.(.(.(.(.(.(.(.(.",
"(.(.(.(.(.(.(.(.(.(.(.K 3 3 3 3 3 8 @.+   t.B   - 8.9.>.-.-.-.-.m     . X f 3 3 3 3 3 K A.(.(.(.(.(.(.(.(.(.(.(.(.(.(.(.(.(.(.(.",
"(.(.(.(.(.(.(.(.(.(.(.K 3 3 3 3 3 4 -.1     o # Z r.e.r.e.q.>.-.-.Q # & h ..9 3 3 3 3 3 K P.(.(.(.(.(.(.(.(.(.(.(.(.(.(.(.(.(.(.",
"(.(.(.(.(.(.(.(.(.(.^.J 3 3 3 3 3 3 *.@.2 & = N 8.e.r.r.r.r.4.-.-.-.-.-.-.&.9 3 3 3 3 3 8 h.(.(.(.(.(.(.(.(.(.(.(.(.(.(.(.(.(.(.",
"(.(.(.(.(.(.(.(.(.(.(.J 3 3 3 3 3 3 #.-.-.@.@.4.r.r.r.r.r.r.w.-.-.-.-.-.-.-.t e 3 3 3 3 3 s m.(.(.(.(.(.(.(.(.(.(.(.(.(.(.(.(.(.",
"(.(.(.(.(.(.(.(.(.(.(.K 3 3 3 3 3 3 @.-.-.-.-.0.e.r.r.r.r.r.e.>.5.<.-.-.-.&.l g 3 3 3 3 3 3 K R.(.(.(.(.(.(.(.(.(.(.(.(.(.(.(.(.",
"(.(.(.(.(.(.(.(.(.(.(.K 3 3 3 3 3 3 / -.-.-.-.9.9.r.r.r.r.r.w.6.4.,.-.-.-.' p 3 3 3 3 3 3 3 s B.(.(.(.(.(.(.(.(.(.(.(.(.(.(.(.(.",
"(.(.(.(.(.(.(.(.(.(.(.H 3 3 3 3 3 3 y -.-.-.-.9.e.r.r.r.r.e.w.6.1.-.-.-.-./ l 3 3 3 3 3 3 3 8 c.(.(.(.(.(.(.(.(.(.(.(.(.(.(.(.(.",
"(.(.(.(.(.(.(.(.(.(.(.c.9 3 3 3 3 3 3 #.-.-.-.=.5.e.e.e.r.r.e.2.-.-.-.-.-.R l 3 3 3 3 3 3 3 3 x (.(.(.(.(.(.(.(.(.(.(.(.(.(.(.(.",
"(.(.(.(.(.(.(.(.(.(.(.C.s 3 3 3 3 3 3 ! -.X._ X.-.:.3.7.7.2.4.<.-.-.-.-.-.L r 3 3 3 3 3 3 3 r n.(.(.(.(.(.(.(.(.(.(.(.(.(.(.(.(.",
"(.(.(.(.(.(.(.(.(.(.(.(.K 3 3 3 3 3 3 F l -.n   h -.-.-.-.-.-.-.-.-.-.-.-.p 3 3 3 3 3 3 3 3 c K.(.(.(.(.(.(.(.(.(.(.(.(.(.(.(.(.",
"(.(.(.(.(.(.(.(.(.(.(.(.c.r 3 3 3 3 3 t P O.-.j     h @.@.&.-.-.-.-.-.-.@.5 3 3 3 3 3 3 3 r z.(.(.(.(.(.(.(.(.(.(.(.(.(.(.(.(.(.",
"(.(.(.(.(.(.(.(.(.(.(.(.R.K 3 3 3 3 3 3 y e y -.@.< . O O ; ) @.-.-.-.%.6 3 3 3 3 3 3 3 3 K R.(.(.(.(.(.(.(.(.(.(.(.(.(.(.(.(.(.",
"(.(.(.(.(.(.(.(.(.(.(.(.(.m.s 3 3 3 3 3 3 w 9 T -.-.-.-.-.-.-.-.-.*.$.7 3 3 3 3 3 3 3 3 K D.(.(.(.(.(.(.(.(.(.(.(.(.(.(.(.(.(.(.",
"(.(.(.(.(.(.(.(.(.(.(.(.(.(.j.9 3 3 3 3 3 3 4 9 p *.-.-.-.-.-.%.#.T 3 3 3 3 3 3 3 3 9 K K.(.(.(.(.(.(.(.(.(.(.(.(.(.(.(.(.(.(.(.",
"(.(.(.(.(.(.(.(.(.(.(.(.(.(.T.h.9 3 3 3 3 3 3 3 9 t Y { | #.#.E 9 3 3 3 3 3 3 3 3 s j.R.(.(.(.(.(.(.(.(.(.(.(.(.(.(.(.(.(.(.(.(.",
"(.(.(.(.(.(.(.(.(.(.(.(.(.(.(.T.h.i 3 3 3 3 3 3 3 3 e y t 4 3 3 3 3 3 3 3 3 3 i K B.(.(.(.(.(.(.(.(.(.(.(.(.(.(.(.(.(.(.(.(.(.(.",
"(.(.(.(.(.(.(.(.(.(.(.(.(.(.(.(.(.c.c 8 3 3 3 3 3 3 3 3 3 3 3 3 3 3 3 3 3 r K b.T.(.(.(.(.(.(.(.(.(.(.(.(.(.(.(.(.(.(.(.(.(.(.(.",
"(.(.(.(.(.(.(.(.(.(.(.(.(.(.(.(.(.(.F.k.c i 3 3 3 3 3 3 3 3 3 3 3 3 0 z K n.T.(.(.(.(.(.(.(.(.(.(.(.(.(.(.(.(.(.(.(.(.(.(.(.(.(.",
"(.(.(.(.(.(.(.(.(.(.(.(.(.(.(.(.(.(.(.(.K.n.H c x a i 0 r i s c K H b.D.(.(.(.(.(.(.(.(.(.(.(.(.(.(.(.(.(.(.(.(.(.(.(.(.(.(.(.(.",
"(.(.(.(.(.(.(.(.(.(.(.(.(.(.(.(.(.(.(.(.(.(.(.R.S.V.m.n.n.N.Z.P.(.(.(.(.(.(.(.(.(.(.(.(.(.(.(.(.(.(.(.(.(.(.(.(.(.(.(.(.(.(.(.(.",
"(.(.(.(.(.(.(.(.(.(.(.(.(.(.(.(.(.(.(.(.(.(.(.(.(.(.(.(.(.(.(.(.(.(.(.(.(.(.(.(.(.(.(.(.(.(.(.(.(.(.(.(.(.(.(.(.(.(.(.(.(.(.(.(.",
"(.(.(.(.(.(.(.(.(.(.(.(.(.(.(.(.(.(.(.(.(.(.(.(.(.(.(.(.(.(.(.(.(.(.(.(.(.(.(.(.(.(.(.(.(.(.(.(.(.(.(.(.(.(.(.(.(.(.(.(.(.(.(.(.",
"(.(.(.(.(.(.(.(.(.(.(.(.(.(.(.(.(.(.(.(.(.(.(.(.(.(.(.(.(.(.(.(.(.(.(.(.(.(.(.(.(.(.(.(.(.(.(.(.(.(.(.(.(.(.(.(.(.(.(.(.(.(.(.(.",
"(.(.(.(.(.(.(.(.(.(.(.(.(.(.(.(.(.(.(.(.(.(.(.(.(.(.(.(.(.(.(.(.(.(.(.(.(.(.(.(.(.(.(.(.(.(.(.(.(.(.(.(.(.(.(.(.(.(.(.(.(.(.(.(.",
"(.(.(.(.(.(.(.(.(.(.(.(.(.(.(.(.(.(.(.(.(.(.(.(.(.(.(.(.(.(.(.(.(.(.(.(.(.(.(.(.(.(.(.(.(.(.(.(.(.(.(.(.(.(.(.(.(.(.(.(.(.(.(.(."
};
