/* XPM */
static char *c1b29a370ead402aa1d6494d0985c188tBmtBZNcpGc7lqmU[] = {
/* columns rows colors chars-per-pixel */
"64 64 189 2 ",
"   c #0C2166",
".  c #0D2267",
"X  c #0E2468",
"o  c #0F2468",
"O  c #12266A",
"+  c #13276A",
"@  c #10286B",
"#  c #11296C",
"$  c #10286D",
"%  c #112A6D",
"&  c #132B6F",
"*  c #163172",
"=  c #163073",
"-  c #173475",
";  c #173576",
":  c #183675",
">  c #183576",
",  c #183676",
"<  c #193777",
"1  c #193877",
"2  c #1A3878",
"3  c #1A3879",
"4  c #1B3A79",
"5  c #1D3F7D",
"6  c #1E3F7D",
"7  c #1F4180",
"8  c #1F4280",
"9  c #204280",
"0  c #204380",
"q  c #204480",
"w  c #214482",
"e  c #214582",
"r  c #214682",
"t  c #214783",
"y  c #224783",
"u  c #234884",
"i  c #234985",
"p  c #244A85",
"a  c #254B86",
"s  c #244B87",
"d  c #264C88",
"f  c #264D88",
"g  c #264E89",
"h  c #274F8A",
"j  c #2B5087",
"k  c #28508A",
"l  c #28518B",
"z  c #29528C",
"x  c #28538D",
"c  c #29558D",
"v  c #2B548E",
"b  c #2B558E",
"n  c #2B558F",
"m  c #2B568F",
"M  c #2C5790",
"N  c #2C5990",
"B  c #2C5891",
"V  c #2D5991",
"C  c #2D5992",
"Z  c #2D5A92",
"A  c #2D5B92",
"S  c #2D5B93",
"D  c #2E5B93",
"F  c #2E5B94",
"G  c #2F5C94",
"H  c #2F5D95",
"J  c #305E95",
"K  c #305F95",
"L  c #305E96",
"P  c #305F96",
"I  c #315F97",
"U  c #306097",
"Y  c #316097",
"T  c #316198",
"R  c #326298",
"E  c #326399",
"W  c #336399",
"Q  c #34649A",
"!  c #34659A",
"~  c #34659B",
"^  c #34669B",
"/  c #35669B",
"(  c #35679C",
")  c #35679D",
"_  c #36689D",
"`  c #36699D",
"'  c #36689E",
"]  c #36699E",
"[  c #37699E",
"{  c #36699F",
"}  c #376A9F",
"|  c #376B9F",
" . c #376AA0",
".. c #386CA0",
"X. c #386DA0",
"o. c #386DA1",
"O. c #396DA1",
"+. c #396EA2",
"@. c #3A70A3",
"#. c #3A71A3",
"$. c #3A70A4",
"%. c #3B72A4",
"&. c #3B72A5",
"*. c #3C73A5",
"=. c #3D74A6",
"-. c #3D75A7",
";. c #3E76A8",
":. c #3F77A8",
">. c #3F77A9",
",. c #3F78A8",
"<. c #3F78AA",
"1. c #4079AA",
"2. c #4078AB",
"3. c #407AAA",
"4. c #407AAB",
"5. c #417AAB",
"6. c #407BAB",
"7. c #417BAC",
"8. c #417DAC",
"9. c #417CAD",
"0. c #427DAD",
"q. c #427EAE",
"w. c #437EAE",
"e. c #437FAE",
"r. c #437EAF",
"t. c #437FAF",
"y. c #447FB0",
"u. c #3F9CBF",
"i. c #4480B0",
"p. c #4481B0",
"a. c #4481B1",
"s. c #4582B1",
"d. c #4684B2",
"f. c #4684B3",
"g. c #4786B4",
"h. c #4886B4",
"j. c #4888B5",
"k. c #4888B6",
"l. c #4989B6",
"z. c #4989B7",
"x. c #4A8AB7",
"c. c #478FBA",
"v. c #4A8BB8",
"b. c #498CB8",
"n. c #4A8CB8",
"m. c #4692BB",
"M. c #4395BD",
"N. c #4297BD",
"B. c #4495BC",
"V. c #4298BD",
"C. c #4198BE",
"Z. c #4298BE",
"A. c #419ABE",
"S. c #409BBF",
"D. c #3E9DC0",
"F. c #3F9DC0",
"G. c #3E9EC0",
"H. c #3BA2C2",
"J. c #3CA0C1",
"K. c #3CA2C2",
"L. c #39A5C3",
"P. c #36AAC6",
"I. c #33AFC7",
"U. c #35ACC6",
"Y. c #2FB6CA",
"T. c #2EB7CB",
"R. c #2EB8CB",
"E. c #1BD5D8",
"W. c #1AD6D8",
"Q. c #1BD6D8",
"!. c #17DBDA",
"~. c #16DCDB",
"^. c #17DCDB",
"/. c #15DFDC",
"(. c #19D8D9",
"). c #18D9DA",
"_. c #18DADA",
"`. c #23C7D2",
"'. c #25C4D1",
"]. c #13E1DD",
"[. c #12E3DE",
"{. c #10E6DF",
"}. c #00FFEA",
"|. c #F8F9FB",
" X c #FBFCFD",
".X c #FCFCFD",
"XX c #FDFDFE",
"oX c #FEFEFE",
"OX c white",
/* pixels */
"OXOXOXOXOXOXOXOXOXOXOXOXOXOXOXOXOXOXOXOXOXOXOXOXOXOXOXOXOXOXOXOXOXOXOXOXOXOXOXOXOXOXOXOXOXOXOXOXOXOXOXOXOXOXOXOXOXOXOXOXOXOXOXOX",
"OXOXOXOXOXOXOXOXOXOXOXOXOXOXOXOXOXOXOXOXOXOXOXOXOXOXOXOXOXOXOXOXOXOXOXOXOXOXOXOXOXOXOXOXOXOX  OXOXOXOXOXOXOXOXOXOXOXOXOXOXOXOXOX",
"OXOXOXOXOXOXOXOXOXOXOXOXOXOXOXOXOXOXOXOXOXOXOXOXOXOXOXOXOXOXOXOXOXOXOXOXOXOXOXOXOXOXOXOXOX  OXOXOXOXOXOXOXOXOXOXOXOXOXOXOXOXOXOX",
"OXOXOXOXOXOXOX        OXOXOXOXOXOXOXOXOXOXOXOXOXOXOXOXOXOXOXOXOXOXOXOXOXOXOXOXOXOXOXOXOX    OXOXOXOXOXOXOXOXOXOXOXOXOXOXOXOXOXOX",
"OXOXOXOXOXOXOXOX            OXOXOXOXOXOXOXOXOXOXOXOXOXOXOXOXOXOXOXOXOXOXOXOXOXOXOXOXOXOX      OXOXOXOXOXOXOXOXOXOXOXOXOXOXOXOXOX",
"OXOXOXOXOXOXOXOXOX                OXOXOXOXOXOXOXOXOXOXOXOXOXOXOXOXOXOXOXOXOXOXOXOXOXOXOX      OXOXOXOXOXOXOXOXOXOXOXOXOXOXOXOXOX",
"OXOXOXOXOXOXOXOXOXOXOX                OXOXOXOXOXOXOXOXOXOXOXOXOXOXOXOXOXOXOXOXOXOXOXOXOX      OXOXOXOXOXOXOXOXOXOXOXOXOXOXOXOXOX",
"OXOXOXOXOXOXOXOXOXOXOX                  OXOXOXOXOXOXOXOXOXOXOXOXOXOXOXOXOXOXOXOXOXOXOXOXOX      OXOXOXOXOXOXOXOXOXOXOXOXOXOXOXOX",
"OXOXOXOXOXOXOXOXOXOXOXOX                    OXOXOXOXOXOXOXOXOXOXOXOXOXOXOXOXOXOXOXOXOXOXOX      OXOXOXOXOXOXOXOXOXOXOXOXOXOXOXOX",
"OXOXOXOXOXOXOXOXOXOXOXOXOX        X @   +     OXOXOXOXOXOXOXOXOXOXOXOXOXOXOXOXOXOXOXOXOXOX      OXOXOXOXOXOXOXOXOXOXOXOXOXOXOXOX",
"OXOXOXOXOXOXOXOXOXOXOXOXOXOX      g } ,         OXOXOXOXOXOXOXOXOXOXOXOXOXOXOXOXOXOXOXOX        OXOXOXOXOXOXOXOXOXOXOXOXOXOXOXOX",
"OXOXOXOXOXOXOXOXOXOXOXOXOXOXOX      / ,.,         OXOXOXOXOXOXOXOXOXOXOXOXOXOXOXOXOXOXOX        OXOXOXOXOXOXOXOXOXOXOXOXOXOXOXOX",
"OXOXOXOXOXOXOXOXOXOXOXOXOXOXOXOX      :.r.#         OXOXOXOXOXOXOXOXOXOXOXOXOXOXOXOXOXOX          OXOXOXOXOXOXOXOXOXOXOXOXOXOXOX",
"OXOXOXOXOXOXOXOXOXOXOXOXOXOXOXOXOX      r.r.;         OXOXOXOXOXOXOXOXOXOXOXOXOXOXOXOXOX          OXOXOXOXOXOXOXOXOXOXOXOXOXOXOX",
"OXOXOXOXOXOXOXOXOXOXOXOXOXOXOXOXOX    + # h.r.#       OXOXOXOXOXOXOXOXOXOXOXOXOXOXOXOX            OXOXOXOXOXOXOXOXOXOXOXOXOXOXOX",
"OXOXOXOXOXOXOXOXOXOXOXOXOXOXOXOXOXOX      :.j.e       OXOXOXOXOXOXOXOXOXOXOXOXOXOXOX X          OXOXOXOXOXOXOXOXOXOXOXOXOXOXOXOX",
"OXOXOXOXOXOXOXOXOXOXOXOXOXOXOXOXOXOX      4.$.l       OXOXOXOXOXOXOXOXOXOXOXOXOXOXOX            OXOXOXOXOXOXOXOXOXOXOXOXOXOXOXOX",
"OXOXOXOXOXOXOXOXOXOXOXOXOXOXOXOXOXOXOX    4.A g       OXOXOXOXOXOXOXOXOXOXOXOXOXOX              OXOXOXOXOXOXOXOXOXOXOXOXOXOXOXOX",
"OXOXOXOXOXOXOXOXOXOXOXOXOXOXOXOXOXOX|.  # m Y =     OXOXOXOXOXOXOXOXOXOXOXOXOXOXOX            OXOXOXOXOXOXOXOXOXOXOXOXOXOXOXOXOX",
"OXOXOXOXOXOXOXOXOXOXOXOXOXOXOXOXOXOX    2 o.=       OXOXOXOXOXOXOXOXOXOXOXOXOXOX              OXOXOXOXOXOXOXOXOXOXOXOXOXOXOXOXOX",
"OXOXOXOXOXOXOXOXOXOXOXOXOXOXOXOXOXOX    e 9       OXOXOXOXOXOXOXOXOXOXOXOXOXOX              OXOXOXOXOXOXOXOXOXOXOXOXOXOXOXOXOXOX",
"OXOXOXOXOXOXOXOXOXOXOXOXOXOXOXOXOXOX    #       OXOXOXOXOXOXOXOXOXOXOXOXOXOX                OXOXOXOXOXOXOXOXOXOXOXOXOXOXOXOXOXOX",
"OXOXOXOXOXOXOXOXOXOXOXOXOXOXOXOXOX      +     OXOXOXOXOXOXOXOXOXOXOXOXOXOX                OXOXOXOXOXOXOXOXOXOXOXOXOXOXOXOXOXOXOX",
"OXOXOXOXOXOXOXOXOXOXOXOXOXOXOXOXOX          OXOXOXOXOXOXOXOXOXOXOXOXOX          5         OXOXOXOXOXOXOXOXOXOXOXOXOXOXOXOXOXOXOX",
"OXOXOXOXOXOXOXOXOXOXOXOXOXOXOXOX        OXOXOX                                9 e i       OXOXOXOXOXOXOXOXOXOXOXOXOXOXOXOXOXOXOX",
"OXOXOXOXOXOXOXOXOXOXOXOXOXOXOXOX    OXOX                                    , j e       OXOXOXOXOXOXOXOXOXOXOXOXOXOXOXOXOXOXOXOX",
"OXOXOXOXOXOXOXOXOXOXOXOXOXOXOXOXOXOXOX                                  ; 7 o.4.e       OXOXOXOXOXOXOXOXOXOXOXOXOXOXOXOXOXOXOXOX",
"OXOXOXOXOXOXOXOXOXOXOXOXOXOXOXOXOX                                    1 } v.v.z ,       OXOXOXOXOXOXOXOXOXOXOXOXOXOXOXOXOXOXOXOX",
"OXOXOXOXOXOXOXOXOXOXOXOXOXOXOXOX                            i g g m m v.v.v.j.2         OXOXOXOXOXOXOXOXOXOXOXOXOXOXOXOXOXOXOXOX",
"OXOXOXOXOXOXOXOXOXOXOXOXOXOXOX    X                   s m ) 4.r.v.v.v.v.v.j.o.2         OXOXOXOXOXOXOXOXOXOXOXOXOXOXOXOXOXOXOXOX",
"OXOXOXOXOXOXOXOXOXOXOXOXOXOX                    2 s Y r.v.v.v.v.v.v.v.v.v.a.M ,         OXOXOXOXOXOXOXOXOXOXOXOXOXOXOXOXOXOXOXOX",
"OXOXOXOXOXOXOXOXOXOXOXOXOX                  2 e J 7.v.v.v.v.v.v.v.v.v.v.v.v.r.1         OXOXOXOXOXOXOXOXOXOXOXOXOXOXOXOXOXOXOXOX",
"OXOXOXOXOXOXOXOXOXOXOXOXOX                5 g #.v.v.v.v.v.v.v.v.v.v.v.v.v.j.m 2         OXOXOXOXOXOXOXOXOXOXOXOXOXOXOXOXOXOXOXOX",
"OXOXOXOXOXOXOXOXOXOXOXOX                7 A r.v.v.v.v.v.v.v.v.v.v.v.v.v.v.v.} 9          XOXOXOXOXOXOXOXOXOXOXOXOXOXOXOXOXOXOXOX",
"OXOXOXOXOXOXOXOXOXOXOXOX              9 / g.v.v.v.v.v.v.v.v.v.v.v.v.v.v.v.v.f.l           OXOXOXOXOXOXOXOXOXOXOXOXOXOXOXOXOXOXOX",
"OXOXOXOXOXOXOXOXOXOXOX              s #.v.v.v.v.v.v.v.v.v.v.v.v.v.v.v.v.v.v.f.A           OXOXOXOXOXOXOXOXOXOXOXOXOXOXOXOXOXOXOX",
"OXOXOXOXOXOXOXOXOXOXOX            5 :.v.v.v.v.v.v.v.v.v.v.v.v.v.v.v.v.v.v.v.a.E i         OXOXOXOXOXOXOXOXOXOXOXOXOXOXOXOXOXOXOX",
"OXOXOXOXOXOXOXOXOXOXOX            r.v.v.v.v.v.v.v.Y.C.v.v.v.v.v.v.v.v.v.v.v.4.E J         OXOXOXOXOXOXOXOXOXOXOXOXOXOXOXOXOXOXOX",
"OXOXOXOXOXOXOXOXOXOX            J v.v.v.v.v.v.L.G.m.v.G.`.P.v.v.v.v.v.v.v.v.-.) A           OXOXOXOXOXOXOXOXOXOXOXOXOXOXOXOXOXOX",
"OXOXOXOXOXOXOXOXOXOX            j.v.v.v.v.v.v.B.C.v.(.(.E.!.J.C.v.v.v.v.v.v.o.o.A           OXOXOXOXOXOXOXOXOXOXOXOXOXOXOXOXOXOX",
"OXOXOXOXOXOXOXOXOXOX            / v.v.v.v.v.v.v.J.E.}.}.}.}.].'.u.v.v.v.v.v.} $.M           OXOXOXOXOXOXOXOXOXOXOXOXOXOXOXOXOXOX",
"OXOXOXOXOXOXOXOXOXOX            v.v.v.v.v.v.v.c.(.}.}.}.}.}.}.^.G.v.v.v.v.v.v.:.A             OXOXOXOXOXOXOXOXOXOXOXOXOXOXOXOXOX",
"OXOXOXOXOXOXOXOXOXOX            j.v.v.v.v.v.v.C./.}.}.}.}.}.}.}.^.v.v.v.v.v.v.:.Y             OXOXOXOXOXOXOXOXOXOXOXOXOXOXOXOXOX",
"OXOXOXOXOXOXOXOXOXOX            / v.v.v.v.v.Y.B.E.}.}.}.}.}.}.}.^.v.v.v.v.v.v.$.z             OXOXOXOXOXOXOXOXOXOXOXOXOXOXOXOXOX",
"OXOXOXOXOXOXOXOXOXOX            m a.v.v.v.v.N.N.].}.}.}.}.}.}.E.v.v.v.v.v.v.v.J               OXOXOXOXOXOXOXOXOXOXOXOXOXOXOXOXOX",
"OXOXOXOXOXOXOXOXOXOX              } r.v.v.v.v.v.C.E.}.}.}.}.].H.v.v.v.v.v.v.v.E                 OXOXOXOXOXOXOXOXOXOXOXOXOXOXOXOX",
"OXOXOXOXOXOXOXOXOXOX              4.Y v.v.v.v.v.v.v.E.E.(.{.v.v.v.v.v.v.v.v.m y.                OXOXOXOXOXOXOXOXOXOXOXOXOXOXOXOX",
"OXOXOXOXOXOXOXOXOXOXOX              G $.v.v.v.v.v.v.U.R.I.C.v.v.v.v.v.v.v.e ,.                OXOXOXOXOXOXOXOXOXOXOXOXOXOXOXOXOX",
"OXOXOXOXOXOXOXOXOXOXOX                g j.v.v.v.v.v.n.v.n.v.v.v.v.v.v.v.A /                   OXOXOXOXOXOXOXOXOXOXOXOXOXOXOXOXOX",
"OXOXOXOXOXOXOXOXOXOXOX                  g 4.v.v.v.v.v.v.v.v.v.v.v.v.a.} }                   OXOXOXOXOXOXOXOXOXOXOXOXOXOXOXOXOXOX",
"OXOXOXOXOXOXOXOXOXOXOXOX                  F } v.v.v.v.v.v.v.v.v.a.*.) G                     OXOXOXOXOXOXOXOXOXOXOXOXOXOXOXOXOXOX",
"OXOXOXOXOXOXOXOXOXOXOXOXOX                   ./ 7.j.v.j.r.-.o.E } A                       OXOXOXOXOXOXOXOXOXOXOXOXOXOXOXOXOXOXOX",
"OXOXOXOXOXOXOXOXOXOXOXOXOXOX                  m E J J A J } A                         OXOXOXOXOXOXOXOXOXOXOXOXOXOXOXOXOXOXOXOXOX",
"OXOXOXOXOXOXOXOXOXOXOXOXOXOXOX                                                      OXOXOXOXOXOXOXOXOXOXOXOXOXOXOXOXOXOXOXOXOXOX",
"OXOXOXOXOXOXOXOXOXOXOXOXOXOXOXOX                                          X       OXOXOXOXOXOXOXOXOXOXOXOXOXOXOXOXOXOXOXOXOXOXOX",
"OXOXOXOXOXOXOXOXOXOXOXOXOXOXOXOXOX                                            OXOXOXOXOXOXOXOXOXOXOXOXOXOXOXOXOXOXOXOXOXOXOXOXOX",
"OXOXOXOXOXOXOXOXOXOXOXOXOXOXOXOXOXOXOX                                    OXOXOXOXOXOXOXOXOXOXOXOXOXOXOXOXOXOXOXOXOXOXOXOXOXOXOX",
"OXOXOXOXOXOXOXOXOXOXOXOXOXOXOXOXOXOXOXOXOXOX                          OXOXOXOXOXOXOXOXOXOXOXOXOXOXOXOXOXOXOXOXOXOXOXOXOXOXOXOXOX",
"OXOXOXOXOXOXOXOXOXOXOXOXOXOXOXOXOXOXOXOXOXOXOXOXOXOXOX       XOXOXOXOXOXOXOXOXOXOXOXOXOXOXOXOXOXOXOXOXOXOXOXOXOXOXOXOXOXOXOXOXOX",
"OXOXOXOXOXOXOXOXOXOXOXOXOXOXOXOXOXOXOXOXOXOXOXOXOXOXOXOXOXOXOXOXOXOXOXOXOXOXOXOXOXOXOXOXOXOXOXOXOXOXOXOXOXOXOXOXOXOXOXOXOXOXOXOX",
"OXOXOXOXOXOXOXOXOXOXOXOXOXOXOXOXOXOXOXOXOXOXOXOXOXOXOXOXOXOXOXOXOXOXOXOXOXOXOXOXOXOXOXOXOXOXOXOXOXOXOXOXOXOXOXOXOXOXOXOXOXOXOXOX",
"OXOXOXOXOXOXOXOXOXOXOXOXOXOXOXOXOXOXOXOXOXOXOXOXOXOXOXOXOXOXOXOXOXOXOXOXOXOXOXOXOXOXOXOXOXOXOXOXOXOXOXOXOXOXOXOXOXOXOXOXOXOXOXOX",
"OXOXOXOXOXOXOXOXOXOXOXOXOXOXOXOXOXOXOXOXOXOXOXOXOXOXOXOXOXOXOXOXOXOXOXOXOXOXOXOXOXOXOXOXOXOXOXOXOXOXOXOXOXOXOXOXOXOXOXOXOXOXOXOX",
"OXOXOXOXOXOXOXOXOXOXOXOXOXOXOXOXOXOXOXOXOXOXOXOXOXOXOXOXOXOXOXOXOXOXOXOXOXOXOXOXOXOXOXOXOXOXOXOXOXOXOXOXOXOXOXOXOXOXOXOXOXOXOXOX"
};
