/* XPM */
static char *_f4e2f655a6f4389875b4df84b75ddf9LGFKDzMGV0HATepw[] = {
/* columns rows colors chars-per-pixel */
"64 64 141 2 ",
"   c #050300",
".  c #090600",
"X  c #0C0902",
"o  c #0E0C09",
"O  c #130D00",
"+  c #1D1300",
"@  c #191816",
"#  c #221600",
"$  c #261800",
"%  c #2C1D00",
"&  c #342300",
"*  c #3F2A00",
"=  c #66160C",
"-  c #67180E",
";  c #6C1C0C",
":  c #6A1C13",
">  c #432D00",
",  c #4B3200",
"<  c #513600",
"1  c #5B3B01",
"2  c #74230B",
"3  c #78270B",
"4  c #7B2B0A",
"5  c #6D2117",
"6  c #6E2319",
"7  c #71271E",
"8  c #72281F",
"9  c #752C23",
"0  c #773027",
"q  c #773128",
"w  c #79332A",
"e  c #7C382F",
"r  c #7E3A31",
"t  c #6A4500",
"y  c #4A4947",
"u  c #4F4E4E",
"i  c #7C7B7B",
"p  c #83320A",
"a  c #883709",
"s  c #8D3B09",
"d  c #803D35",
"f  c #9C4F07",
"g  c #954308",
"h  c #984708",
"j  c #9E4C08",
"k  c #835601",
"l  c #855801",
"z  c #8C5D00",
"x  c #945903",
"c  c #A65407",
"v  c #A95707",
"b  c #AD5B06",
"n  c #B25F06",
"m  c #926100",
"M  c #996600",
"N  c #9F6901",
"B  c #B36106",
"V  c #B96606",
"C  c #BE6C05",
"Z  c #A97100",
"A  c #B37700",
"S  c #B87900",
"D  c #85453D",
"F  c #C16E05",
"G  c #C67304",
"H  c #C97604",
"J  c #CE7B04",
"K  c #D27E04",
"L  c #874840",
"P  c #8F544D",
"I  c #935B53",
"U  c #9E6C66",
"Y  c #A3736D",
"T  c #A57670",
"R  c #A77973",
"E  c #CA8301",
"W  c #CD8900",
"Q  c #D58203",
"!  c #DA8603",
"~  c #DD8B02",
"^  c #DD9300",
"/  c #E28E02",
"(  c #E59202",
")  c #EA9502",
"_  c #ED9B01",
"`  c #F29D01",
"'  c #F5A101",
"]  c #FAA500",
"[  c #FFAA00",
"{  c #FFB400",
"}  c #FFBC00",
"|  c #FFC100",
" . c #FFCB00",
".. c #FFD300",
"X. c #888783",
"o. c #989898",
"O. c #B38B86",
"+. c #B99590",
"@. c #BD9A95",
"#. c #BF9D99",
"$. c #A5A4A2",
"%. c #C09F9B",
"&. c #C2A29E",
"*. c #C4A5A2",
"=. c #C7A9A5",
"-. c #C8ABA7",
";. c #CAAEAA",
":. c #CCB1AE",
">. c #CEB4B1",
",. c #D0B7B4",
"<. c #D1BAB7",
"1. c #D4BDBA",
"2. c #D7C1BE",
"3. c #D9C5C3",
"4. c #DCC9C7",
"5. c #DECDCB",
"6. c #E0CFCD",
"7. c #E3D4D2",
"8. c #E6D9D7",
"9. c #E7DAD9",
"0. c #E9DDDC",
"q. c #EBE0DF",
"w. c #EEE4E3",
"e. c #EEEDEC",
"r. c #F0E8E7",
"t. c #F5EFEF",
"y. c #F2ECEB",
"u. c #F6F1F1",
"i. c #F7F2F2",
"p. c #F7F3F3",
"a. c #F6F2F2",
"s. c #F8F4F4",
"d. c #F8F5F5",
"f. c #F9F6F5",
"g. c #FBF9F8",
"h. c #FBFAF9",
"j. c #FCFAFA",
"k. c #FDFBFB",
"l. c #FEFDFD",
"z. c white",
"x. c #FFFFFF",
/* pixels */
"z.z.z.z.z.z.z.z.z.z.z.z.z.z.z.y.1.#.;.7.z.z.z.z.z.z.z.z.z.z.z.z.z.z.z.z.z.z.z.z.z.z.z.z.z.z.z.z.z.z.z.z.z.z.z.z.z.z.z.z.z.z.z.z.",
"z.z.z.z.z.z.z.z.z.z.z.z.z.z.z.z.z.h.0.>.@.0.z.z.z.z.z.z.z.z.z.z.z.z.z.z.z.z.z.z.z.z.z.z.z.z.z.z.z.z.z.k.2.9.z.z.z.z.z.z.z.z.z.z.",
"z.z.z.z.z.z.z.z.z.z.z.z.z.z.z.z.z.z.z.z.0.I 7.z.z.z.z.z.z.z.z.z.z.z.z.z.z.z.z.z.z.z.z.z.z.z.z.z.z.z.8.L r &.z.z.z.z.z.z.z.z.z.z.",
"z.z.z.z.z.z.z.z.z.z.z.z.z.z.z.z.z.z.z.t.7.7 U d.z.z.z.z.z.z.z.z.z.z.z.z.z.z.z.z.z.z.z.z.z.z.z.z.z.2.D = = D z.z.z.z.z.z.z.z.z.z.",
"z.z.z.z.z.z.z.z.z.z.z.z.z.z.z.z.z.z.z.z.5.9 w >.z.z.z.z.z.z.z.z.z.z.z.z.z.z.z.z.z.z.z.z.z.z.z.z.:.d = = = D z.z.z.z.z.z.z.z.z.z.",
"z.z.z.z.z.z.z.z.z.z.z.z.z.z.z.z.z.z.z.z.t.P - R z.z.z.z.z.z.z.z.z.z.z.z.z.z.z.z.z.z.z.z.z.z.d.-.r = = = = D z.z.z.z.z.z.z.z.z.z.",
"z.z.z.z.z.z.z.z.z.z.z.z.z.z.z.z.z.z.z.z.z.#.: 9 4.z.z.z.z.z.z.z.z.z.z.z.z.z.z.z.z.z.z.z.z.y.&.0 = = = = : ;.z.z.z.z.z.z.z.z.z.z.",
"z.z.z.z.z.z.z.z.z.z.z.z.z.z.z.z.z.z.z.z.z.<.d = @.z.z.z.z.z.z.z.z.z.z.z.z.z.z.z.z.z.z.z.7.D 6 = = = = = r 4.z.z.z.z.z.z.z.z.z.z.",
"z.z.z.z.z.z.z.z.z.z.z.z.z.z.z.z.z.z.z.z.z.6.w = d z.z.z.z.z.z.z.z.z.z.z.z.z.z.z.z.z.w.1.D = = 3 = = = = D t.z.z.z.z.z.z.z.z.z.z.",
"z.z.z.z.z.z.z.z.z.z.z.z.z.z.z.z.z.z.z.z.z.w.D = r 0.z.z.z.z.z.z.z.z.z.z.z.z.z.z.z.4.O.r = = h ) F = = 7 ;.z.z.z.z.z.z.z.z.z.z.z.",
"z.z.z.z.z.z.z.z.z.z.z.z.z.z.z.z.z.z.z.z.z.u.D = w 2.z.z.z.z.z.z.z.z.z.z.z.z.z.z.w.O.7 = ; h Q ' J = = D y.z.z.z.z.z.z.z.z.z.z.z.",
"z.z.z.z.z.z.z.z.z.z.z.z.z.z.z.z.z.z.z.z.z.u.D = : ;.z.z.z.z.z.z.z.z.z.z.z.z.z.z.=.7 = = h ' ( J 3 = d 1.z.z.z.z.z.z.z.z.z.z.z.z.",
"z.z.z.z.z.z.z.z.z.z.z.z.z.z.z.z.z.z.z.z.z.w.D = = D z.z.z.z.z.z.z.z.z.z.z.z.t.&.q = = = 3 v h 3 = e :.z.z.z.z.z.z.z.z.z.z.z.z.z.",
"z.z.z.z.z.z.z.z.z.z.z.z.z.z.z.z.z.z.z.z.z.5.r = = D z.z.z.z.z.z.z.z.z.z.z.w.%.9 = = = = = = = = r =.z.z.z.z.z.z.z.z.z.z.z.z.z.z.",
"z.z.z.z.z.z.z.z.z.z.z.z.z.z.z.z.z.z.z.z.z.=.: = = D z.z.z.z.z.z.z.z.z.z.7.@.: = = = = = = = 9 D 1.z.z.z.z.z.z.z.z.z.z.z.z.z.z.z.",
"z.z.z.z.z.z.z.z.z.z.z.z.z.z.z.z.z.z.z.z.t.D = = = D z.z.z.z.z.z.z.z.z.z.+.: = = = - 5 0 D D >.w.z.z.z.z.z.z.z.z.z.z.z.z.z.z.z.z.",
"z.z.z.z.z.z.z.z.z.z.z.z.z.z.z.z.z.z.z.z.2.w = = = D u.z.z.z.z.z.z.z.z.z.1.&.D D D -.>.3.9.h.z.z.z.z.z.z.z.z.z.z.z.z.z.z.z.z.z.z.",
"z.z.z.z.z.z.z.z.z.z.z.z.z.z.z.z.z.z.z.h.L = = = = D 9.z.z.z.z.z.z.z.z.z.z.z.z.z.z.z.z.z.z.z.z.z.z.z.z.z.z.z.z.z.z.z.z.z.z.z.z.z.",
"z.z.z.z.z.z.z.z.z.z.z.z.z.z.z.z.z.z.z.:.9 = = = = w 1.z.z.z.z.z.z.z.z.z.z.z.z.z.z.z.z.z.z.z.z.z.z.z.z.z.z.z.z.z.z.z.z.z.z.z.z.z.",
"z.z.z.z.z.z.z.z.z.z.z.z.z.z.z.z.z.z.w.D = = = = = = D z.z.z.z.z.z.z.z.z.z.z.z.z.z.z.z.z.z.z.z.z.z.z.z.z.z.z.z.z.z.z.z.z.z.z.z.z.",
"z.z.z.z.z.z.z.z.z.z.z.z.z.z.z.z.z.z.*.6 = = = = = = D r.z.z.z.z.z.z.z.z.z.z.z.z.z.z.z.z.z.z.z.z.z.z.z.z.z.z.z.z.z.z.z.z.z.z.z.z.",
"z.z.z.z.z.z.z.z.z.z.z.z.z.z.z.z.z.5.D = = = s g = = 9 ;.z.z.z.z.z.z.z.z.z.z.z.z.z.z.z.z.z.z.z.z.z.z.z.z.z.z.z.z.z.z.z.z.z.z.z.z.",
"z.z.z.z.z.z.z.z.z.z.z.z.z.z.z.z.d.D = = = - ! / 3 = = D 7.z.z.z.z.z.z.z.z.z.z.z.z.z.z.z.z.z.z.z.z.z.z.z.z.z.z.z.z.z.z.z.z.z.z.z.",
"z.z.z.z.z.z.z.z.z.z.z.z.z.z.z.z.:.q = = = s ] ' p = = = L y.z.z.z.z.z.z.z.z.z.z.z.z.z.z.z.z.z.z.z.z.z.z.z.z.z.z.z.z.z.z.z.z.z.z.",
"z.z.z.z.z.z.z.z.z.z.z.z.z.z.z.q.D = = = = K [ ] g = = = 6 #.t.z.z.z.z.z.z.z.z.z.z.z.z.z.z.z.z.z.z.z.z.z.z.z.z.z.z.z.z.z.z.z.z.z.",
"z.z.z.z.z.z.z.z.z.z.z.z.z.z.z.*.5 = = = = ) [ [ g = = = = 8 @.y.z.z.z.z.z.z.z.z.z.z.z.y.*.4.z.z.z.z.z.z.z.z.z.z.z.z.z.z.z.z.z.z.",
"z.z.z.z.z.z.z.z.z.z.z.z.z.z.9.D = = = = = ) [ [ n = = = = = 6 D 3.k.z.z.z.z.z.z.z.z.7.Y R 7.z.z.z.z.z.z.z.z.z.z.z.z.z.z.z.z.z.z.",
"z.z.z.z.z.z.z.z.z.z.z.z.z.z.*.: = = = = = ) [ [ Q = = = = = = = r D ;.6.d.z.z.z.0.;.8 7 T z.z.z.z.z.z.z.z.z.z.z.z.z.z.z.z.z.z.z.",
"z.z.z.z.z.z.z.z.z.z.z.z.z.w.D = = = = = = G [ [ ) 2 = = = = = = = = 6 d D D D D D : = : ,.z.z.z.z.z.z.z.z.z.z.z.z.z.z.z.z.z.z.z.",
"z.z.z.z.z.z.z.z.z.z.z.z.z.<.9 = = = = = = n [ [ ' h = = = = = = = = = = = = = = = = = d w.z.z.z.z.z.z.z.z.z.z.z.z.z.z.z.z.z.z.z.",
"z.z.z.z.z.z.z.z.z.z.z.z.z.D = = = = = = = B [ [ ' H = = = = = = = = = = = = = v j = = D z.z.z.z.z.z.z.z.z.z.z.z.z.z.z.z.z.z.z.z.",
"z.z.z.z.z.z.z.z.z.z.z.z.w.D = = = = = = = G [ [ ` ) 4 = = = = = = = = = = 2 ! ' H = - =.z.z.z.z.z.z.z.z.z.z.z.z.z.z.z.z.z.z.z.z.",
"z.z.z.z.z.z.z.z.z.z.z.z.3.w = = = = = = = ! [ [ ` [ ) V s ; = = = = = = s ( [ ] j = 6 :.z.z.z.z.z.z.z.z.z.z.z.z.z.z.z.z.z.z.z.z.",
"z.z.z.z.z.z.z.z.z.z.z.z.D = = = = = = = a _ [ [ ] [ [ [ ] _ ! G V V J ) ] [ [ _ = = : ;.z.z.z.z.z.z.z.z.z.z.z.z.z.z.z.z.z.z.z.z.",
"z.z.z.z.z.z.z.z.z.z.z.k.D = = = = = = = C ] [ [ ' ` [ [ [ [ [ [ [ [ [ [ [ [ ] H = = = D z.z.z.z.z.z.z.z.z.z.z.z.z.z.z.z.z.z.z.z.",
"z.z.z.z.z.z.z.z.z.z.z.w.D = = = = = = 2 ( ` [ ] ` ] [ [ ] ' ` ' ` z $ > l ` ' C = = = D z.z.z.z.z.z.z.z.z.z.z.z.z.z.z.z.z.z.z.z.",
"z.z.z.z.z.z.z.z.z.z.z.7.r = = = = = = v S 1 , N [ [ [ ] [ [ [ ] z . X   O k ' C = = = D 0.z.z.z.z.z.z.z.z.z.z.z.z.z.z.z.z.z.z.z.",
"z.z.z.z.z.z.z.z.z.z.z.3.9 = = = = = = x #     # z [ [ ] ' [ [ [ < @ e.X.. O ` G = = = 6 =.z.z.z.z.z.z.z.z.z.z.z.z.z.z.z.z.z.z.z.",
"z.z.z.z.z.z.z.z.z.z.z.<.6 = = = = = 4 #   e.i o & _ [ [ [ [ [ ] >   $.y . . ` K = = = = D 0.z.z.z.z.z.z.z.z.z.z.z.z.z.z.z.z.z.z.",
"z.z.z.z.z.z.z.z.z.z.z.>.: = = = = = f +   o.u   * ' [ [ [ [ [ [ Z     . O m ' / - = = = 5 *.z.z.z.z.z.z.z.z.z.z.z.z.z.z.z.z.z.z.",
"z.z.z.z.z.z.z.z.z.z.z.:.: = = = = = C t     o + z [ [ }  . .| [ [ A + % l ] ' _ a = = = = D 9.z.z.z.z.z.z.z.z.z.z.z.z.z.z.z.z.z.",
"z.z.z.z.z.z.z.z.z.z.z.:.: = = = = = K ( t % > M ' [  .........| [ [ [ ] _ ' ] ' c = = = = : &.z.z.z.z.z.z.z.z.z.z.z.z.z.z.z.z.z.",
"z.z.z.z.z.z.z.z.z.z.z.>.5 = = = = = ! _ ' _ ' [ [ { .......... .[ [ [ [ ' ' ] ] V = = = = = D w.z.z.z.z.z.z.z.z.z.z.z.z.z.z.z.z.",
"z.z.z.z.z.z.z.z.z.z.z.1.7 = = = = = ! ` ] [ [ [ [ } .......... .[ [ [ [ ] [ [ ] F = = = = = 0 3.z.z.z.z.z.z.z.z.z.z.z.z.z.z.z.z.",
"z.z.z.z.z.z.z.z.z.z.z.4.q = = = = = ! ` ] [ [ [ [ { ........ .{ [ [ [ ] [ [ [ ] F = = = = = 6 ,.z.z.z.z.z.z.z.z.z.z.z.z.z.z.z.z.",
"z.z.z.z.z.z.z.z.z.z.z.8.r = = = = = H ' ' [ [ [ [ [ }  . .} [ [ [ [ [ [ [ [ [ ] b = = = = = 9 1.z.z.z.z.z.z.z.z.z.z.z.z.z.z.z.z.",
"z.z.z.z.z.z.z.z.z.z.z.y.D = = = = = c ' ` [ [ ] [ [ [ [ [ [ [ [ [ [ [ [ [ ] ] ` a = = = = = d 7.z.z.z.z.z.z.z.z.z.z.z.z.z.z.z.z.",
"z.z.z.z.z.z.z.z.z.z.z.z.D = = = = = 3 ( ` ~ W ^ ` [ [ [ [ [ [ [ [ [ [ [ [ ] ] K = = = = = = D h.z.z.z.z.z.z.z.z.z.z.z.z.z.z.z.z.",
"z.z.z.z.z.z.z.z.z.z.z.z.<.9 = = = = = B ` _ N . z ] ` ` ' [ [ [ [ [ [ [ ] ] ! p = = = = = d 4.z.z.z.z.z.z.z.z.z.z.z.z.z.z.z.z.z.",
"z.z.z.z.z.z.z.z.z.z.z.z.w.D = = = = = = H ' ` m     z _ _ ' [ ] ' ( ] ] ` Q a = = = = = 9 *.z.z.z.z.z.z.z.z.z.z.z.z.z.z.z.z.z.z.",
"z.z.z.z.z.z.z.z.z.z.z.z.z.:.9 = = = = = - C _ ] _ 1 X O O > E ~ _ ` ` ! b ; = = = = = 5 @.t.z.z.z.z.z.z.z.z.z.z.z.z.z.z.z.z.z.z.",
"z.z.z.z.z.z.z.z.z.z.z.z.z.y.D = = = = = = = h H ( ` ' ' ' ` ` ) ! G g ; = = = = = = 8 @.y.z.z.z.z.z.z.z.z.z.z.z.z.z.z.z.z.z.z.z.",
"z.z.z.z.z.z.z.z.z.z.z.z.z.z.7.D = = = = = = = = 3 h c b v j s 3 = = = = = = = = = r &.y.z.z.z.z.z.z.z.z.z.z.z.z.z.z.z.z.z.z.z.z.",
"z.z.z.z.z.z.z.z.z.z.z.z.z.z.z.3.D = = = = = = = = = = = = = = = = = = = = = = 5 D 1.z.z.z.z.z.z.z.z.z.z.z.z.z.z.z.z.z.z.z.z.z.z.",
"z.z.z.z.z.z.z.z.z.z.z.z.z.z.z.z.6.D 0 = = = = = = = = = = = = = = = = = = : D *.w.z.z.z.z.z.z.z.z.z.z.z.z.z.z.z.z.z.z.z.z.z.z.z.",
"z.z.z.z.z.z.z.z.z.z.z.z.z.z.z.z.z.u.>.D 0 = = = = = = = = = = = = = = 9 D *.8.z.z.z.z.z.z.z.z.z.z.z.z.z.z.z.z.z.z.z.z.z.z.z.z.z.",
"z.z.z.z.z.z.z.z.z.z.z.z.z.z.z.z.z.z.z.u.<.D D 0 : = = = = = = 6 r D D ,.r.z.z.z.z.z.z.z.z.z.z.z.z.z.z.z.z.z.z.z.z.z.z.z.z.z.z.z.",
"z.z.z.z.z.z.z.z.z.z.z.z.z.z.z.z.z.z.z.z.z.z.w.1.=.D D D D D D :.5.r.z.z.z.z.z.z.z.z.z.z.z.z.z.z.z.z.z.z.z.z.z.z.z.z.z.z.z.z.z.z.",
"z.z.z.z.z.z.z.z.z.z.z.z.z.z.z.z.z.z.z.z.z.z.z.z.z.z.z.z.z.z.z.z.z.z.z.z.z.z.z.z.z.z.z.z.z.z.z.z.z.z.z.z.z.z.z.z.z.z.z.z.z.z.z.z.",
"z.z.z.z.z.z.z.z.z.z.z.z.z.z.z.z.z.z.z.z.z.z.z.z.z.z.z.z.z.z.z.z.z.z.z.z.z.z.z.z.z.z.z.z.z.z.z.z.z.z.z.z.z.z.z.z.z.z.z.z.z.z.z.z.",
"z.z.z.z.z.z.z.z.z.z.z.z.z.z.z.z.z.z.z.z.z.z.z.z.z.z.z.z.z.z.z.z.z.z.z.z.z.z.z.z.z.z.z.z.z.z.z.z.z.z.z.z.z.z.z.z.z.z.z.z.z.z.z.z.",
"z.z.z.z.z.z.z.z.z.z.z.z.z.z.z.z.z.z.z.z.z.z.z.z.z.z.z.z.z.z.z.z.z.z.z.z.z.z.z.z.z.z.z.z.z.z.z.z.z.z.z.z.z.z.z.z.z.z.z.z.z.z.z.z.",
"z.z.z.z.z.z.z.z.z.z.z.z.z.z.z.z.z.z.z.z.z.z.z.z.z.z.z.z.z.z.z.z.z.z.z.z.z.z.z.z.z.z.z.z.z.z.z.z.z.z.z.z.z.z.z.z.z.z.z.z.z.z.z.z.",
"z.z.z.z.z.z.z.z.z.z.z.z.z.z.z.z.z.z.z.z.z.z.z.z.z.z.z.z.z.z.z.z.z.z.z.z.z.z.z.z.z.z.z.z.z.z.z.z.z.z.z.z.z.z.z.z.z.z.z.z.z.z.z.z."
};
