/* XPM */
static char *_7fedb2837e441879ec028d907c733b9Kjk8Z5Lomisc07VF[] = {
/* columns rows colors chars-per-pixel */
"64 64 193 2 ",
"   c #0C2166",
".  c #0C2267",
"X  c #0E2367",
"o  c #0D2368",
"O  c #0E2468",
"+  c #0F2468",
"@  c #0F2568",
"#  c #0E2569",
"$  c #0F2569",
"%  c #0E2669",
"&  c #0F2669",
"*  c #0E256A",
"=  c #0F266A",
"-  c #102468",
";  c #112769",
":  c #10266B",
">  c #10276B",
",  c #13276A",
"<  c #10286B",
"1  c #10296C",
"2  c #11296C",
"3  c #122A6D",
"4  c #122B6E",
"5  c #132B6F",
"6  c #122C6E",
"7  c #122C6F",
"8  c #19326F",
"9  c #132D70",
"0  c #142F71",
"q  c #143071",
"w  c #153172",
"e  c #163273",
"r  c #163373",
"t  c #173374",
"y  c #173474",
"u  c #1A3573",
"i  c #1B3774",
"p  c #193777",
"a  c #1C3874",
"s  c #1A3A79",
"d  c #1B3C7B",
"f  c #1C3E7B",
"g  c #1D3E7D",
"h  c #24386D",
"j  c #253D72",
"k  c #1E407E",
"l  c #1F407E",
"z  c #274176",
"x  c #294379",
"c  c #204280",
"v  c #204380",
"b  c #214582",
"n  c #224784",
"m  c #244A86",
"M  c #244B86",
"N  c #274F8A",
"B  c #28518A",
"V  c #28528B",
"C  c #29528B",
"Z  c #28528C",
"A  c #29528D",
"S  c #29538D",
"D  c #2B548C",
"F  c #2A548E",
"G  c #2A558E",
"H  c #2D558D",
"J  c #2C578F",
"K  c #31578A",
"L  c #33598B",
"P  c #375E8D",
"I  c #2C5790",
"U  c #2D5890",
"Y  c #2D5992",
"T  c #2D5A92",
"R  c #2D5B93",
"E  c #2F5D94",
"W  c #335D91",
"Q  c #315C92",
"!  c #355E90",
"~  c #336297",
"^  c #3D6A97",
"/  c #326298",
"(  c #336398",
")  c #34659B",
"_  c #37689B",
"`  c #37689C",
"'  c #3F719F",
"]  c #386CA0",
"[  c #386DA1",
"{  c #3C6FA1",
"}  c #3A70A3",
"|  c #3F76A7",
" . c #3F79A9",
".. c #40709C",
"X. c #41729E",
"o. c #43759F",
"O. c #4075A4",
"+. c #417BAA",
"@. c #467EAA",
"#. c #427DAE",
"$. c #437EAE",
"%. c #447DAC",
"&. c #4B80A7",
"*. c #4481B1",
"=. c #4683B2",
"-. c #4685B3",
";. c #4884B1",
":. c #4A86B0",
">. c #4A86B1",
",. c #4985B2",
"<. c #4887B3",
"1. c #4987B3",
"2. c #4887B5",
"3. c #4B88B2",
"4. c #4A88B3",
"5. c #4C89B2",
"6. c #4C89B3",
"7. c #4A88B4",
"8. c #4A89B4",
"9. c #4B89B4",
"0. c #4B8AB5",
"q. c #4888B6",
"w. c #4989B7",
"e. c #4A89B6",
"r. c #4A8AB6",
"t. c #4B8AB6",
"y. c #4A8BB7",
"u. c #4B8BB7",
"i. c #4C89B4",
"p. c #478FBA",
"a. c #4A8BB8",
"s. c #4A8CB8",
"d. c #488EBA",
"f. c #488FBA",
"g. c #4593BB",
"h. c #4297BD",
"j. c #4494BC",
"k. c #3D9FC1",
"l. c #3E9EC0",
"z. c #3E9FC0",
"x. c #3AA5C3",
"c. c #2EB7CB",
"v. c #2DB8CB",
"b. c #2BBBCD",
"n. c #2BBCCD",
"m. c #29BECE",
"M. c #33B0C8",
"N. c #1FCFD6",
"B. c #1ED0D6",
"V. c #16DDDB",
"C. c #15DEDC",
"Z. c #19D8D9",
"A. c #28C1CF",
"S. c #24C6D1",
"D. c #24C6D2",
"F. c #24C7D2",
"G. c #20CCD4",
"H. c #20CDD4",
"J. c #13E1DD",
"K. c #14E0DD",
"L. c #10E7DF",
"P. c #0BEDE2",
"I. c #0CECE2",
"U. c #06F4E5",
"Y. c #05F6E6",
"T. c #05F7E6",
"R. c #05F7E7",
"E. c #06F6E6",
"W. c #09F1E4",
"Q. c #08F2E4",
"!. c #08F2E5",
"~. c #04F8E7",
"^. c #04F9E7",
"/. c #03FAE8",
"(. c #02FBE8",
"). c #03FBE8",
"_. c #04F9E8",
"`. c #01FCE9",
"'. c #01FDE9",
"]. c #02FCE8",
"[. c #02FCE9",
"{. c #02FDE9",
"}. c #01FEE9",
"|. c #01FFE9",
" X c #02FFE8",
".X c #00FEEA",
"XX c #00FFEA",
"oX c #FBFAF9",
"OX c #F8F9FB",
"+X c #FAFBFC",
"@X c #FBFCFD",
"#X c #FDFDFE",
"$X c white",
/* pixels */
"$X$X$X$X$X$X$X$X$X$X$X$X$X$X$X          $X$X$X$X$X$X$X$X$X$X$X$X$X$X$X$X$X$X$X$X$X$X$X$X$X$X$X$X$X$X$X$X$X$X$X$X$X$X$X$X$X$X$X$X",
"$X$X$X$X$X$X$X$X$X$X$X$X$X$X$X$X$X          $X$X$X$X$X$X$X$X$X$X$X$X$X$X$X$X$X$X$X$X$X$X$X$X$X$X$X$X$X@X    $X$X$X$X$X$X$X$X$X$X",
"$X$X$X$X$X$X$X$X$X$X$X$X$X$X$X$X$X$X$X        $X$X$X$X$X$X$X$X$X$X$X$X$X$X$X$X$X$X$X$X$X$X$X$X$X$X$X        $X$X$X$X$X$X$X$X$X$X",
"$X$X$X$X$X$X$X$X$X$X$X$X$X$X$X$X$X$X$X          $X$X$X$X$X$X$X$X$X$X$X$X$X$X$X$X$X$X$X$X$X$X$X$X$X          $X$X$X$X$X$X$X$X$X$X",
"$X$X$X$X$X$X$X$X$X$X$X$X$X$X$X$X$X$X$X$X        $X$X$X$X$X$X$X$X$X$X$X$X$X$X$X$X$X$X$X$X$X$X$X$X            $X$X$X$X$X$X$X$X$X$X",
"$X$X$X$X$X$X$X$X$X$X$X$X$X$X$X$X$X$X$X$X    +   $X$X$X$X$X$X$X$X$X$X$X$X$X$X$X$X$X$X$X$X$X$X        y       $X$X$X$X$X$X$X$X$X$X",
"$X$X$X$X$X$X$X$X$X$X$X$X$X$X$X$X$X$X$X$X$X        $X$X$X$X$X$X$X$X$X$X$X$X$X$X$X$X$X$X$X$X        m } 2     $X$X$X$X$X$X$X$X$X$X",
"$X$X$X$X$X$X$X$X$X$X$X$X$X$X$X$X$X$X$X$X$X        $X$X$X$X$X$X$X$X$X$X$X$X$X$X$X$X$X$X$X        + 2.H       $X$X$X$X$X$X$X$X$X$X",
"$X$X$X$X$X$X$X$X$X$X$X$X$X$X$X$X$X$X$X$X$X        $X$X$X$X$X$X$X$X$X$X$X$X$X$X$X$X$X          6 -.=.+       $X$X$X$X$X$X$X$X$X$X",
"$X$X$X$X$X$X$X$X$X$X$X$X$X$X$X$X$X$X$X$X$X          $X$X$X$X$X$X$X$X$X$X$X$X$X$X$X          z 5.t.g       $X$X$X$X$X$X$X$X$X$X$X",
"$X$X$X$X$X$X$X$X$X$X$X$X$X$X$X$X$X$X$X$X$X          $X$X$X$X$X$X$X$X$X$X$X$X$X$X          j a.a.&.        $X$X$X$X$X$X$X$X$X$X$X",
"$X$X$X$X$X$X$X$X$X$X$X$X$X$X$X$X$X$X$X$X$X          $X$X$X$X$X$X$X$X$X$X$X$X$X$X        ! a.a.3.2       $X$X$X$X$X$X$X$X$X$X$X$X",
"$X$X$X$X$X$X$X$X$X$X$X$X$X$X$X$X$X$X$X$X$X          $X$X$X$X$X$X$X$X$X$X$X$X      + N  .t.,.K         $X$X$X$X$X$X$X$X$X$X$X$X$X",
"$X$X$X$X$X$X$X$X$X$X$X$X$X$X$X$X$X$X$X$X$X          $X$X$X$X$X$X$X$X$X$X$X        l R [ A           $X$X$X$X$X$X$X$X$X$X$X$X$X$X",
"$X$X$X$X$X$X$X$X$X$X$X$X$X$X$X$X$X$X$X$X            $X$X$X$X$X$X$X$X$X$X          o               $X$X$X$X$X$X$X$X$X$X$X$X$X$X$X",
"$X$X$X$X$X$X$X$X$X$X$X$X$X$X$X$X$X$X$X$X            $X$X$X$X$X$X$X$X$X$X  ;                     $X$X$X$X$X$X$X$X$X$X$X$X$X$X$X$X",
"$X$X$X$X$X$X$X$X$X$X$X$X$X$X$X$X$X$X$X$X              $X$X$X$X$X$X$X$X                    oX$X$X$X$X$X$X$X$X$X$X$X$X$X$X$X$X$X$X",
"$X$X$X$X$X$X$X$X$X$X$X$X$X$X$X$X$X$X$X      + +       $X$X$X$X$X$X$X$X      $X$X$X$X$X$X$X$X$X$X$X$X$X$X$X$X$X$X$X$X$X$X$X$X$X$X",
"$X$X$X$X$X$X$X$X$X$X$X$X$X$X$X$X$X$X$X      p +       $X$X$X$X$X$X$X    $X$X$X$X$X$X$X$X$X$X$X$X$X$X$X$X$X$X$X$X$X$X$X$X$X$X$X$X",
"$X$X$X$X$X$X$X$X$X$X$X$X$X$X$X$X$X$X        G 2       $X$X$X$X$X$X$X$X$X$X$X$X$X$X$X$X$X$X$X$X$X$X$X$X$X$X$X$X$X$X$X$X$X$X$X$X$X",
"$X$X$X$X$X$X$X$X$X$X$X$X$X$X$X$X$X$X      0 [ ;         $X$X$X$X$X$X$X$X$X$X$X$X$X$X$X$X$X$X$X$X$X$X$X$X$X$X$X$X$X$X$X$X$X$X$X$X",
"$X$X$X$X$X$X$X$X$X$X$X$X$X$X$X$X$X        f +.+         $X$X$X$X$X$X$X$X$X$X$X$X$X$X$X$X$X$X$X$X$X$X$X$X$X$X$X$X$X$X$X$X$X$X$X$X",
"$X$X$X$X$X$X$X$X$X$X$X$X$X$X$X$X          G @.;           $X$X$X$X$X$X$X$X$X$X$X$X$X$X$X$X$X$X$X$X$X$X$X$X$X$X$X$X$X$X$X$X$X$X$X",
"$X$X$X$X$X$X$X$X$X$X$X$X$X$X$X$X          { a.d             $X$X$X$X$X$X$X$X$X$X$X$X$X$X$X  $X$X$X$X$X$X$X$X$X$X$X$X$X$X$X$X$X$X",
"$X$X$X$X$X$X$X$X$X$X$X$X$X$X$X          2 a.a.G               $X$X$X$X$X$X$X$X$X$X$X$X$X    $X$X$X$X$X$X$X$X$X$X$X$X$X$X$X$X$X$X",
"$X$X$X$X$X$X$X$X$X$X$X$X$X$X$X          v 5.a.A                 $X$X$X$X$X$X$X$X$X$X$X      $X$X$X$X$X$X$X$X$X$X$X$X$X$X$X$X$X$X",
"$X$X$X$X$X$X$X$X$X$X$X$X$X$X            I i.a.) +                 +X$X$X$X$X$X$X$X$X        $X$X$X$X$X$X$X$X$X$X$X$X$X$X$X$X$X$X",
"$X$X$X$X$X$X$X$X$X$X$X$X$X$X            ( t.a.a.G                         $X$X$X          $X$X$X$X$X$X$X$X$X$X$X$X$X$X$X$X$X$X$X",
"$X$X$X$X$X$X$X$X$X$X$X$X$X              ( ,.a.a.t.                                        $X$X$X$X$X$X$X$X$X$X$X$X$X$X$X$X$X$X$X",
"$X$X$X$X$X$X$X$X$X$X$X$X$X              R ,.a.a.a.x                                       $X$X$X$X$X$X$X$X$X$X$X$X$X$X$X$X$X$X$X",
"$X$X$X$X$X$X$X$X$X$X$X$X$X              B ,.a.a.a.a.2                       m a.a.      $X$X$X$X$X$X$X$X$X$X$X$X$X$X$X$X$X$X$X$X",
"$X$X$X$X$X$X$X$X$X$X$X$X                b t.a.a.a.t.#.s                   B t.a.a.      $X$X$X$X$X$X$X$X$X$X$X$X$X$X$X$X$X$X$X$X",
"$X$X$X$X$X$X$X$X$X$X$X$X                w t.a.a.a.a.t.a.Q <             8 t.a.a.P       $X$X$X$X$X$X$X$X$X$X$X$X$X$X$X$X$X$X$X$X",
"$X$X$X$X$X$X$X$X$X$X$X$X                ` a.a.a.a.a.a.a.a.a.a.L Q _ a.a.t.a.a.t.+       $X$X$X$X$X$X$X$X$X$X$X$X$X$X$X$X$X$X$X$X",
"$X$X$X$X$X$X$X$X$X$X$X@X              2 ,.a.a.a.a.a.a.a.a.a.a.a.a.a.a.a.a.a.a.a.;       $X$X$X$X$X$X$X$X$X$X$X$X$X$X$X$X$X$X$X$X",
"$X$X$X$X$X$X$X$X$X$X$X                l t.a.a.a.a.a.a.a.a.a.a.a.a.a.a.a.a.a.a.a.o       $X$X$X$X$X$X$X$X$X$X$X$X$X$X$X$X$X$X$X$X",
"$X$X$X$X$X$X$X$X$X$X$X                X.a.a.a.a.a.a.a.a.a.a.a.a.a.a.t.a.a.a.a.a.          $X$X$X$X$X$X$X$X$X$X$X$X$X$X$X$X$X$X$X",
"$X$X$X$X$X$X$X$X$X$X$X              t a.a.a.a.a.a.a.z.p.a.a.a.a.a.a.a.a.a.a.a.a.+         $X$X$X$X$X$X$X$X$X$X$X$X$X$X$X$X$X$X$X",
"$X$X$X$X$X$X$X$X$X$X$X              n a.a.a.a.a.a.z.I.J.S.f.a.a.a.a.a.a.a.t.a.a.d           $X$X$X$X$X$X$X$X$X$X$X$X$X$X$X$X$X$X",
"$X$X$X$X$X$X$X$X$X$X$X              a.a.a.a.a.a.a.A.Q.Q.(.(.C.a.a.a.a.a.a.a.a.a.B           $X$X$X$X$X$X$X$X$X$X$X$X$X$X$X$X$X$X",
"$X$X$X$X$X$X$X$X$X$X$X              a.a.a.a.a.a.j.V._..X.X.X.XB.a.a.a.a.a.a.a.a.~             $X$X$X$X$X$X$X$X$X$X$X$X$X$X$X$X$X",
"$X$X$X$X$X$X$X$X$X$X$X            + a.a.a.a.a.a.S.Y..X.X.X.X.X^.z.a.a.a.a.a.a.a.^         ;   $X$X$X$X$X$X$X$X$X$X$X$X$X$X$X$X$X",
"$X$X$X$X$X$X$X$X$X$X$X            2 a.a.a.a.a.f.K.(..X.X.X.X.X.Xb.a.a.a.a.a.a.a.a.              $X$X$X$X$X$X$X$X$X$X$X$X$X$X$X$X",
"$X$X$X$X$X$X$X$X$X$X$X            9 3.a.a.a.a.g.L.(..X.X.X.X.X.Xn.a.a.a.a.a.a.a.a.              $X$X$X$X$X$X$X$X$X$X$X$X$X$X$X$X",
"$X$X$X$X$X$X$X$X$X$X$X            w a.a.a.a.a.c.Y..X.X.X.X.X.XY.S.h.a.a.a.a.a.a.a.              $X$X$X$X$X$X$X$X$X$X$X$X$X$X$X$X",
"$X$X$X$X$X$X$X$X$X$X$X            6 a.a.a.a.a.G.Q.Y..X.X.X.X.XQ.P.M.a.a.a.a.a.2.h               $X$X$X$X$X$X$X$X$X$X$X$X$X$X$X$X",
"$X$X$X$X$X$X$X$X$X$X$X              X.a.a.a.a.a.a.G.P.Y.^.Y.^.Y.G.a.a.a.a.a.a.R                 $X$X$X$X$X$X$X$X$X$X$X$X$X$X$X$X",
"$X$X$X$X$X$X$X$X$X$X$X$X            N a.a.a.a.a.a.a.x.n.v.N.Z.f.a.a.a.a.a.a.=.u               oX$X$X$X$X$X$X$X$X$X$X$X$X$X$X$X$X",
"$X$X$X$X$X$X$X$X$X$X$X$X            w o.a.a.a.a.a.a.a.a.a.a.a.a.a.a.a.a.a.a.v                 $X$X$X$X$X$X$X$X$X$X$X$X$X$X$X$X$X",
"$X$X$X$X$X$X$X$X$X$X$X$X              G ,.a.a.a.a.a.a.a.a.a.a.a.a.a.a.a.#.p                 $X$X$X$X$X$X$X$X$X$X$X$X$X$X$X$X$X$X",
"$X$X$X$X$X$X$X$X$X$X$X$X$X            + [ t.a.a.a.a.a.a.a.a.a.a.a.a.a.%.a                   $X$X$X$X$X$X$X$X$X$X$X$X$X$X$X$X$X$X",
"$X$X$X$X$X$X$X$X$X$X$X$X$X                A O.,.t.a.a.a.a.a.a.t.t.| R 9                   $X$X$X$X$X$X$X$X$X$X$X$X$X$X$X$X$X$X$X",
"$X$X$X$X$X$X$X$X$X$X$X$X$X$X                  w E a.a.a.a.' H w 2 +                     $X$X$X$X$X$X$X$X$X$X$X$X$X$X$X$X$X$X$X$X",
"$X$X$X$X$X$X$X$X$X$X$X$X$X$X$X                      a.a.                            $X$X$X$X$X$X$X$X$X$X$X$X$X$X$X$X$X$X$X$X$X$X",
"$X$X$X$X$X$X$X$X$X$X$X$X$X$X$X$X                                                  $X$X$X$X$X$X$X$X$X$X$X$X$X$X$X$X$X$X$X$X$X$X$X",
"$X$X$X$X$X$X$X$X$X$X$X$X$X$X$X$X$X                                            $X$X$X$X$X$X$X$X$X$X$X$X$X$X$X$X$X$X$X$X$X$X$X$X$X",
"$X$X$X$X$X$X$X$X$X$X$X$X$X$X$X$X$X$X$X                                    $X$X$X$X$X$X$X$X$X$X$X$X$X$X$X$X$X$X$X$X$X$X$X$X$X$X$X",
"$X$X$X$X$X$X$X$X$X$X$X$X$X$X$X$X$X$X$X$X$X$X                        $X$X$X$X$X$X$X$X$X$X$X$X$X$X$X$X$X$X$X$X$X$X$X$X$X$X$X$X$X$X",
"$X$X$X$X$X$X$X$X$X$X$X$X$X$X$X$X$X$X$X$X$X$X$X$X$X$X$X$X$X$X$X$X$X$X$X$X$X$X$X$X$X$X$X$X$X$X$X$X$X$X$X$X$X$X$X$X$X$X$X$X$X$X$X$X",
"$X$X$X$X$X$X$X$X$X$X$X$X$X$X$X$X$X$X$X$X$X$X$X$X$X$X$X$X$X$X$X$X$X$X$X$X$X$X$X$X$X$X$X$X$X$X$X$X$X$X$X$X$X$X$X$X$X$X$X$X$X$X$X$X",
"$X$X$X$X$X$X$X$X$X$X$X$X$X$X$X$X$X$X$X$X$X$X$X$X$X$X$X$X$X$X$X$X$X$X$X$X$X$X$X$X$X$X$X$X$X$X$X$X$X$X$X$X$X$X$X$X$X$X$X$X$X$X$X$X",
"$X$X$X$X$X$X$X$X$X$X$X$X$X$X$X$X$X$X$X$X$X$X$X$X$X$X$X$X$X$X$X$X$X$X$X$X$X$X$X$X$X$X$X$X$X$X$X$X$X$X$X$X$X$X$X$X$X$X$X$X$X$X$X$X",
"$X$X$X$X$X$X$X$X$X$X$X$X$X$X$X$X$X$X$X$X$X$X$X$X$X$X$X$X$X$X$X$X$X$X$X$X$X$X$X$X$X$X$X$X$X$X$X$X$X$X$X$X$X$X$X$X$X$X$X$X$X$X$X$X",
"$X$X$X$X$X$X$X$X$X$X$X$X$X$X$X$X$X$X$X$X$X$X$X$X$X$X$X$X$X$X$X$X$X$X$X$X$X$X$X$X$X$X$X$X$X$X$X$X$X$X$X$X$X$X$X$X$X$X$X$X$X$X$X$X"
};
