/* XPM */
static char *_99634dffc394a56ca20ed10cc7d870ex1mv9s78XR9G7uNZ[] = {
/* columns rows colors chars-per-pixel */
"64 64 220 2 ",
"   c #0D2265",
".  c #0E2265",
"X  c #0C2166",
"o  c #0C2267",
"O  c #0D2267",
"+  c #0D2367",
"@  c #0F2466",
"#  c #0F2467",
"$  c #0D2368",
"%  c #0D2468",
"&  c #0E2468",
"*  c #0F2468",
"=  c #0F2568",
"-  c #0E2469",
";  c #0E2569",
":  c #0F2669",
">  c #0F256A",
",  c #0F276A",
"<  c #0F276B",
"1  c #122362",
"2  c #102264",
"3  c #132564",
"4  c #102466",
"5  c #112566",
"6  c #102567",
"7  c #132666",
"8  c #162864",
"9  c #142866",
"0  c #182B67",
"q  c #1F2F64",
"w  c #102568",
"e  c #112769",
"r  c #122768",
"t  c #10276A",
"y  c #11276A",
"u  c #12266A",
"i  c #13276A",
"p  c #152A68",
"a  c #11296C",
"s  c #122A6D",
"d  c #122B6D",
"f  c #122B6E",
"g  c #162B6D",
"h  c #142C6C",
"j  c #142C6D",
"k  c #142D6F",
"l  c #152E6E",
"z  c #162E6E",
"x  c #172F6E",
"c  c #182F6D",
"v  c #192D6E",
"b  c #1A2E6F",
"n  c #1B306A",
"m  c #1A316E",
"M  c #1D326C",
"N  c #142E70",
"B  c #142F71",
"V  c #153071",
"C  c #163170",
"Z  c #153072",
"A  c #173375",
"S  c #173475",
"D  c #193270",
"F  c #193371",
"G  c #1B3370",
"H  c #1B3673",
"J  c #183676",
"K  c #193777",
"L  c #193877",
"P  c #1A3877",
"I  c #1D3A76",
"U  c #1E3A77",
"Y  c #1B3A7A",
"T  c #1C3B78",
"R  c #1D3C79",
"E  c #1E3C78",
"W  c #1C3C7B",
"Q  c #1C3D7B",
"!  c #1D3E7C",
"~  c #1E3F7E",
"^  c #223164",
"/  c #2C3A67",
"(  c #263B6E",
")  c #253E73",
"_  c #213C75",
"`  c #213E76",
"'  c #213E77",
"]  c #223E76",
"[  c #1E407E",
"{  c #2B4172",
"}  c #234179",
"|  c #22407A",
" . c #254278",
".. c #274379",
"X. c #24417A",
"o. c #27457A",
"O. c #25467F",
"+. c #1F4280",
"@. c #204380",
"#. c #204481",
"$. c #244680",
"%. c #254A84",
"&. c #264B84",
"*. c #2A4D83",
"=. c #2B4F84",
"-. c #264E89",
";. c #284F88",
":. c #2D5084",
">. c #27508A",
",. c #295089",
"<. c #2B538A",
"1. c #29538D",
"2. c #335A8B",
"3. c #345889",
"4. c #335B8D",
"5. c #335C8E",
"6. c #355E8F",
"7. c #2D5991",
"8. c #2D5A92",
"9. c #335E91",
"0. c #325D93",
"q. c #305F96",
"w. c #316097",
"e. c #356497",
"r. c #386595",
"t. c #386596",
"y. c #3E6A96",
"u. c #3F6B96",
"i. c #326299",
"p. c #366699",
"a. c #3E6F9E",
"s. c #3F709E",
"d. c #3C73A5",
"f. c #3F78A9",
"g. c #3F78AA",
"h. c #4377A3",
"j. c #477EA8",
"k. c #417CAD",
"l. c #4780AA",
"z. c #4C84AA",
"x. c #4C84AB",
"c. c #4F89AE",
"v. c #548AAA",
"b. c #4582B1",
"n. c #4D89B1",
"m. c #4E8AB1",
"M. c #4D8AB3",
"N. c #4E8BB3",
"B. c #4B8AB4",
"V. c #4888B6",
"C. c #4989B6",
"Z. c #498AB7",
"A. c #4B8BB7",
"S. c #4E8BB4",
"D. c #478FBA",
"F. c #4A8BB8",
"G. c #4790BA",
"H. c #4593BB",
"J. c #4396BC",
"K. c #4396BD",
"L. c #4297BD",
"P. c #4495BC",
"I. c #4298BD",
"U. c #419ABE",
"Y. c #3E9EC0",
"T. c #3E9FC0",
"R. c #3CA1C1",
"E. c #3AA4C2",
"W. c #3AA5C3",
"Q. c #37A9C4",
"!. c #35ADC6",
"~. c #2FB7CA",
"^. c #2BBDCC",
"/. c #2ABDCD",
"(. c #2ABECD",
"). c #31B3C8",
"_. c #32B2C8",
"`. c #1BD6D7",
"'. c #1BD7D7",
"]. c #1FD8D4",
"[. c #16DFDA",
"{. c #1AD8D8",
"}. c #19DBD9",
"|. c #24C7D1",
" X c #25C7D1",
".X c #24C9D2",
"XX c #22CCD3",
"oX c #15E0DB",
"OX c #16E1DB",
"+X c #14E2DC",
"@X c #13E4DD",
"#X c #18E1D9",
"$X c #10E8DE",
"%X c #10E8DF",
"&X c #0CEFE1",
"*X c #07F7E5",
"=X c #0BF2E1",
"-X c #0CF0E2",
";X c #09F6E3",
":X c #09F4E4",
">X c #08F6E4",
",X c #07F8E5",
"<X c #06F9E5",
"1X c #06FAE5",
"2X c #05FAE6",
"3X c #05FBE6",
"4X c #03FDE7",
"5X c #03FEE7",
"6X c #06FEE5",
"7X c #04FCE7",
"8X c #03FEE8",
"9X c #02FFE8",
"0X c #F8F9FB",
"qX c #F9FAFB",
"wX c #FAFBFC",
"eX c #FBFCFD",
"rX c #FCFCFD",
"tX c #FDFDFE",
"yX c #FEFEFE",
"uX c white",
/* pixels */
"uXuXuXuXuXuXuXuXuXuXuXuXuXuXuXuXuXuXuXuXuXuXuXuXuXuXuXuXX wXuXuXuXuXuXuXX uXuXuXuXuXuXuXuXuXuXuXuXuXuXuXuXuXuXuXuXuXuXuXuXuXuXuX",
"uXuXuXuXuXuXuXuXuXuXuXuXuXuXuXuXuXuXuXuXuXuXuXuXuXuXuXuXX X uXuXuXuXuXX X X uXuXuXuXuXuXuXuXuXuXuXuXuXuXuXuXuXuXuXuXuXuXuXuXuXuX",
"uXuXuXuXuXuXuXuXuXuXuXuXuXuXuXuXuXuXuXuXuXuXuXuXuXuXuXuXX X 0XuXuXuXuXX X X X X X uXuXuXuXuXuXuXuXuXuXuXuXuXuXuXuXuXuXuXuXuXuXuX",
"uXuXuXuXuXuXuXuXuXuXuXuXuXuXuXuXuXuXuXuXuXuXuXuXuXuXuXuXX X X uXuXuXuXuXX X X X X X X X uXuXuXuXuXuXuXuXuXuXuXuXuXuXuXuXuXuXuXuX",
"uXuXuXuXuXuXuXuXuXuXuXuXuXuXuXuXuXuXuXuXuXuXuXuXuXuXuXX X X X uXuXuXuXuXuXX X X X X X X X X uXuXuXuXuXuXuXuXuXuXuXuXuXuXuXuXuXuX",
"uXuXuXuXuXuXuXuXuXuXuXuXuXuXuXuXuXuXuXuXuXuXuXuXuXuXX X X X X uXuXuXuXuXuX0XX X X X X X X X X X uXuXuXuXuXuXuXuXuXuXuXuXuXuXuXuX",
"uXuXuXuXuXuXuXuXuXuXuXuXuXuXuXuXuXuXuXuXuXuXuXuXuXuXX X X X uXuXuXuXuXuXuXuXuXX X X X X X X X X X uXuXuXuXuXuXuXuXuXuXuXuXuXuXuX",
"uXuXuXuXuXuXuXuXuXuXuXuXuXuXuXuXuXuXuXuXuXuXuXuXuXX X X X X uXuXuXuXuXuXuXuXuXwXX X X X X X X X X uXuXuXuXuXuXuXuXuXuXuXuXuXuXuX",
"uXuXuXuXuXuXuXuXuXuXuXuXuXuXuXuXuXuXuXuXuXuXuXuXuXX X X X X uXuXuXuXuXuXuXuXuXuXX X X X X X X X X X uXuXuXuXuXuXuXuXuXuXuXuXuXuX",
"uXuXuXuXuXuXuXuXuXuXuXuXuXuXuXuXuXuXuXuXuXuXuXuXuXX X X X X uXuXuXuXuXuXuXuXuXuXuXX X X X X X X X X uXuXuXuXuXuXuXuXuXuXuXuXuXuX",
"uXuXuXuXuXuXuXuXuXuXuXuXuXuXuXuXuXuXuXuXuXuXuXuXuXX X X X uXuXuXuXuXuXuXuXuXuXuXuXX X X * +.X X X X X uXuXuXuXuXuXuXuXuXuXuXuXuX",
"uXuXuXuXuXuXuXuXuXuXuXuXuXuXuXuXuXuXuXuXuXuXuXuXX X X X X uXuXuXuXuXuXuXuXuXuXuXuXX X X * 9.4 X X X X uXuXuXuXuXuXuXuXuXuXuXuXuX",
"uXuXuXuXuXuXuXuXuXuXuXuXuXuXuXuXuXuXuXuXuXuXuXeXX X X X uXuXuXuXuXuXuXuXuXuXuXuXuXuXX X X F.H X X X X uXuXuXuXuXuXuXuXuXuXuXuXuX",
"uXuXuXuXuXuXuXuXuXuXuXuXuXuXuXuXuXuXuXuXuXuXuXX X X X X uXuXuXuXuXuXuXuXuXuXuXuXuXuXX X X j.7.X X X X uXuXuXuXuXuXuXuXuXuXuXuXuX",
"uXuXuXuXuXuXuXuXuXuXuXuXuXuXuXuXuXuXuXuXuXuXX X X X X X uXuXuXuXuXuXuXuXuXuXuXuXuXuXX X X F.g.$.X X X uXuXuXuXuXuXuXuXuXuXuXuXuX",
"uXuXuXuXuXuXuXuXuXuXuXuXuXuXuXuXuXuXuXuXuXuXX X X X X uXuXuXuXuXuXuXuXuXuXuXuXuXuXX X X X X F.&.* X X uXuXuXuXuXuXuXuXuXuXuXuXuX",
"uXuXuXuXuXuXuXuXuXuXuXuXuXuXuXuXuXuXuXuXuXX X X X X X uXuXuXuXuXuXuXuXuXuXuXuXuXuXX X X X u.F.z.* X X uXuXuXuXuXuXuXuXuXuXuXuXuX",
"uXuXuXuXuXuXuXuXuXuXuXuXuXuXuXuXuXuXuXuXX X X X X X X uXuXuXuXuXuXuXuXuXuXuXuXuXuXX X X u k.F.F.X X X uXuXuXuXuXuXuXuXuXuXuXuXuX",
"uXuXuXuXuXuXuXuXuXuXuXuXuXuXuXuXuXuXuXuXX X X X X X uXuXuXuXuXuXuXuXuXuXuXuXuXuXX X X X X.F.n.q.X X X uXuXuXuXuXuXuXuXuXuXuXuXuX",
"uXuXuXuXuXuXuXuXuXuXuXuXuXuXuXuXuXuXuXX X X X X X X uXuXuXuXuXuXuXuXuXuXuXuXuXX X X X V u.F.h.Y X X X uXuXuXuXuXuXuXuXuXuXuXuXuX",
"uXuXuXuXuXuXuXuXuXuXuXuXuXuXuXuXuXuXX X X X U 6.v X uXuXuXuXuXuXuXuXuXuXuXuXX X X X * R F.F.;.B X X X uXuXuXuXuXuXuXuXuXuXuXuXuX",
"uXuXuXuXuXuXuXuXuXuXuXuXuXuXuXuXuXuXX X X X F.F.v X uXuXuXuXuXuXuXuXuXuXuXX X X X 4 ` A.F.F.~ X X X uXuXuXuXuXuXuXuXuXuXuXuXuXuX",
"uXuXuXuXuXuXuXuXuXuXuXuXuXuXuXuXuXX X X X 2 F.z.X X uXuXuXuXuXuXuXuXuXX X X X X v @.F.F.F.&.P X X X uXuXuXuXuXuXuXuXuXuXuXuXuXuX",
"uXuXuXuXuXuXuXuXuXuXuXuXuXuXuXuXX X X X X ( A.^ X X uXuXuXuXuXuXuXuXX u X X X $ <.A.F.F.5.s X X X X uXuXuXuXuXuXuXuXuXuXuXuXuXuX",
"uXuXuXuXuXuXuXuXuXuXuXuXuXuXuXuXX X X X X s.S.1 X X X uXuXuXuXuXuXuXX X X X X n F.F.F.w.k * X X X uXuXuXuXuXuXuXuXuXuXuXuXuXuXuX",
"uXuXuXuXuXuXuXuXuXuXuXuXuXuXuXX X X X X 0 F.n.X X X X X uXuXuXuXuXuXuXg X X X 8 #.g.1.k X X X X uXuXuXuXuXuXuXuXuXuXuXuXuXuXuXuX",
"uXuXuXuXuXuXuXuXuXuXuXuXuXuXuXX X X X X :.F.n.X X X X X X uXuXuXuXuXuXeXX X X X u k X X X X X X uXuXuXuXuXuXuXuXuXuXuXuXuXuXuXuX",
"uXuXuXuXuXuXuXuXuXuXuXuXuXuXX X X X X X t.F.F.X X X X X X X uXuXuXuXuXuXX X X X X X X X X X X uXuXuXuXuXuXuXuXuXuXuXuXuXuXuXuXuX",
"uXuXuXuXuXuXuXuXuXuXuXuXuXuXX X X X X X t.F.) X X X X X X X X uXuXuXuXuXuXuXX X X X X X X X uXuXuXuXuXuXuXuXuXuXuXuXuXuXuXuXuXuX",
"uXuXuXuXuXuXuXuXuXuXuXuXuXuXX X X X X X i.F.=.s X X X X X X X X 0XuXuXuXuXuXuXeXX X X X uXuXuXuXuXuXuXuXuXuXuXuXuXuXuXuXuXuXuXuX",
"uXuXuXuXuXuXuXuXuXuXuXuXuXX X X X X X @ d.F.F.V X X X X X X X * X wXuXuXuXuXuXuXuXuXuXuXuXuXuXuXuXuXuXuXuXuXuXuXuXuXuXuXuXuXuXuX",
"uXuXuXuXuXuXuXuXuXuXuXuXuXX X X X X X 4 b.F.F.*.* X X X X X X X X X X uXuXuXuXuXuXuXuXuXuXuXuXuXuXuXuXuXuXuXuXuXuXuXuXuXuXuXuXuX",
"uXuXuXuXuXuXuXuXuXuXuXuXX X X X X X X u F.F.F.F.D 4 X X X X X X X X X X uXuXuXuXuXuXuXuXuXuXuXuXuXuXuXuXuXuXuXuXuXuXuXuXuXuXuXuX",
"uXuXuXuXuXuXuXuXuXuXuXuXX X X X X X X D F.F.F.F.b.4.X X X X X X X X X X X X uXuXuXuXuXuXuXuXuXuXuXuXuXuXuXuXuXuXuXuXuXuXuXuXuXuX",
"uXuXuXuXuXuXuXuXuXuXuXuXX X X X X X X T F.F.^.P.F.F.F.3.X.m p u X X X X X X X uXuXuXuXuXuXuXuXuXuXuXuXuXuXuXuXuXuXuXuXuXuXuXuXuX",
"uXuXuXuXuXuXuXuXuXuXuXX X X X X X X * A.F.L.>X`.F.F.F.F.F.F.F.F.F.v./ X X X X X uXuXuXuXuXuXuXuXuXuXuXuXuXuXuXuXuXuXuXuXuXuXuXuX",
"uXuXuXuXuXuXuXuXuXuXuXX X X X X X X M F.F.D.$X-XH.F.F.F.F.F.F.A.F.F.F.F.X X X X X X uXuXuXuXuXuXuXuXuXuXuXuXuXuXuXuXuXuXuXuXuXuX",
"uXuXuXuXuXuXuXuXuXuXuXX X X X X X X O.F.F.F.T.$X{.F.F.F.F.F.F.F.F.F.F.F.F.X X X X X X uXuXuXuXuXuXuXuXuXuXuXuXuXuXuXuXuXuXuXuXuX",
"uXuXuXuXuXuXuXuXuXuXuXX X X X X X X a.F.F.F.F.W.).F.F.F.F.F.F.F.F.F.F.F.F.{ X X X X X X uXuXuXuXuXuXuXuXuXuXuXuXuXuXuXuXuXuXuXuX",
"uXuXuXuXuXuXuXuXuXuXuXX X X X X X u F.F.F.F.F.F.W.&X+XL.F.F.F.F.F.F.F.F.F.F.X X X X X X X uXuXuXuXuXuXuXuXuXuXuXuXuXuXuXuXuXuXuX",
"uXuXuXuXuXuXuXuXuXuXuXX X X X X X @ F.F.F.F.F.I.3X5X3X5X3X#XI.F.F.F.F.F.F.F.s X X X X X X X uXuXuXuXuXuXuXuXuXuXuXuXuXuXuXuXuXuX",
"uXuXuXuXuXuXuXuXuXuXeXX X X X X X X F.F.F.F.F.R.*X3X8X8X8X8X].F.F.F.F.F.F.F.k X X X X X X X uXuXuXuXuXuXuXuXuXuXuXuXuXuXuXuXuXuX",
"uXuXuXuXuXuXuXuXuXuXuXX X X X X X X F.F.F.F.F.`.8X8X8X8X8X8X;XF.F.F.F.F.F.F.U A X X X X X X X uXuXuXuXuXuXuXuXuXuXuXuXuXuXuXuXuX",
"uXuXuXuXuXuXuXuXuXuXuXX X X X X X X F.F.F.F.F.$X6X8X8X8X8X8X3XL.{.!.F.F.F.F.| [ X X X X X X X X uXuXuXuXuXuXuXuXuXuXuXuXuXuXuXuX",
"uXuXuXuXuXuXuXuXuXuXuXX X X X X X X p.F.F.F.F.OXOX8X8X8X8X8X=X X`.T.F.F.F.F.` X X X X X X X X X X uXuXuXuXuXuXuXuXuXuXuXuXuXuXuX",
"uXuXuXuXuXuXuXuXuXuXuXX X X X X X X ~ A.F.F.F.@X3X8X8X8X8X6X>X X~.F.F.F.F.F.o.X X X X X X X X X X uXuXuXuXuXuXuXuXuXuXuXuXuXuXuX",
"uXuXuXuXuXuXuXuXuXuXuXX X X X X X X X F.F.F.F.D.[.3X3X6X8X5X3X^.F.F.F.F.F.7.X.X X X X X X X X X X uXuXuXuXuXuXuXuXuXuXuXuXuXuXuX",
"uXuXuXuXuXuXuXuXuXuXuXX X X X X X X X e.F.F.F.F.F.H.)..XXX^.`.Q.F.F.F.F.F.>.D X X X X X X X X X X uXuXuXuXuXuXuXuXuXuXuXuXuXuXuX",
"uXuXuXuXuXuXuXuXuXuXuXuXX X X X X X X -.| F.F.F.F.F.F.F.F.F.F.F.F.F.F.F.F.` X X X X X X X X X X uXuXuXuXuXuXuXuXuXuXuXuXuXuXuXuX",
"uXuXuXuXuXuXuXuXuXuXuXuXX X X X X X X K <.F.F.F.F.F.F.F.F.F.F.F.F.F.F.F.l.4 X X X X X X X X X uXuXuXuXuXuXuXuXuXuXuXuXuXuXuXuXuX",
"uXuXuXuXuXuXuXuXuXuXuXuXX X X X X X X X R V R F.F.F.F.F.F.F.F.F.F.F.F.c.8 X X X X X X X X X X uXuXuXuXuXuXuXuXuXuXuXuXuXuXuXuXuX",
"uXuXuXuXuXuXuXuXuXuXuXuXuXX X X X X X X X B s F.F.F.F.F.F.F.F.F.F.n.F.q X X X X X X X X X X uXuXuXuXuXuXuXuXuXuXuXuXuXuXuXuXuXuX",
"uXuXuXuXuXuXuXuXuXuXuXuXuXuXX X X X X X X X * k ` n.F.F.F.F.F.F.F.F.X X X X X X X X X X X uXuXuXuXuXuXuXuXuXuXuXuXuXuXuXuXuXuXuX",
"uXuXuXuXuXuXuXuXuXuXuXuXuXuXX X X X X X X X X X s P 2.F.F.F.F.9.k X X X X X X X X X X X uXuXuXuXuXuXuXuXuXuXuXuXuXuXuXuXuXuXuXuX",
"uXuXuXuXuXuXuXuXuXuXuXuXuXuXuXX X X X X X X X X X X S R K * X X X X X X X X X X X X uXuXuXuXuXuXuXuXuXuXuXuXuXuXuXuXuXuXuXuXuXuX",
"uXuXuXuXuXuXuXuXuXuXuXuXuXuXuXuXuXX X u X X X X X X X X X X X X X X X X X X X X X uXuXuXuXuXuXuXuXuXuXuXuXuXuXuXuXuXuXuXuXuXuXuX",
"uXuXuXuXuXuXuXuXuXuXuXuXuXuXuXuXuXuXX X X X X X X X X X X X X X X X X X X X X uXuXuXuXuXuXuXuXuXuXuXuXuXuXuXuXuXuXuXuXuXuXuXuXuX",
"uXuXuXuXuXuXuXuXuXuXuXuXuXuXuXuXuXuXuXuXX X X X X X X X X X X X X X X X uXuXuXuXuXuXuXuXuXuXuXuXuXuXuXuXuXuXuXuXuXuXuXuXuXuXuXuX",
"uXuXuXuXuXuXuXuXuXuXuXuXuXuXuXuXuXuXuXuXuXuXuXX X X X X X X X X uXuXuXuXuXuXuXuXuXuXuXuXuXuXuXuXuXuXuXuXuXuXuXuXuXuXuXuXuXuXuXuX",
"uXuXuXuXuXuXuXuXuXuXuXuXuXuXuXuXuXuXuXuXuXuXuXuXuXuXuXuXuXuXuXuXuXuXuXuXuXuXuXuXuXuXuXuXuXuXuXuXuXuXuXuXuXuXuXuXuXuXuXuXuXuXuXuX",
"uXuXuXuXuXuXuXuXuXuXuXuXuXuXuXuXuXuXuXuXuXuXuXuXuXuXuXuXuXuXuXuXuXuXuXuXuXuXuXuXuXuXuXuXuXuXuXuXuXuXuXuXuXuXuXuXuXuXuXuXuXuXuXuX",
"uXuXuXuXuXuXuXuXuXuXuXuXuXuXuXuXuXuXuXuXuXuXuXuXuXuXuXuXuXuXuXuXuXuXuXuXuXuXuXuXuXuXuXuXuXuXuXuXuXuXuXuXuXuXuXuXuXuXuXuXuXuXuXuX",
"uXuXuXuXuXuXuXuXuXuXuXuXuXuXuXuXuXuXuXuXuXuXuXuXuXuXuXuXuXuXuXuXuXuXuXuXuXuXuXuXuXuXuXuXuXuXuXuXuXuXuXuXuXuXuXuXuXuXuXuXuXuXuXuX",
"uXuXuXuXuXuXuXuXuXuXuXuXuXuXuXuXuXuXuXuXuXuXuXuXuXuXuXuXuXuXuXuXuXuXuXuXuXuXuXuXuXuXuXuXuXuXuXuXuXuXuXuXuXuXuXuXuXuXuXuXuXuXuXuX"
};
