/* XPM */
static char *_3f19ce81ad14dc8843c3200c661b288dTlStGhjAtfHLoeX[] = {
/* columns rows colors chars-per-pixel */
"64 64 163 2 ",
"   c #020304",
".  c #030709",
"X  c #06090C",
"o  c #0A0B0C",
"O  c #070D11",
"+  c #080F14",
"@  c #091016",
"#  c #0B141B",
"$  c #171718",
"%  c #0D1921",
"&  c #0D2027",
"*  c #12252F",
"=  c #142632",
"-  c #172B38",
";  c #1C3445",
":  c #203B4F",
">  c #213E52",
",  c #0C2166",
"<  c #0F2468",
"1  c #12266A",
"2  c #132A6D",
"3  c #192D6E",
"4  c #173374",
"5  c #1B3474",
"6  c #193877",
"7  c #1B3B7A",
"8  c #223574",
"9  c #263976",
"0  c #2B3E7A",
"q  c #274961",
"w  c #284B64",
"e  c #2A4F69",
"r  c #2B526C",
"t  c #21586B",
"y  c #2F417C",
"u  c #32447E",
"i  c #2D5772",
"p  c #315B79",
"a  c #4B4C4C",
"s  c #7B7B7B",
"d  c #1F4280",
"f  c #214481",
"g  c #244A85",
"h  c #264E89",
"j  c #354780",
"k  c #374982",
"l  c #3C4D84",
"z  c #2B5087",
"x  c #2A548E",
"c  c #3E5086",
"v  c #3F5389",
"b  c #2C5790",
"n  c #2D5B93",
"m  c #305F96",
"M  c #376688",
"N  c #356382",
"B  c #316097",
"V  c #34659A",
"C  c #36699E",
"Z  c #3D7297",
"A  c #376AA0",
"S  c #386DA1",
"D  c #3B72A5",
"F  c #3F77A8",
"G  c #3F78A9",
"H  c #405187",
"J  c #415489",
"K  c #465A8E",
"L  c #4E5D8F",
"P  c #495D91",
"I  c #5F6D9A",
"U  c #65729D",
"Y  c #417AA1",
"T  c #417CAC",
"R  c #447FB0",
"E  c #6875A0",
"W  c #757FA5",
"Q  c #797EA1",
"!  c #827F9A",
"~  c #3F9CBF",
"^  c #4582AC",
"/  c #4583B2",
"(  c #4887B4",
")  c #4989B6",
"_  c #4A8BB8",
"`  c #4396BD",
"'  c #4298BE",
"]  c #7480A7",
"[  c #3F9DC0",
"{  c #35ACC6",
"}  c #3CA2C2",
"|  c #2FB7CB",
" . c #2EB8CB",
".. c #1BD5D8",
"X. c #16DCDB",
"o. c #19D8D9",
"O. c #17D2D2",
"+. c #24C6D2",
"@. c #12E3DE",
"#. c #00FFEA",
"$. c #8F8F90",
"%. c #8F8DA7",
"&. c #838DAF",
"*. c #8A8DAA",
"=. c #9596AF",
"-. c #8992B2",
";. c #939BBA",
":. c #9396B0",
">. c #A199AB",
",. c #97A0BE",
"<. c #9DA3BF",
"1. c #A3A4A4",
"2. c #AAA5B6",
"3. c #ADA9B9",
"4. c #B1AFBF",
"5. c #9CA9C5",
"6. c #9FB2CC",
"7. c #A1A7C0",
"8. c #A4ABC4",
"9. c #AAADC3",
"0. c #ADB1C7",
"q. c #ACB2C9",
"w. c #ABB8CF",
"e. c #A2B5CD",
"r. c #B6B4C5",
"t. c #B3B7CC",
"y. c #B7BBCE",
"u. c #BBBCCD",
"i. c #A7B9D1",
"p. c #ADBED4",
"a. c #BABED1",
"s. c #B5BBD0",
"d. c #BFC0CF",
"f. c #BAC1D3",
"g. c #C2C4D2",
"h. c #C7C9D6",
"j. c #C8C9D7",
"k. c #C3C7D9",
"l. c #CBCDDA",
"z. c #C4C9D9",
"x. c #CFD1DD",
"c. c #D1D3DF",
"v. c #CED3E1",
"b. c #D3D5E2",
"n. c #D6D9E4",
"m. c #DADCE6",
"M. c #DCDFE8",
"N. c #DEE1E9",
"B. c #E5E7EF",
"V. c #E2E4EC",
"C. c #E6E8EF",
"Z. c #ECEDED",
"A. c #E7E9F0",
"S. c #EBEDF3",
"D. c #EFF0F5",
"F. c #F2F3F6",
"G. c #F4F5F8",
"H. c #F8F9FB",
"J. c #F9FAFB",
"K. c white",
"L. c #FEFEFE",
"P. c #FDFDFE",
"I. c #FFFFFF",
/* pixels */
"K.K.K.K.K.K.K.K.K.K.K.K.K.K.K.K.K.K.K.K.K.K.K.K.K.K.K.K.K.K.K.K.K.K.K.K.K.K.K.K.K.K.K.K.K.K.K.K.K.K.K.K.K.K.K.K.K.K.K.K.K.K.K.K.",
"K.K.K.K.K.K.K.K.K.K.K.K.K.K.K.K.K.K.K.K.K.K.K.K.K.K.K.K.K.K.K.K.K.K.K.K.K.K.K.K.K.K.K.K.K.K.K.K.K.K.K.K.K.K.K.K.K.K.K.K.K.K.K.K.",
"K.K.K.K.K.K.K.K.K.K.K.K.K.K.K.K.K.K.K.K.K.K.K.K.K.K.K.K.K.K.K.K.K.K.K.K.K.K.K.K.K.K.K.K.K.K.K.K.K.K.K.K.K.K.K.K.K.K.K.K.K.K.K.K.",
"K.K.K.K.K.K.K.K.K.K.K.K.K.K.K.K.K.K.K.K.K.K.K.K.K.K.K.K.K.K.K.K.K.K.K.K.K.K.K.K.K.K.K.K.;.8.K.K.K.K.K.K.K.K.K.K.K.K.K.K.K.K.K.K.",
"K.K.K.K.K.K.K.K.K.g.] ,.a.B.K.K.K.K.K.K.K.K.K.K.K.K.K.K.K.K.K.K.K.K.K.K.K.K.K.K.K.K.K.K.k.W H.K.K.K.K.K.K.K.K.K.K.K.K.K.K.K.K.K.",
"K.K.K.K.K.K.K.K.K.G.5.;.p.v J f.S.K.K.K.K.K.K.K.K.K.K.K.K.K.K.K.K.K.K.K.K.K.K.K.K.K.K.K.B.-.a.K.K.K.K.K.K.K.K.K.K.K.K.K.K.K.K.K.",
"K.K.K.K.K.K.K.K.K.K.K.6.3 , , 9 J w.S.K.K.K.K.K.K.K.K.K.K.K.K.K.K.K.K.K.K.K.K.K.K.K.K.K.G.;.<.K.K.K.K.K.K.K.K.K.K.K.K.K.K.K.K.K.",
"K.K.K.K.K.K.K.K.K.K.K.G.5.1 , , , 5 K a.K.K.K.K.K.K.K.K.K.K.K.K.K.K.K.K.K.K.K.K.K.K.K.K.K.;.q.M.K.K.K.K.K.K.K.K.K.K.K.K.K.K.K.K.",
"K.K.K.K.K.K.K.K.K.K.K.K.A.i.1 , , , , k 5.M.K.K.K.K.K.K.K.K.K.K.K.K.K.K.K.K.K.K.K.K.K.K.K.;.8 y.K.K.K.K.K.K.K.K.K.K.K.K.K.K.K.K.",
"K.K.K.K.K.K.K.K.K.K.K.K.K.M.p.2 , < 1 , 1 J a.K.K.K.K.K.K.K.K.K.K.K.K.K.K.K.K.K.K.K.K.K.K.c , l K.K.K.K.K.K.K.K.K.K.K.K.K.K.K.K.",
"K.K.K.K.K.K.K.K.K.K.K.K.K.K.N.J , h C 6 , , k 9.K.K.K.K.K.K.K.K.K.K.K.K.K.K.K.K.K.K.K.K.F.l , l K.K.K.K.K.K.K.K.K.K.K.K.K.K.K.K.",
"K.K.K.K.K.K.K.K.K.K.K.K.K.K.K.n.J , V G 6 , , j 2.K.K.K.K.K.K.K.K.K.K.K.K.K.K.K.K.K.K.K.m.j , l K.K.K.K.K.K.K.K.K.K.K.K.K.K.K.K.",
"K.K.K.K.K.K.K.K.K.K.K.K.K.K.K.K.r.0 , F T 2 , , j r.K.K.K.K.K.K.K.K.K.K.K.K.K.K.K.K.K.K.a.5 , l H.K.K.K.K.K.K.K.K.K.K.K.K.K.K.K.",
"K.K.K.K.K.K.K.K.K.K.K.K.K.K.K.K.K.K , , T T 6 , , K S.K.K.K.K.K.K.K.K.K.K.K.K.K.K.K.K.K.H , , l V.K.K.K.K.K.K.K.K.K.K.K.K.K.K.K.",
"K.K.K.K.K.K.K.K.K.K.K.K.K.K.K.K.K.M.K 1 2 ( T 2 , k k.K.K.K.K.K.K.K.K.K.K.K.K.K.K.K.K.j.u , , J c.K.K.K.K.K.K.K.K.K.K.K.K.K.K.K.",
"K.K.K.K.K.K.K.K.K.K.K.K.K.K.K.K.K.K.2.P , F ) f , 9 q.K.K.K.K.K.K.K.K.K.K.K.K.K.K.K.P.l , , , J K.K.K.K.K.K.K.K.K.K.K.K.K.K.K.K.",
"K.K.K.K.K.K.K.K.K.K.K.K.K.K.K.K.K.K.C.J , T D x , y s.K.K.K.K.K.K.K.K.K.K.K.K.K.K.K.u.0 , , J >.K.K.K.K.K.K.K.K.K.K.K.K.K.K.K.K.",
"K.K.K.K.K.K.K.K.K.K.K.K.K.K.K.K.K.K.K.J , T n h , J n.K.K.K.K.K.K.K.K.K.K.K.K.K.K.V.l , , , J B.K.K.K.K.K.K.K.K.K.K.K.K.K.K.K.K.",
"K.K.K.K.K.K.K.K.K.K.K.K.K.K.K.K.K.K.H.K 2 x B 4 , K K.K.K.K.K.K.K.K.K.K.K.K.K.K.K.<.1 , , l &.K.K.K.K.K.K.K.K.K.K.K.K.K.K.K.K.K.",
"K.K.K.K.K.K.K.K.K.K.K.K.K.K.K.K.K.K.N.K 6 S 4 , J l.K.K.K.K.K.K.K.K.K.K.K.K.K.K.r.0 , , , J v.K.K.K.K.K.K.K.K.K.K.K.K.K.K.K.K.K.",
"K.K.K.K.K.K.K.K.K.K.K.K.K.K.K.K.K.K.9.v f f , c 4.K.K.K.K.K.K.K.K.K.K.K.K.K.K.u.u , , , j W K.K.K.K.K.K.K.K.K.K.K.K.K.K.K.K.K.K.",
"K.K.K.K.K.K.K.K.K.K.K.K.K.K.K.K.K.K.K , 2 , c 3.K.K.K.K.K.K.K.K.K.K.K.K.K.K.f.k , , , , J z.K.K.K.K.K.K.K.K.K.K.K.K.K.K.K.K.K.K.",
"K.K.K.K.K.K.K.K.K.K.K.K.K.K.K.K.K.g.y , 1 K r.K.K.K.K.K.K.K.K.K.K.K.K.K.K.0.j , , , , 5 U K.K.K.K.K.K.K.K.K.K.K.K.K.K.K.K.K.K.K.",
"K.K.K.K.K.K.K.K.K.K.K.K.K.K.K.K.K.-.L 8 e.M.K.K.K.K.K.K.K.K.K.K.K.K.K.b.c 0 , , 7 , , J ;.K.K.K.K.K.K.K.K.K.K.K.K.K.K.K.K.K.K.K.",
"K.K.K.K.K.K.K.K.K.K.K.K.K.K.K.K.H.I I v.K.K.K.C.l.g.h.c.V.F.H.F.M.u.l k , , , f f g , J b.K.K.K.K.K.K.K.K.K.K.K.K.K.K.K.K.K.K.K.",
"K.K.K.K.K.K.K.K.K.K.K.K.K.K.K.K.K.m.K.K.S.t.l k u 0 0 u k l l l k 9 , , , , 6 z f , 1 E K.K.K.K.K.K.K.K.K.K.K.K.K.K.K.K.K.K.K.K.",
"K.K.K.K.K.K.K.K.K.K.K.K.K.K.K.K.K.K.K.u.l 8 , , , , , , , , , , , , , , 6 d S T f , 0 ! K.K.K.K.K.K.K.K.K.K.K.K.K.K.K.K.K.K.K.K.",
"K.K.K.K.K.K.K.K.K.K.K.K.K.K.K.K.K.A.<.0 , , , , , , , , , , , , , , , 6 C _ _ x 6 , k %.K.K.K.K.K.K.K.K.K.K.K.K.K.K.K.K.K.K.K.K.",
"K.K.K.K.K.K.K.K.K.K.K.K.K.K.K.K.m.<.3 , , , , , , , , , , , g h h x x _ _ _ ) 6 , , l =.K.K.K.K.K.K.K.K.K.K.K.K.K.K.K.K.K.K.K.K.",
"K.K.K.K.K.K.K.K.K.K.K.K.K.K.K.M.l < , , , , , , , , , g x C T T _ _ _ _ _ ) S 6 , , l :.K.K.K.K.K.K.K.K.K.K.K.K.K.K.K.K.K.K.K.K.",
"K.K.K.K.K.K.K.K.K.K.K.K.K.K.B.c , , , , , , , , 6 g B T _ _ _ _ _ _ _ _ _ / b 6 , , k *.K.K.K.K.K.K.K.K.K.K.K.K.K.K.K.K.K.K.K.K.",
"K.K.K.K.K.K.K.K.K.K.K.K.K.H.<.3 , , , , , , 6 f m T _ _ _ _ _ _ _ _ _ _ _ _ T 6 , , 0 Q K.K.K.K.K.K.K.K.K.K.K.K.K.K.K.K.K.K.K.K.",
"K.K.K.K.K.K.K.K.K.K.K.K.K.u.0 , , , , , , 7 h D _ _ _ _ _ _ _ _ _ _ _ _ _ ) x 6 , , , U K.K.K.K.K.K.K.K.K.K.K.K.K.K.K.K.K.K.K.K.",
"K.K.K.K.K.K.K.K.K.K.K.K.N.l , , , , , , d n T _ _ _ _ _ _ _ _ _ _ _ _ _ _ _ C f , , , c P.K.K.K.K.K.K.K.K.K.K.K.K.K.K.K.K.K.K.K.",
"K.K.K.K.K.K.K.K.K.K.K.K.7.1 , , , , , f V ( _ _ _ _ _ _ _ _ _ _ _ _ _ _ _ _ / x , , , J n.K.K.K.K.K.K.K.K.K.K.K.K.K.K.K.K.K.K.K.",
"K.K.K.K.K.K.K.K.K.K.K.M.k , , , , , g D _ _ _ _ _ _ _ _ _ _ _ _ _ r # = w _ / n , , , H 9.K.K.K.K.K.K.K.K.K.K.K.K.K.K.K.K.K.K.K.",
"K.K.K.K.K.K.K.K.K.K.K.0.3 , , , , 7 F _ M ; - p _ _ _ _ _ _ _ _ r   .   X q / V g , , 9 &.K.K.K.K.K.K.K.K.K.K.K.K.K.K.K.K.K.K.K.",
"K.K.K.K.K.K.K.K.K.K.K.l , , , , , T _ N #     # w | ' _ _ _ _ _ - $ Z.$.  X T V m , , , J K.K.K.K.K.K.K.K.K.K.K.K.K.K.K.K.K.K.K.",
"K.K.K.K.K.K.K.K.K.K.A.k , , , , m _ ( #   Z.s o & ^ _ [ +.{ _ ) =   1.a   . D C n , , , H n.K.K.K.K.K.K.K.K.K.K.K.K.K.K.K.K.K.K.",
"K.K.K.K.K.K.K.K.K.K.x.u , , , , ) _ ^ +   $.a   * / o.o...X.} ' p     . X e S S n , , , 0 u.K.K.K.K.K.K.K.K.K.K.K.K.K.K.K.K.K.K.",
"K.K.K.K.K.K.K.K.K.K.g.9 , , , , V _ _ :     o @ t ..#.#.#.#.@.+.~ N @ % w _ C D b , , , , l K.K.K.K.K.K.K.K.K.K.K.K.K.K.K.K.K.K.",
"K.K.K.K.K.K.K.K.K.K.y.8 , , , , , _ _ ^ > % * i O.#.#.#.#.#.#.X.[ _ _ _ _ _ V F n , , , , l S.K.K.K.K.K.K.K.K.K.K.K.K.K.K.K.K.K.",
"K.K.K.K.K.K.K.K.K.K.y.8 , , , , ) _ _ _ _ ^ ^ ' X.#.#.#.#.#.#.#.X._ _ _ _ _ m F B , , , , 0 l.K.K.K.K.K.K.K.K.K.K.K.K.K.K.K.K.K.",
"K.K.K.K.K.K.K.K.K.K.d.9 , , , , V _ _ _ _ _ | ` ..#.#.#.#.#.#.#.X._ _ _ _ _ n D x , , , , 1 8.K.K.K.K.K.K.K.K.K.K.K.K.K.K.K.K.K.",
"K.K.K.K.K.K.K.K.K.K.l.y , , , , x / _ _ _ _ ' ' @.#.#.#.#.#.#..._ _ _ _ _ / n m , , , , , , c K.K.K.K.K.K.K.K.K.K.K.K.K.K.K.K.K.",
"K.K.K.K.K.K.K.K.K.K.V.k , , , , , C T _ _ _ _ _ ' ..#.#.#.#.@.} _ _ _ _ _ D n V , , , , , , l G.K.K.K.K.K.K.K.K.K.K.K.K.K.K.K.K.",
"K.K.K.K.K.K.K.K.K.K.G.l , , , , , T B _ _ _ _ _ _ _ ....o.@._ _ _ _ _ _ _ n x R , , , , , , l F.K.K.K.K.K.K.K.K.K.K.K.K.K.K.K.K.",
"K.K.K.K.K.K.K.K.K.K.K.l , , , , , , n D _ Y Z Y _ _ {  .{ ' _ _ _ _ _ _ / f G , , , , , , , l K.K.K.K.K.K.K.K.K.K.K.K.K.K.K.K.K.",
"K.K.K.K.K.K.K.K.K.K.K.l.u , , , , , , h ) ) i   w ) _ _ _ _ _ _ _ _ _ ^ n V , , , , , , , j h.K.K.K.K.K.K.K.K.K.K.K.K.K.K.K.K.K.",
"K.K.K.K.K.K.K.K.K.K.K.J.l , , , , , , , h T _ r     w ^ ^ / ) ) _ _ / C C , , , , , , , 9 8.K.K.K.K.K.K.K.K.K.K.K.K.K.K.K.K.K.K.",
"K.K.K.K.K.K.K.K.K.K.K.K.l.j , , , , , , , n C _ ^ ; . O O = Z ^ ^ D C n , , , , , , , 9 <.F.K.K.K.K.K.K.K.K.K.K.K.K.K.K.K.K.K.K.",
"K.K.K.K.K.K.K.K.K.K.K.K.K.r.u , , , , , , , A V T ) ) ( T D S V C n , , , , , , , , 0 3.H.K.K.K.K.K.K.K.K.K.K.K.K.K.K.K.K.K.K.K.",
"K.K.K.K.K.K.K.K.K.K.K.K.K.K.4.0 , , , , , , , x V m m n m C n , , , , , , , , , , k r.K.K.K.K.K.K.K.K.K.K.K.K.K.K.K.K.K.K.K.K.K.",
"K.K.K.K.K.K.K.K.K.K.K.K.K.K.K.r.k , , , , , , , , , , , , , , , , , , , , , , 9 l c.K.K.K.K.K.K.K.K.K.K.K.K.K.K.K.K.K.K.K.K.K.K.",
"K.K.K.K.K.K.K.K.K.K.K.K.K.K.K.K.l.l 9 , , , , , , , , , , , , , , , , , , < k 0.D.K.K.K.K.K.K.K.K.K.K.K.K.K.K.K.K.K.K.K.K.K.K.K.",
"K.K.K.K.K.K.K.K.K.K.K.K.K.K.K.K.K.F.r.l 8 , , , , , , , , , , , , , , 2 k 7.n.K.K.K.K.K.K.K.K.K.K.K.K.K.K.K.K.K.K.K.K.K.K.K.K.K.",
"K.K.K.K.K.K.K.K.K.K.K.K.K.K.K.K.K.K.K.S.t.l k 5 , , , , , , , , 2 u l 9.n.K.K.K.K.K.K.K.K.K.K.K.K.K.K.K.K.K.K.K.K.K.K.K.K.K.K.K.",
"K.K.K.K.K.K.K.K.K.K.K.K.K.K.K.K.K.K.K.K.K.K.n.y.l l l l l l l l 0.x.F.K.K.K.K.K.K.K.K.K.K.K.K.K.K.K.K.K.K.K.K.K.K.K.K.K.K.K.K.K.",
"K.K.K.K.K.K.K.K.K.K.K.K.K.K.K.K.K.K.K.K.K.K.K.K.K.K.K.G.F.G.P.K.K.K.K.K.K.K.K.K.K.K.K.K.K.K.K.K.K.K.K.K.K.K.K.K.K.K.K.K.K.K.K.K.",
"K.K.K.K.K.K.K.K.K.K.K.K.K.K.K.K.K.K.K.K.K.K.K.K.K.K.K.K.K.K.K.K.K.K.K.K.K.K.K.K.K.K.K.K.K.K.K.K.K.K.K.K.K.K.K.K.K.K.K.K.K.K.K.K.",
"K.K.K.K.K.K.K.K.K.K.K.K.K.K.K.K.K.K.K.K.K.K.K.K.K.K.K.K.K.K.K.K.K.K.K.K.K.K.K.K.K.K.K.K.K.K.K.K.K.K.K.K.K.K.K.K.K.K.K.K.K.K.K.K.",
"K.K.K.K.K.K.K.K.K.K.K.K.K.K.K.K.K.K.K.K.K.K.K.K.K.K.K.K.K.K.K.K.K.K.K.K.K.K.K.K.K.K.K.K.K.K.K.K.K.K.K.K.K.K.K.K.K.K.K.K.K.K.K.K.",
"K.K.K.K.K.K.K.K.K.K.K.K.K.K.K.K.K.K.K.K.K.K.K.K.K.K.K.K.K.K.K.K.K.K.K.K.K.K.K.K.K.K.K.K.K.K.K.K.K.K.K.K.K.K.K.K.K.K.K.K.K.K.K.K.",
"K.K.K.K.K.K.K.K.K.K.K.K.K.K.K.K.K.K.K.K.K.K.K.K.K.K.K.K.K.K.K.K.K.K.K.K.K.K.K.K.K.K.K.K.K.K.K.K.K.K.K.K.K.K.K.K.K.K.K.K.K.K.K.K."
};
